<mxfile modified="2023-07-09T03:01:10.280Z" host="app.diagrams.net" agent="Mozilla/5.0 (Windows NT 10.0; Win64; x64) AppleWebKit/537.36 (KHTML, like Gecko) Chrome/114.0.0.0 Safari/537.36" etag="yDCNADUhF2vpnqZZzvRp" version="21.5.0" type="google">
  <diagram id="Ht1M8jgEwFfnCIfOTk4-" name="Page-1">
    <mxGraphModel dx="1114" dy="626" grid="1" gridSize="10" guides="0" tooltips="1" connect="1" arrows="1" fold="1" page="1" pageScale="1" pageWidth="827" pageHeight="1169" background="#ffffff" math="0" shadow="0">
      <root>
        <mxCell id="0" />
        <mxCell id="1" parent="0" />
        <mxCell id="nfACmutVR25ySbIeztQv-52" value="" style="rounded=0;whiteSpace=wrap;html=1;fillColor=#E1CBE2;opacity=50;" parent="1" vertex="1">
          <mxGeometry x="260" y="260" width="760" height="560" as="geometry" />
        </mxCell>
        <mxCell id="UEzPUAAOIrF-is8g5C7q-59" style="edgeStyle=orthogonalEdgeStyle;rounded=0;orthogonalLoop=1;jettySize=auto;html=1;endArrow=open;endFill=0;strokeWidth=2;strokeColor=#545B64;startArrow=none;shadow=1;" parent="1" edge="1">
          <mxGeometry relative="1" as="geometry">
            <mxPoint x="73" y="450" as="sourcePoint" />
            <mxPoint x="160" y="450" as="targetPoint" />
          </mxGeometry>
        </mxCell>
        <mxCell id="SCVMTBWpLvtzJIhz15lM-1" value="" style="line;strokeWidth=2;html=1;fontSize=14;" parent="1" vertex="1">
          <mxGeometry x="8" y="140.5" width="1060" height="10" as="geometry" />
        </mxCell>
        <mxCell id="7OVz4w7n9kzEPWy-4BBC-3" value="for quality." style="rounded=0;whiteSpace=wrap;html=1;fillColor=#EAEDED;fontSize=22;fontColor=#E8E8E8;strokeColor=none;labelBackgroundColor=none;" parent="1" vertex="1">
          <mxGeometry x="1010" y="240" width="626" height="600" as="geometry" />
        </mxCell>
        <mxCell id="7OVz4w7n9kzEPWy-4BBC-4" value="1" style="rounded=1;whiteSpace=wrap;html=1;fillColor=#007CBD;strokeColor=none;fontColor=#FFFFFF;fontStyle=1;fontSize=22;labelBackgroundColor=none;" parent="1" vertex="1">
          <mxGeometry x="1030" y="298" width="40" height="38" as="geometry" />
        </mxCell>
        <mxCell id="7OVz4w7n9kzEPWy-4BBC-5" value="2" style="rounded=1;whiteSpace=wrap;html=1;fillColor=#007CBD;strokeColor=none;fontColor=#FFFFFF;fontStyle=1;fontSize=22;labelBackgroundColor=none;" parent="1" vertex="1">
          <mxGeometry x="1030" y="358" width="40" height="38" as="geometry" />
        </mxCell>
        <mxCell id="nfACmutVR25ySbIeztQv-60" style="edgeStyle=orthogonalEdgeStyle;rounded=0;orthogonalLoop=1;jettySize=auto;html=1;exitX=0.5;exitY=1;exitDx=0;exitDy=0;" parent="1" source="7OVz4w7n9kzEPWy-4BBC-6" target="7OVz4w7n9kzEPWy-4BBC-3" edge="1">
          <mxGeometry relative="1" as="geometry" />
        </mxCell>
        <mxCell id="7OVz4w7n9kzEPWy-4BBC-6" value="3" style="rounded=1;whiteSpace=wrap;html=1;fillColor=#007CBD;strokeColor=none;fontColor=#FFFFFF;fontStyle=1;fontSize=22;labelBackgroundColor=none;" parent="1" vertex="1">
          <mxGeometry x="1030" y="428" width="40" height="38" as="geometry" />
        </mxCell>
        <mxCell id="7OVz4w7n9kzEPWy-4BBC-18" value="&lt;span&gt;Developer completes feature and commits to source control such as GitHub.&lt;/span&gt;" style="text;html=1;align=left;verticalAlign=top;spacingTop=-4;fontSize=14;labelBackgroundColor=none;whiteSpace=wrap;fontColor=#080808;" parent="1" vertex="1">
          <mxGeometry x="1080" y="294" width="450" height="40" as="geometry" />
        </mxCell>
        <mxCell id="nfACmutVR25ySbIeztQv-3" value="" style="edgeStyle=orthogonalEdgeStyle;rounded=0;orthogonalLoop=1;jettySize=auto;html=1;shadow=1;" parent="1" source="nfACmutVR25ySbIeztQv-1" edge="1">
          <mxGeometry relative="1" as="geometry">
            <mxPoint x="62" y="552" as="targetPoint" />
          </mxGeometry>
        </mxCell>
        <mxCell id="nfACmutVR25ySbIeztQv-1" value="Push Code to GitHub" style="shape=actor;whiteSpace=wrap;html=1;verticalAlign=top;fontColor=#030303;labelPosition=center;verticalLabelPosition=bottom;align=center;shadow=1;" parent="1" vertex="1">
          <mxGeometry x="42" y="412" width="58" height="60" as="geometry" />
        </mxCell>
        <mxCell id="nfACmutVR25ySbIeztQv-4" value="" style="verticalLabelPosition=bottom;html=1;verticalAlign=bottom;align=center;strokeColor=none;fillColor=#00BEF2;shape=mxgraph.azure.github_code;pointerEvents=1;shadow=1;" parent="1" vertex="1">
          <mxGeometry x="159" y="419" width="60" height="64" as="geometry" />
        </mxCell>
        <mxCell id="nfACmutVR25ySbIeztQv-6" style="edgeStyle=orthogonalEdgeStyle;rounded=0;orthogonalLoop=1;jettySize=auto;html=1;endArrow=open;endFill=0;strokeWidth=2;strokeColor=#545B64;startArrow=none;entryX=0;entryY=0.5;entryDx=0;entryDy=0;shadow=1;" parent="1" edge="1">
          <mxGeometry relative="1" as="geometry">
            <mxPoint x="220" y="450.5" as="sourcePoint" />
            <mxPoint x="270" y="451" as="targetPoint" />
          </mxGeometry>
        </mxCell>
        <mxCell id="nfACmutVR25ySbIeztQv-18" value="" style="shape=image;verticalLabelPosition=bottom;labelBackgroundColor=default;verticalAlign=top;aspect=fixed;imageAspect=0;image=data:image/png,iVBORw0KGgoAAAANSUhEUgAAAh4AAAHkCAYAAABxIiaoAAAMbmlDQ1BJQ0MgUHJvZmlsZQAASImVlwdYU8kWgOeWJCQktEAEpITeBJEaQEoILYCAVMFGSAIJJcSEoGLDsqjg2kUEbOiqiG11BWQtiL0sir0vFlSUdVEXRVF5ExLQdV/53vm+uffPmTPnnDmZufcOANq9PKk0F9UBIE9SIIsPD2aOS01jkp4BBFAADVgBFo8vl7Lj4qIBlMH73+XdDWgN5aqz0tc/+/+r6AmEcj4AyATIGQI5Pw9yMwB4NV8qKwCAqNRbTS2QKrkYsr4MJgh5tZKzVLxDyRkqPjxgkxjPgXwZAA0qjyfLAkDrHtQzC/lZ0I/WJ8iuEoFYAoD2CMgBfBFPAFmZ+4i8vHwlV0C2h/ZSyDAfwMr4xmfW3/xnDPnn8bKGWDWvAdEIEculubzp/2dp/rfk5SoGY9jCRhXJIuKV84c1vJWTH6VkKuQuSUZMrLLWkHvFAlXdAUApIkVEksoeNeHLObB+gAHZVcALiYJsAjlMkhsTrdZnZIrDuJDhakGniQu4iZANIS8SykMT1DabZPnx6lhofaaMw1brz/JkA3GVsR4ocpLYav9vREKu2j+mVSRKTIFMgWxdKE6OgawF2UWekxClthldJOLEDNrIFPHK/K0hxwsl4cEq/1hhpiwsXm1fmicfnC+2SSTmxqh5f4EoMUJVH+wknzeQP5wLdlkoYScN+hHKx0UPzkUgDAlVzR17LpQkJaj99EoLguNVY3GKNDdObY9bCnPDlXpLyB7ywgT1WDy5AC5OlX88U1oQl6jKEy/K5kXGqfLBl4NowAEhgAkUsGWAfJANxK1dDV3wl6onDPCADGQBIXBWawZHpAz0SOA1ARSBPyAJgXxoXPBArxAUQv3nIa3q6gwyB3oLB0bkgKeQ80AUyIW/FQOjJEPRksETqBH/IzoPNj7MNxc2Zf+/1w9qv2rYUBOt1igGIzK1By2JocQQYgQxjOiAG+MBuB8eDa9BsLnhLNxncB5f7QlPCW2ER4TrhHbC7cniebLvshwD2qH/MHUtMr6tBW4LfXriwbg/9A494wzcGDjjHjAOGw+EkT2hlqPOW1kV5ne+/zaDb/4NtR3ZlYySh5GDyPbfj9Ry1PIc8qKs9bf1UeWaMVRvzlDP9/E531RfAO9R31tii7AD2BnsOHYOO4w1ACZ2DGvELmJHlDy0up4MrK7BaPED+eRAP+J/xOOpYyorKXetc+10/aTqKxBOK1BuPE6+dLpMnCUqYLLh20HI5Er4LiOYbq5u7gAo3zWqx9dbxsA7BGGc/6rLPwuAj3K/VX7VpZ8AoP4pALrMrzpb+GzQIQNwVM5XyApVOlx5IcCnhDbcaUbADL7J7OF83IAX8ANBIBREgliQCFLBJFhlEVznMjAVzARzQQkoA8vBGlAJNoItYAfYDfaDBnAYHAenwQVwGVwHd+Hq6QAvQTd4B/oQBCEhNISOGCHmiA3ihLghLCQACUWikXgkFUlHshAJokBmIvORMmQlUolsRmqRn5FDyHHkHNKG3EYeIp3IG+QjiqFUVB81RW3RkSgLZaNRaCI6Ec1Cp6BF6AJ0KVqB1qC70Hr0OHoBvY62oy/RHgxgmhgDs8CcMRbGwWKxNCwTk2GzsVKsHKvB9mBN8H++irVjXdgHnIjTcSbuDFdwBJ6E8/Ep+Gx8CV6J78Dr8ZP4Vfwh3o1/IdAIJgQngi+BSxhHyCJMJZQQygnbCAcJp+Be6iC8IxKJDKId0RvuxVRiNnEGcQlxPXEvsZnYRnxM7CGRSEYkJ5I/KZbEIxWQSkjrSLtIx0hXSB2kXg1NDXMNN40wjTQNicY8jXKNnRpHNa5oPNPoI+uQbci+5FiygDydvIy8ldxEvkTuIPdRdCl2FH9KIiWbMpdSQdlDOUW5R3mrqalpqemjOVZTrFmsWaG5T/Os5kPND1Q9qiOVQ51AVVCXUrdTm6m3qW9pNJotLYiWRiugLaXV0k7QHtB6tehaLlpcLYHWHK0qrXqtK1qvtMnaNtps7UnaRdrl2ge0L2l36ZB1bHU4Ojyd2TpVOod0bur06NJ1R+nG6ubpLtHdqXtO97keSc9WL1RPoLdAb4veCb3HdIxuRefQ+fT59K30U/QOfaK+nT5XP1u/TH+3fqt+t4GegYdBssE0gyqDIwbtDIxhy+AychnLGPsZNxgfh5kOYw8TDls8bM+wK8PeGw43DDIUGpYa7jW8bvjRiGkUapRjtMKowei+MW7saDzWeKrxBuNTxl3D9Yf7DecPLx2+f/gdE9TE0STeZIbJFpOLJj2mZqbhplLTdaYnTLvMGGZBZtlmq82OmnWa080DzMXmq82Pmb9gGjDZzFxmBfMks9vCxCLCQmGx2aLVos/SzjLJcp7lXsv7VhQrllWm1WqrFqtua3PrMdYzreus79iQbVg2Ipu1Nmds3tva2abYLrRtsH1uZ2jHtSuyq7O7Z0+zD7SfYl9jf82B6MByyHFY73DZEXX0dBQ5VjleckKdvJzETuud2kYQRviMkIyoGXHTmerMdi50rnN+6MJwiXaZ59Lg8mqk9ci0kStGnhn5xdXTNdd1q+vdUXqjIkfNG9U06o2boxvfrcrtmjvNPcx9jnuj+2sPJw+hxwaPW550zzGeCz1bPD97eXvJvPZ4dXpbe6d7V3vfZOmz4lhLWGd9CD7BPnN8Dvt88PXyLfDd7/unn7Nfjt9Ov+ej7UYLR28d/djf0p/nv9m/PYAZkB6wKaA90CKQF1gT+CjIKkgQtC3oGduBnc3exX4V7BosCz4Y/J7jy5nFaQ7BQsJDSkNaQ/VCk0IrQx+EWYZlhdWFdYd7hs8Ib44gRERFrIi4yTXl8rm13O5I78hZkSejqFEJUZVRj6Ido2XRTWPQMZFjVo25F2MTI4lpiAWx3NhVsffj7OKmxP06ljg2bmzV2Kfxo+Jnxp9JoCdMTtiZ8C4xOHFZ4t0k+yRFUkuydvKE5Nrk9ykhKStT2seNHDdr3IVU41RxamMaKS05bVtaz/jQ8WvGd0zwnFAy4cZEu4nTJp6bZDwpd9KRydqTeZMPpBPSU9J3pn/ixfJqeD0Z3IzqjG4+h7+W/1IQJFgt6BT6C1cKn2X6Z67MfJ7ln7Uqq1MUKCoXdYk54krx6+yI7I3Z73Nic7bn9Oem5O7N08hLzzsk0ZPkSE7mm+VPy2+TOklLpO1TfKesmdIti5JtkyPyifLGAn34UX9RYa/4QfGwMKCwqrB3avLUA9N0p0mmXZzuOH3x9GdFYUU/zcBn8Ge0zLSYOXfmw1nsWZtnI7MzZrfMsZqzYE5HcXjxjrmUuTlzf5vnOm/lvL/mp8xvWmC6oHjB4x/Cf6gr0SqRldxc6Ldw4yJ8kXhR62L3xesWfykVlJ4vcy0rL/u0hL/k/I+jfqz4sX9p5tLWZV7LNiwnLpcsv7EicMWOlbori1Y+XjVmVf1q5urS1X+tmbzmXLlH+ca1lLWKte0V0RWN66zXLV/3qVJUeb0quGpvtUn14ur36wXrr2wI2rBno+nGso0fN4k33docvrm+xramfAtxS+GWp1uTt575ifVT7TbjbWXbPm+XbG/fEb/jZK13be1Ok53L6tA6RV3nrgm7Lu8O2d24x3nP5r2MvWX7wD7Fvhc/p/98Y3/U/pYDrAN7frH5pfog/WBpPVI/vb67QdTQ3pja2HYo8lBLk1/TwV9dft1+2OJw1RGDI8uOUo4uONp/rOhYT7O0uet41vHHLZNb7p4Yd+LaybEnW09FnTp7Ouz0iTPsM8fO+p89fM733KHzrPMNF7wu1F/0vHjwN8/fDrZ6tdZf8r7UeNnnclPb6LajVwKvHL8acvX0Ne61C9djrrfdSLpx6+aEm+23BLee3869/fpO4Z2+u8X3CPdK7+vcL39g8qDmd4ff97Z7tR95GPLw4qOER3cf8x+/fCJ/8qljwVPa0/Jn5s9qn7s9P9wZ1nn5xfgXHS+lL/u6Sv7Q/aP6lf2rX/4M+vNi97jujtey1/1vlrw1erv9L4+/Wnrieh68y3vX976016h3xwfWhzMfUz4+65v6ifSp4rPD56YvUV/u9ef190t5Mt7ApwAGG5qZCcCb7QDQUgGgw3MbZbzqLDggiOr8OkDgP7HqvDggXgBsaQYgsRiAmCAANim/QSBrQ1Z+wicGAdTdfaipRZ7p7qbyRYUnIUJvf/9bUwBITQB8lvX3963v7/+8FSZ7G4DmKaozqFKI8Ptnk/KsBG5sW1wMvhPV+fSbOX5/B8oMPMD3938BCJeMJ5bC11EAAACWZVhJZk1NACoAAAAIAAUBEgADAAAAAQABAAABGgAFAAAAAQAAAEoBGwAFAAAAAQAAAFIBKAADAAAAAQACAACHaQAEAAAAAQAAAFoAAAAAAAAAkAAAAAEAAACQAAAAAQADkoYABwAAABIAAACEoAIABAAAAAEAAAIeoAMABAAAAAEAAAHkAAAAAEFTQ0lJAAAAU2NyZWVuc2hvdF5j09gAAAAJcEhZcwAAFiUAABYlAUlSJPAAAALbaVRYdFhNTDpjb20uYWRvYmUueG1wAAAAAAA8eDp4bXBtZXRhIHhtbG5zOng9ImFkb2JlOm5zOm1ldGEvIiB4OnhtcHRrPSJYTVAgQ29yZSA2LjAuMCI+CiAgIDxyZGY6UkRGIHhtbG5zOnJkZj0iaHR0cDovL3d3dy53My5vcmcvMTk5OS8wMi8yMi1yZGYtc3ludGF4LW5zIyI+CiAgICAgIDxyZGY6RGVzY3JpcHRpb24gcmRmOmFib3V0PSIiCiAgICAgICAgICAgIHhtbG5zOmV4aWY9Imh0dHA6Ly9ucy5hZG9iZS5jb20vZXhpZi8xLjAvIgogICAgICAgICAgICB4bWxuczp0aWZmPSJodHRwOi8vbnMuYWRvYmUuY29tL3RpZmYvMS4wLyI+CiAgICAgICAgIDxleGlmOlVzZXJDb21tZW50PlNjcmVlbnNob3Q8L2V4aWY6VXNlckNvbW1lbnQ+CiAgICAgICAgIDxleGlmOlBpeGVsWERpbWVuc2lvbj41NDI8L2V4aWY6UGl4ZWxYRGltZW5zaW9uPgogICAgICAgICA8ZXhpZjpQaXhlbFlEaW1lbnNpb24+NDg0PC9leGlmOlBpeGVsWURpbWVuc2lvbj4KICAgICAgICAgPHRpZmY6UmVzb2x1dGlvblVuaXQ+MjwvdGlmZjpSZXNvbHV0aW9uVW5pdD4KICAgICAgICAgPHRpZmY6WFJlc29sdXRpb24+MTQ0LzE8L3RpZmY6WFJlc29sdXRpb24+CiAgICAgICAgIDx0aWZmOllSZXNvbHV0aW9uPjE0NC8xPC90aWZmOllSZXNvbHV0aW9uPgogICAgICAgICA8dGlmZjpPcmllbnRhdGlvbj4xPC90aWZmOk9yaWVudGF0aW9uPgogICAgICA8L3JkZjpEZXNjcmlwdGlvbj4KICAgPC9yZGY6UkRGPgo8L3g6eG1wbWV0YT4KW8WQbwAAQABJREFUeAHsvYd6G0m2ZpskQe/lTVV3dZ8zd755/5eZY6ZPOZW86B3o7lo7mRIIAQlDUATBHVUUXJrIP8z+Y7uYuqQUfZTt7e0+jhr8kI2NjcFPqjkj65l41nSPgX/K/jkwZLUnJJ618Az8Y+I5MGS1JySetfAM/GM3PKcHvlKekAgkAolAIpAIJAKJwJAIJPEYErg8LRFIBBKBRCARSAQGRyCJx+CY5RmJQCKQCCQCiUAiMCQCSTyGBC5PSwQSgUQgEUgEEoHBEUjiMThmeUYikAgkAolAIpAIDIlAEo8hgcvTEoFEIBFIBBKBRGBwBJJ4DI5ZnpEIJAKJQCKQCCQCQyIwtbW11Vcej27xuEPeN067jZwbWc+btMj35yae32Nyk28Sz5ug9/25ief3mNzkm8TzJuh9f27i+T0mfnOnGo/baJTOj3mzb7OeN8Ov/ezEsx2Rm31OPG+GX/vZiWc7Ijf7nHjeDL/2sycBzzslHu2A5udEIBFIBBKBRCARmGwEknhMdvvm0yUCiUAikAgkAmOFQBKPsWqOrEwikAgkAolAIjDZCCTxmOz2zadLBBKBRCARSATGCoEkHmPVHFmZRCARSAQSgURgshFI4jHZ7ZtPlwgkAolAIpAIjBUCSTzGqjmyMolAIpAIJAKJwGQjkMRjsts3ny4RSAQSgUQgERgrBJJ4jFVzZGUSgUQgEUgEEoHJRiCJx2S3bz5dIpAIJAKJQCIwVggk8Rir5sjKJAKJQCKQCCQCk41AEo/Jbt98ukQgEUgEEoFEYKwQSOIxVs2RlUkEEoFEIBFIBCYbgSQek92++XSJQCKQCCQCicBYIZDEY6yaIyuTCCQCiUAikAhMNgJJPCa7ffPpEoFEIBFIBBKBsUIgicdYNUdWJhFIBBKBRCARmGwEknhMdvvm0yUCiUAikAgkAmOFQBKPsWqOrEwikAgkAolAIjDZCCTxmOz2zadLBBKBRCARSATGCoGpS0o/Ndre3u7nsIGP2djYGPicuhOynolnXf8Y9Lfsn4MiVn984lmPz6C/Jp6DIlZ/fOJZj8+gv3bDMzUegyKZxycCiUAikAgkAonA0Agk8RgaujwxEUgEEoFEIBFIBAZFIInHoIjl8YlAIpAIJAKJQCIwNAJJPIaGLk9MBBKBRCARSAQSgUERSOIxKGJ5fCKQCCQCiUAikAgMjUASj6GhyxMTgUQgEUgEEoFEYFAEkngMilgenwgkAolAIpAIJAJDI5DEY2jo8sREIBFIBBKBRCARGBSBJB6DIpbHJwKJQCKQCCQCicDQCCTxGBq6PDERSAQSgUQgEUgEBkUgicegiOXxiUAikAgkAolAIjA0Akk8hoYuT0wEEoFEIBFIBBKBQRFI4jEoYnl8IpAIJAKJQCKQCAyNQBKPoaHLExOBRCARSAQSgURgUASSeAyKWB6fCCQCiUAikAgkAkMjkMRjaOjyxEQgEUgEEoFEIBEYFIEkHoMilscnAolAIpAIJAKJwNAIJPEYGro8MRFIBBKBRCARSAQGRSCJx6CI5fGJQCKQCCQCiUAiMDQCU1tbW5f9nL2xsdHPYQMds729PdDx/Ryc9ewHpf6PSTz7x6qfIxPPflDq/5jEs3+s+jky8ewHpf6PSTw7Y3WnGo/baJTOj3mzb7OeN8Ov/ezEsx2Rm31OPG+GX/vZiWc7Ijf7nHjeDL/2sycBzzslHu2A5udEIBFIBBKBRCARmGwEknhMdvvm0yUCiUAikAgkAmOFQBKPsWqOrEwikAgkAolAIjDZCCTxmOz2zadLBBKBRCARSATGCoEkHmPVHFmZRCARSAQSgURgshFI4jHZ7ZtPlwgkAolAIpAIjBUCSTzGqjmyMolAIpAIJAKJwGQjkMRjsts3ny4RSAQSgUQgERgrBJJ4jFVzZGUSgUQgEUgEEoHJRiCJx2S3bz5dIpAIJAKJQCIwVggk8Rir5sjKJAKJQCKQCCQCk41AEo/Jbt98ukQgEUgEEoFEYKwQSOIxVs2RlUkEEoFEIBFIBCYbgcZkP14+XSKQCHRC4PLysvx6aqooeO9nv+Lf+Hx2dh7vvx4XR0/Fca3Xm/J8z7kqfva/+O7qvYfEcbyprleeV52Vr4lAIvCQEEji8ZBaO581EQCBSviXZOOyuLi4CNJRvpafD4+Pi/MgI+VvQUgkFLKT1iKrgHgE3QiCMV3M8N20f9PTQTh8nZ4uP3tPSUf12nqpfJ8IJAIPA4EkHg+jnfMpJwCBijCcQxQkCegRiguFOO+OQkNRFBd+h3Av/0LvEELeo/3OcyQRFxclgYjjeH/mNf3FV45bnDqMe/i+um+cEtfgMlUJklF+kFBUhAPKUZKNmZnC940r8nF4dBoHS0QqzUicw7dxfrwW5XW8HnX6Smr4bTruX5KXGa6ZBCbgzH8SgXuFQBKPe9VcWdmHioAC1j9Jx8npWdE8baKRgFg0ZoszQNlunkMeLosmxzR9vfo747Ok4oxj/T20GBzP2/gcxIP3fh9kBmHvdzMH58U5x11yoP+VBdLiiS1lCgJR0hspDf/xeYZvKhLir9NTlRaE+5ydQUIkKB5fhHbEzw0+SE5muf8sn+d4P4cHmhPUXGOG4zj2Elp1dhpkZG52Lr6vSJH3y5IIJAL3A4EkHvejnbKWE4hAJTS/Cn8EvHJdbYRC3+/PeX+GwPW7UwhEE81G8/S0OEGAn6LGuJg5LS4RuruHzaIJEznlHP+Ozy6CmPBrnCM58VqSFbUfQVq8ftwH6uD7K05REo3zOI6fr5XrtKMkD9cO4IMe6/KAUqMhufBzSTbUWPje7zwuCIXEg/eSjZkgHRXxqEjIeXk8OEyfQ1w4dx4mNTvTKA7njvjMeVwoXjlfDYrkJ8w7HDtDTfg6vufruL+vWRKBROBuEEjicTe4510TgUDg7BwioUYCNnAssUD6H/PdSbxeYEI5Kw4hG8f8nXCQr00E8MlpqZGQRCjlmxyHTIdmTJeEhQ+SBL8LN1E/8z6O53tJTVmQyJTqewmIxCBIUfVaHtjx3+oq1Y+eq/ZE0nGphoLPals0mZSlfJUcWL6SFD7PlDUuiQOfPQb9C9dQY8J5XpeK+n4OE87czFmxcnxZLKARWWhMF0u8LjYaxcLMdDEPEVmIY3iF0PBzEJsG32VJBBKBu0Ugicfd4p93n1AEWgW3Ql1tA/8XUyenYeLQBHIq6ZBUXEg0iuKEAyQXJxCQ4/OSZBxAKPTfOOHzEWSkyespx/n3jTy0gqgOY5BSEYJv50Td/UgdBy3Vue2vFbH5er3vrl13r+vPFBqNqbMwy8w3L4pFiMYCapBFiMeyxEMiIvmAcMzDOOZRd8x7jNoUfpsNIgIZ4TvNOmpDdIj1T6I0zHN/fa58kwgkAj0RmGKCqBvxXy+wvb399f0o32xsbIzyckXWM/EcZYcapn9WQ0pyofniRC0FhEES8W5rtzjky32+O0RrcQyBkFicchw6C8iEGgLF9DQERXMJ3/HJa3FovPf6/P9VhzDK570P11JXIkGQIzCBYZ6BRPC+NN2UjqwipellGu2IOg7NOBIPSYoEZQVCsjzr30yxJCHhe49RM9PgwrZ7kJARAZLzUs5LI+pKcZlh5qW6+//o/pkaj7rWyN8SgT4RqIiApEEtxiFEQ8JxxOsxtgbJxQFOoZ/wxdjHOePAzx4DCVHTIcG4vq6//qnPajyIw+BcEK9vzOtMHK89eYVd+apGQzIRGhDYyTLmlmU8V5ea08UaJGQRErKAaSY0Ixzn+1naR82IfyXRuXaD/JAIJAI3QCCJxw3Ay1MTARFQBlr01TiEXHw5bhYfjprFJ153Ts6CZJwiHCPiBK2HTqFGmGgq8dXTvzNFxBXzn1EgIL6hMcK0dXoxDSk8K7bOdEbVvKK/SBlNswQBWeVvYw5vk6XjYnNurliZbYQmxDbm8CyJQCIwAgSSeIwAxLzEw0EgzBw8bmgoIA0KNP0yStJxXuxiPvl0dFK8Pz4J8rFHmKtaD8NgK4LycNAajycV94rclWYsG/Bb3aamzsORVSfU1dmpYu8M48zOUbG3cFaszc8WS+GkWvqDVJE34Q/CJUZpjvlWo3yXCEw2Akk8Jrt98+lGiEDlu2FYqyYSo012mqfF9jF/OI1uo93YQ+Oh/4amlPDduNJsJOkYYUOM+FK2jcnTjtCInF1O026XaET2ijX8P9ZmZ4sNyMfGAn9+5v3qXCOcUiUh9okkHyNukLzcxCOQxGPimzgfcBgEKs2GJhIjSIwqaYaqvgx3NcJkD+3G9knzinScFntNzSoeVzqFusrOcj8QqLQi0c7YvfYgjluYYFbIk7KK6WXzZK4kIGiwJB6L+IoYrtvQN4RXo2ZMfmYektInJO0y96Pls5Z3gUASj7tAPe851ghUmg3NKGowdtFqfDnGdwOtxh5/EZECCVFIqfn4FuJqhtDSd2OsHzAr1xMBSaPtugvp1FRmZti56RP8QXA+xSF1SVKCBmQFErKJFuTx4myxjnbEXCKSkNSE9IQ4D3jACCTxeMCNn49eIlBqN0h8hbo90o5LKBA4hrtenh9COM6KzziLak6RhOyHT4d5OFTQZ5k0BNR+WIJ88KFJnhVNZxb1GLMQC8nFMiQjtCFzs5jc1IichnlmBQLi7/5FiC6akCQiAV/+kwgEAkk8siM8aAQUCHCMIB3a+A113eLPiBRXuSescvchIGo3ztBu6N+hVoO3SToeYM+RjEQkEmHTmuAkJJ/x8fnj4BgignMqGpDH83PF86W54hGva5plICj2MXOEpD/IA+w0+cjfIZDE4ztI8otJR8AVretXVelf05MjSA5wKjQqRcLxSYdRNBsm+JJsWDwvSyJgGLR/hkUfA0cVZquPxzLhtztoPvYx0W0TFbMx34iQ3FOI7GL4grj/jAnPygRoiWYi8BARSOLxEFv9gT+zpMOIk23+Ph7hu4FT6A5/hxGtcrVnCoTDfVOq/BpJOh54p6l5fPuG5MM9aQ4grhLVXcjrH/tH4YCqSWaRTWY20X48W2gQHYMWBDOMRCVLIvAQEUji8RBb/YE9s4IhVqi80WSienxHkwrC4T2ajS8IC00skW+DY+6zYqNS5eNVgGr/Kq24q2va3JTi/l7JO7/1fZWTwm7hZ/djC/UOb0rR6JlSMF7RDFXni2tBWvLqt6BppHy3+JMeMHHM1efYPI7jK4T9LUxdV7+Hrw3fxXlXd/a7+1DiWXiySBIHVJrnRKIRadrdQ8ZImdJ36GDuvFhnTxnTtZstVQISG+KV0N2Hx806JgI3QiCJx43gy5PvAwKSDgWCZhSJxkf+PptzAxJyyDK1GeaUMm35fXieujoquyQG7lOi0FOlHxk64QfltvHQh6vvFXblMeV29O5pIgmRsJw1TyI01HtJVjzWUm1r7/sgDVffi3FJEthPFnICPSmTrPH9BcdIOtx7Zoqt7D02on/AnSbgvQnWyuyifq8Pha/8HwTGe93X4rMcXqoFmYLwQnLZDXCNPWIeY4J5Sm6Q57yuowGZ5UnFPksi8BAQSOLxEFr5gT6jgkshd8TkrynlA2TjL6JTPvJ+i11Nj1iB+vt9KRIAyYHajAZ+AvCH0GJICuZwbPQ7XmIFbTSFn11NG4VR7sJa7sQqEfEcN1ervi/JSUlS/O3okGtfyUFf/M4/qYBb01vItUWxNlckhHdAHYSBryEQZYZXvwuiAdaN+YXI4vqVfPCb72PHXV9hIJoq4o/PXkPC4qvHBYHhnCoTrGazcdWKUM0oQaYw2x1RWSOi9s6n2afHBHPme8HXiOfaCHMMBBCMr2C/OjtfEoHJQyCJx+S1aT7RFQIh0JjYt3D0+397x8U7s4tiXtGJ1Mne3+9LCa0D9a1CORcQ+tXW7+66ur60SH4JNj5DgC2hxo/dVsk5oUZjFu2HwkzeUJGXeG6+qFbZ8RtHSSM8Zrc4/SoA/axw99XijrCWy6vP8cHPfN+KaPnZK5baC49bXl29Yialg28cw0med4rmQyFtCnpNYseYxMwOe8zn4+ozJMTvjjCNRR4V3qtR8Tr3odjnfJYvaEBOLsx0e168JAfIv68shGZKZikJzJIITDICSTwmuXUf2LNVssdVsCtnJ3gn9ndoOt4encarCb8UbuNQKhKgmNH8AU9A7pTCfxpthNqN2NYd4uCrg1WfAPcUiR1VIRpmz5R4PFpb5j3bvrty5q/UeJRaDcnHwKIM/4PbKBtL8x0va4uo2VAD4KsRRzoA+3fC5xPI4gEb7ElCDnk9RGulT84+mWPPOPcC35JziIueLZpuSs1LGfZsf7jgC+9hrpa7bv5z6nJEPSS/R7SNdZJEntPGq7SnbWvki/3BMnDblaflv4nA2CKQxGNsmyYrNgwCrij12dhGMH2CcHwg4+hHXj+h6ZB0qKofhyLp0F9CDcYcwmceOT/Pd/OSBkSNGTL9XpLBDu74AJg506RUfu93HMexHBImkE1XzHyoTCK+3ifBpXANMwNvZiBaCt4y/8UVeQArzSsK7ROIR5M/CcmX3f3YoO8UmnYK+ZBs+r1C3Y371J4YEt1Ew2C/kJGEeWYMOoFkyHBc/T7+X3ESJPkZfh9PyYS6NleSTNs0SyIwaQgk8Zi0Fn2AzyOXCIGEoDlE0Oyg5ZBs6EDqqxEsro5/lKajEqKxbwcfVJ1/9cmgjuVqFtJBW1WmEwlFkIwgIhAMBI6EIzJgctwMDooSEQXRHKvi0IggnC2SmHWE1X0vQZrKB+r4KJU55fwCGoaPhHvnLJ+eBKE4n5qBcBTFCX3hhEyjp77S5vqKSDjVlPhZ8tHUmVXNCL+V2hKdYfnM71witCUSVC5xq8Xr228PeXNOPw3NDp/1/Xh0PhNht6tonuZoX7Hh/yyJwEQgkMRjIprxYT9EaDkQFPpv/H54UrwjN8cOfh17VxErChsFyo8okgAdOvWxmG9g+uDVvT0kFeZzmMWuvwh5WECIENwQv3lsSUxKnwt+RgwibHhj8GlpfmmEdkPZoxCqpJD3eyjFZ5V8SLpCowMBWyY76CKC28BfyYLRNBeXZAoFlBDsCnUJBn9Vwjjzs5xwnBv9HfoHUdGUc4zTZyX8jUI5lXzwd9vFeqP0KLYgRIfnZcTV+vFM8QLfj79FBtTZjHq57UbI6/9QBJJ4/FC482ajRKAULNj+IRmfMK28w4/jj0PCZVk9mjPBSInbKIp6haDaB7UZRob4J3mYh0yomVjEwXOR1aq2e/0wNBsswzQuj0gqxe9BPNRycFwQDM59OBRi+FYR98CJV/U9s2D7fSk1QdX39oILiIemjZNzNAsSD7485s+IJzUMasTi+3iFqNAe4bwKg5G0RNQNx0aECq8SklH1Lq8T16Ve1uOA/mH/1VSk+emcB96gLy1igsqol6pV8/U+IzC1tbXV1/jZ2NgY+XNub2+P/JpZz9FCOs54OlkfM1l/IS/Hm7OpyBT5yd1jMbWYP+G2olZcbUs0FiEO7s+xArlQJb7K6zxr7SW+CwdPNRkIRsmJwlKfi82N9YgyCU0G13D1/lWYDtl0OY56A+ckJ1mQgNBlrrQjkgpDdq++470Oqp+3d9ggEAdWhP8J9MYQ2F2cXP1s7hc1JRKR2+xfktpVyOojtB4/rywW/3tzuXi+uBCRS1XUS7Z773Yf5IjEcxC0eh9bh+edajwUanWV6/1oP+aIrOdocb4pntVqUwFguvO3OJD+xt/bgxMcCUsHxJvUGJ4QRRMH83+QjHkIwoyRJXwxy/f6XyxBKlbmIBySDsjGMr/Nsw42umTepFAVqaguyFXX2Ml01OWmeI66Pt2ud5f1tEkleNMSwS4VrMwqzxbnivcfPwWp1SRzAMnYw0/IjLe79LdDyAdpYAg4lrRIVgyNLbUifAxS4y36WtF1qEuYDunbO1xMZ1k/Gyat/egpUUEr9Def5y7x7FDtrl9lPbtCM9QPk4BntzE4FCB5UiLwIxBwQnfFqRAwP8dfmFi2EQySDtXpoyhO7PpeLDHfrzPpr7PPhpoNJ30jTvTTiHTXvFY+GjOIGhX/ajZCk8F7hV2W+4GAbSX50HyzBEGcl0RQ9Q3EvI6nmj7sdycSAo4rQ3zRgkBITFC3w6s5YiQIo4ieKn0/0MBAqv/v1j65S86D+M7NLIQ5L3vW/ehXWcvvEUji8T0m+c2YI6CzqJEr5ud4D+n4iGfeMJqOauKWG5S+GoSpQi7804yyBMlYQPUu6dhEg7Hid5CQCHW9OqeMXKmuNObAZfV6IlCZvcJE1no0Gi1JiVEomvhMr6azqpvC7Z83ii00X6bk38PBWT+NoyApJUH2+CqXiJfslxp7nOfuYfYxL42eKxtEL+lLtMmr/TNLInDfEHAcJfG4b632wOtrp1Xl/SeEwwiWL7y/iaZDZz2dQZ3ENZmsz80Vm+RSeLwwV6yxj4a5ww11dZ8To1DMMRFkg3pwWpYHhkDZ9qVT8RztL0FdR8PxfIFwXswjOqu6M63EeJu/neYpppnSiTXCeOk3g5Yy3wc5S/Bf+u+dfYjLJX1yGT+i6060g143j08E7gqBJB53hXzedyAEtHO7anTlp8e/mg7/dPhzFTpICVs/QsOIk1U0GeusVtdmZyMXhivKTbcuR9W+iqbj4LJZOoe2m0zaPw9SgTz2XiJQmc3gGlEa9J+qXLJxjdoJumNEoBjOvd6cKXYgB5pijtBXhEaE70u/jdLZtTq/7tXebR+PLLxHJxEl9RQ/FB2YDflV7xEh1nUXyd8SgTFBwOk6iceYNEZWozMCTrouEiUdJoHaw5auzfszr2XIbOfz6r5VU6Hj5yYajX+sLBUvyfr5iPfLkBCTcxmxUvpt4DSog2jdxfK3RAAEJCURvYQD8gpasYUZCOyc0S+zpTNqY754d3Bc/GvvsPhE/zWxGQqSgYr+JduYFT/NNov3h018jOibEHEJtPYbuXD21YEgzYPvAAHJchKPOwA+b/k9AqqTJRc61Pmnj14Z5ohjn/ZyZtYIZ8SJ9AOaDrORqtoepKgmd5I23FVNx0siBH5Zh3gszhdrmFdiAm+7YE7kbYDkx64I2FckHw1UIu5Is3x1pM6oU+zKaxZa+/b8zEk4Rh/YhyUgLgH7KGr97PNfIC5v9o8i2mX2vBn92UgrzYaRW4Z+Tu66+Ox3oRGRbWdJBMYAAX30kniMQUM89CpIOkx/7YrugIn1kMnY6ACJhtuHR7prfjth4nXfjUMmbP08BimuSCUWjzGjvCAfwk9oOZ5BOB5BONR0qOXIkgjcBgKzdK1lfIY0zZj35fnRfPEnxOEdZpMvx0TCkA5f36V+i7vz/ovz3x832dcHIkPfjs0DMb0sQXqW8VVa5nUJjYivocGDfpioLksicJcISJ41NTZUe5jiOUsicFsIVJNqePdDHFz1ae+OCAFu2tRBlIySzMFBPMzPcUDnNBHYocRD0sF3EpNTjneOtgP3U7R9Szic8CUZL5YWihfL88UrtB2bCIPIz5ETcj9Q5jFDImAfVNvRmGpEX6ySy/m6NNPEaRSzIaZDtR/99OvYg4a0qzvThNc6f9N/y71+DPMuQ76XuZ+aPYkHfq84wUKuuV+lCale7fpqaSyVD8uQj5mnJQK1CKjFNuGjYecNQ8LskFkSgdtEwP0y3ClUTYXhgR+wUR/w2dWbCZkMSzQMsUkyJrc1NylTZQeXsDghuw+HdKMiMr3q64TP3IvTaKP4J9kfX68ukoBpDmfSWSZid3hlz48kHb1gzN9HhIC5XTTBPILwSjoe4yD6/KBZ/KXvx+4Rvh/Nq03repNqxwPDxJQhkWPkhL1lDunvM1OkWSeqRmKhH9McPif2dcPA1YRIRipCsoI/k/lopiAnMxybJRG4TQTkGmaZ/sheWg0ZyMK0Gy9d7YFwm3fOa088ApICp03JghEosSOoGg3+JBqSDhN/fSbLqBkhD5kkNa0cQoe1/akN6T7tdv+lHVhJh5PtBvvNv0bL8cv6IlqOhWJdLQcTcer42hHLz7eNgH1OAb+IjHfjwNB4TJsXpoyI4SUmZgl4P5qPaqxJPlQDNttGDru8hJ/H3LRp/M+LpRNT+aMRkYRANgwfD5MMN3ZMuFPyLOOz2oPIMZRakNvuFZN/fWdtzen26w/M9+8IC28Yb24s+jzhXjrfZUkEhkWg0kSoqVCDsU0Ogy0cQT+zkttyD5Wzs9iQSxLiDqFheqFXejz9MkjHsPduPa/UdEwRtTJT/H/ry8XPajpYXarpMGdH9vJWtPL9XSBgH1TQr2P+c9qFA0RW3P/Y3g/nadyY+iIfveoukTe9+9kpJB/txwzjchYTjXsFxc7JzP1L1oOQ8nUqcbF4wisRXpATNYKWJB+9UM7f6xAIHz76ofsd/XVERBY29cZHVB/ulrk5jy2QKTkn5ToI87dWBFyV6Xehr4bppOMPrcYRfhnarE14pGrN123+JCMeL+G4zaLN24n0Oc6jP0E6Xi0vsKcKobKpTr5N2PPaAyJQRcDMkDvGRR+xL8UO40RNYWwBwER9k1KNshhvfPimEQkdCeYYnPyY8DW9bHMviUdz+zCyoq4xfpbwC5njN8eNWhl9Aa2nxD5LItAPAvZB5cIWc7/RiKZB2Far9obVqGaWcE6ic3lgdqt+IH3Yx1Qd6pAOtR+dCQ0Hk6YTp3+aVDStBBlBu+FrFTJ728i5ktOs8vPqUvEE04qko3Kgu+175/UTgUERUJgb3v10/qL4eW0pwspP8PlQM3ibJa7OQDYfjg7c26hGPpzulTsuo/FQQ7geCfV4pX5rpmmXiOAbkjLiNltmMq6tjLBoYnE/rTcsQvdR5blgbXwgJnweO+NjttuMfSiuWG15Sv6bCJQIqKTQ+0KNhX4bR0yKmk52g2jAYnndwrTiZln7TGA6kWpCuYtSEmn7M1o8JtBZEjrlIu0uWiLv2Q8C4UsB+VCga+KQOGMBufWiafTMuzC2HdcWTe86pUowVkhUtjE/V2wck8k3CAjbCKAJWaaejqvwC1EDwvE/oLpRv/zn/iBg/iXlhFsHyDM+IiMkIcqSxi4MRG/qT3j+L0yfRQbH5LP3p3F/RE3tKBYJxx6d5/NJmTnxI/a6LTUbkI1Ks1EmRCqTf5Vn/fh/Nf0YhqvGpUrO5DMk+fjxbZF37I1ANb70x5Cw23dREt5ZUWAcwkgcy65Q30uKICKSok20IE+uwtIf87qGNtE8Ig6uJB931mRjeWPJ7DbOpJ/Mtou2Y4cFqSG1loaRBHv0cn09YkdOOlinDI7l4cP9W3lfe3Y4KqUQGA7IH3xWtBuT4Rl9ZB+CoTZDsvGezdnek/zoE+/NxyEhGadS1vc8omdMVqON2xVkTo3j1EpZl68I0Dfts/ZVfaN2yOshkb+romxQW6mD63EE7JY1UcOxPXvKuCINPKR+/2y+eLJoanh3ytWHqqQe6Yx6Vy032H1tZ8muxbl+1O12Aon+jHz4SH/eDXN7eS/vF5lLTc70npWsoVbPYLH+PEr26vWM4ZUVKwC0t/u8EuUs442AbWcirz8Jf/1r/5jXo0h4ZP4NO1bFYMfpKSTTOrWuoSo+gHGfYjufom9npoJxaqWsS4WAvk8SjwNMlx/RPptQLObL6oAxeXUF60IjxhfywsyrbjugL9XPy2RIRWueU/qYNFYf1ZB0VJo1/X1GmcZcIqNZxX21PtBX2ol03Et2u0NKyC1UIvsIk9Uz4rqx240qvNYVp4JKtbfXnNdGGHbM7KZ99I8feoiOP3ZG28yQ12MSfWmK+3X3sHhDoqP3aDnUflg4ZKTF3uDeEi6cJKeS1Dn+8Xv/TCpm/zTbbt29VRUfED6og+ueIbyoru137qGRJREYNwRImM78aPZStHRM0jpr93IrdXVqNGLpD1LmvnE4qqVw/DqnuyjoJx9Iv3h4LRepIUSQF4e8l4x4Pwfk0VmZGG0ekp8RMP2i+uOPs82atJdk1z+nxegnI9IElLLjAs2YZnmDDb7XigfxsJOrLt9lgnbnRHP8b8yZfnc0E3WEh1EJN0WadvfGRgMV3VyxPD1KjvXjG3DS7liRDpmqW3C7EdvB8W6swj5gXtlmQqzMKnWCf1hcJB2zqCWcTE35vIwj2xqvklS74h71+R3v6C/UAxelWvIhm4/n4Fgncq+hqjhLIjBuCIS2A5JsPz3Rv4MKumLsViQdEnMjTl6Tq2YFQR+kACGyF6Rb/6Zy+wG4zEjJh3WyasooMxG/Y15wUSlheob24ymml8c4pBoBo0+IasYMv+3WknfzvcRgh46xT/tdkP5Wef+E93MEmIyiKO+3WKB+PiS6kb7hPNxuOAzJb0dyDSsx+ISar5qkqwx2drKbFBmW1/7CylkvVzflkuU/4vtyi1xWtTe8x03q95DPdXqLBC+0xTGTlrZbPdv1RLZz7tBjDI8dlS+Hk6YJ+iUSVf+SbMi6F/jNvSaWzKjIZLpCP1khMsUNsNRYbLkiZII+PpuiM9tnO0/O1bcOAPvcJpNgTIQPuaHz2ccWAc0qW8y7RoapZawjHT6EY2eB8eHeQy/ZiOUR5ENtsrvgKkwOZhEqjF+dq5303VxRrQRTcGgyJTqSG1563qsbaMqMU4SW13Sc+RdRbs25YmfxvHjE/ddnZwllJ1sqGm7rl9mxu6F5u987H9qn1IDZR4w+fE/acvuGc/AluxiG1uqG1QgewT8S6Hdoyt9KSulo9rX2ck3lYKXe43kKYS2ezS4Uj9hMS9Zqhr3t7e32c/v+rCDboSLuz/GBASav+rzHPgWLZJZ89iQETAOBMwrycZN61j3QxsZG3c8D/zYO9aw6pLk4DhDQOou+OT4OD2TNKe4KK1GUOMqSb1okHaZJMiGR5GKFvzUmp1U84zeZRFfRcKzQ1yJUj2PcQyi2+vY8JtuP2JR3L2eKk6nD4gIfjjPqXVes+/u9w2KR3T9XL5pFMYQNehLbvQ6z6rdx6J9VXepe73s9HVUmVXqze1y83T+JMVf3vP42x2BYhZCvoj3+2+P1SJRXTfpq+k7p90ak2P/dbFETzhbjRcfV3dMykZ/7I6mxOOdavYhOr/rEChrS5P2cQ5YwyxqOu874fYUG5Cnj7m9PHsWYL+eAXlfs/ft9b/feT1h/xCDzktow28j238JX7439DfOHfcWdumf529rZLi6Zh29SJDb2AX06/nP3pPhT4tGu6ri6wbU7STxUYzeY4Ff3D5nsL2Pr8NUpHE65qJP/MCXYFte2s5shL9JlI4BOL+eKJRwWX2B2cUWqwLEMeZthqvYgz7Et7YhuRb8PEdyizY1UeXd4XPzFq3Y5V2E02dDFviLNkGTq7W7mw3n6k+9V7a2T4EvCsVIlKWJykuQuoPrQB6hTbgCJkBtrhQaGybQzl/5WZQmTaXrV3rgfzDrPY4q8VP1+wyjf3R0CDi8nfwlAaBnpqxKGXoUFarEBad/UFIlWUA1ya/G6F1xHs417cRmiu7VgtIykQ18Sty9gTDAuyp2fSfTHeNdpVG1I/DfA2HeesNanPIdll4yoZg/ea5SaEKN1ppEnm6xores841xT0bDyJG6S//REoGpCzeM7ajlY+P+2dxS+eh8giPrPmbgu2vwGQlf57mysli1INCaWDxBdTfXNqhJttb3WYz2mUvv9x/ZBdMziUenw54WvHdx2obqPdkxNKqd06dillMHw8cRUqifF2Ze94oC01v/GnhpqVlzhZrldBCQdh0xA5uP4nQyJ2ml1IHVlpL1W57Eu/aWvilVNqPlEf411Vj+PIRamZF7lS7UaTx+tQzLQaKjZ4LOEREJgCudOpMMbe9xjyMoO2pG3DJxeJVg+g25XB1PouFE4mhGT2fZCLn//EQho4nRelBTvMB41k9Tr8MpamWX6EWPpEcRDQt9enEGrnXD92c3o1iD4p/hglPMvJtUr8qE51S0NPh7rw1VudeDK1TFM1YYqnibpl0xJpMz185ndcyOb8MpC+PcZfqsDapbbRUBS4aac7n78G5oo0yBso+0Ih/upRsz1OiJfzgzZ2FTfPqvZRqXFf6PpeAvpMEW6pKPbVa9xCZmLB7qnhgTELr3ORC87XYQ9N640Enw9cAl1PT3ayAQFwhmDrLQ1HsW1VM1ZdJjSpm9RLZfl5gg4gVQaDlcfrnR0FP1AJ/xt5xB2CulwkuC3YUtlRjEaShKB2Tk2n3LrbQnHI4jHJs4csRsm/egZ29QPuhW3k+wGKdA3qfvizGH0S1eM3Tp3EF4e6QiiWzo5TYdNMxPkDdvKed4oEXDCLvNh6IshCakX9s6GLswW1BgiuN1dttv+Q3Esx5U6ZMhHS8XDEfVsNhL/6bC9AfEwEZgbOX5G63nAXO9cgNU9fDj0x3MO6bdUcuSYk465xoE+WZdHoYZXyKmB2eB+y/xJiiQgozK191vHST5O/C22oeYVF5aSjje8bqPhrlLxO3e6yDQK8NJV4pBFC4ak4y2BKe8gHbpTKG+cf7uVa8SjOsiOqdOQlfwfVDMKldcNdzNEBT5E/bx/2JnaRISVk3FPY3dyQGnq+cdUub/GELepqp+vbQiIsxqOL80rPxvNKXQQyYfqMe1yEsNhi/3DCc6okXXIxSaT4pMF0iyr4ZBstGg1dGby2GHMHZ6ranBDswzXNmxPNbXP163EJMsAtC9vUBdz1cx3Ozi/TwR+IAKaNnbQxulYqpCo6cZRK+dITRiG0a7htGnk1zApDxx780QWTrOVwOLsJWSe6Bj8+TS/vNvBn495wSADhYnERDu9OtBe9esGnQRrl3n+FA23gvBPwvKNfHmyNFe85L4mIFtGEqnRzDIaBJwRnduV36ZC0ITuHCjxq4pzo06/at2GVQN7Df2I3pLq1lxPu1fzcS9x0pF4WDEvqE+GDqF6UC/jPa3a3IlbDcggRQamdiNsSS0nWjkHnNunTx2U6j33i3GAGdGgSjHLcAjYlcRbPw5VbfptfKLz2QF10nSy02eiTmPQ7c5OXE4RajbKCCjfE4VC/3Avh0esZB5DDNb4s794nEWCUpXW99V3vV4lLNEXmTQ35tj8bZZ8B5ewaybMusKcRx9TpXwOKSr3w6g7Pn9LBH4EAmHWRq2gD5LahWql2u3eDqNlbJGOMediNcODzsXVtUvyAXnniyUFD5rmDebi2eYx45b5nnlYjYqEQcGir4hESZW6wouUfCEjquvVvSpLzBtxykOqTTcz6848kXJnpUPqc0xAj7i/2nX3q3GB8W2mqLty/tYJAdvJyBKjSn7Duf4PiN42C0213dcKzR7Eg+/PLwcnfZrk7BdGG77D9P2Z9lWDp1zvVqp27Uo8PFHBpYr6C7kT3sN4dUZ5WswWDTrkIMXHpX780Vk71EpVjWo+Hf8cSJKRf7BL4+z07FAr40HqNonH2u5OYsdoOXQi+gv16e/7R6HlMJOnk4eTnqRjmGIXDd8NJqinTBibmlFik0EdSM27wcqMdtQ0UnHHYYhGp7rZcXVOM0RW840+KcedDmz5znBCbY5rMcGXpplqALQclm8TgR+GgONTNbcLAJ27+9E4SjTUJm4ioDVpDqM17PSAjk3r43h14ecmcau8vkRr6dhx3xZDME0w+YHXbdyrnKPbxFinS3/3nXOO888ZgtCFrZrXt8xPf1teLF6h/Xi+SCQlz6eTSY7R7+Dr+YUzug7Ev+LM+9ve8VfSoTWhvfhNkEh+o1kGLjovqxn7CD+QPGuur18ClqZCb9Rwpaqq2vu2M+5gqpCC2KMDruHq1Q65CDuys/bbMbyOzOqMuO9OndXfj6FPW1R7ZvqIAVX6lkSG0yE0LAMjOGEnSBiPUOGq2fjdNOd0wDcMbtuxXes0yKNH9k/aXc2G/hpPEP7PTBikdz2ThSpgicaoJsT2ulXkRQ2Ku2VuoKJ175i99gPbPju4dsm0KIk2V4n9fVhzT9ul82MiMDACzrXmTVKoO1nv49zRD/HQzKIW0TB0nbBjDmY8jqJU87n38G8ploGlb9gRq9g1brjSOA8t9OJMSZY0w7jqdf7up1RHOf7OkCuuwHcRXGpBLvisjND/ivUpsgbnU+qRpX8ExE9MP+Oz94Z5/w/Ih5oOiV6norz3HKAP+d/pmE7fVe1oFls3gHsPGdXEUppsOp1RWjMktJWGrhEpqamXHb+6YPuphlwZHmNyp5fYA1WzTVPpShC0H9/62WvaLx1o3a5fHa8H9CcSm8xOn0TolcTjCc6Eg2pYqus91Fe1GZrI/qDz/ffOQSRzcfKQdNyk2GnMH/B8sVH8A/XoM4S/GwtqbtE++6NCVWMCxntVB7VuznWtz2n/CzUxGDgIZf866A2uXGy9ar5PBIZDIJz66IeOSdOOS4Y7i4br15fUm6XUbL7VBH79iNF+Uux7n9CC+Mp9XWR8ZAHz694JUsDEgt1DJvupjVjoi/Abc1VlCnDV/GIJAqTmI0vfCKhBM2Giybv+wt/iM5qITpqO6oL2OUmHCzMpn9KhX6pnu9lebi77EfJRtV117dZXF6ISZReMKi8uiHBq6EthhW18TR6dioJsn1rqdGRehFX+VLX3S0i9qqz4Airb+Q7lXWVfhxdEXOAd+xbgIpEUo22WPwdAP0SnU/0fwncKVwesib8+owX4E9OKMdvvialW0zFsqTqN5MKwWEP4XqIONTGQTmEz5Ob4puHot9sOW5vyPD3gV1kRrUJ8VA97/7pVl33OVVaojQHJCX+WZAg/YvK+2ZPm2ZOIgNPsEfOpfy62+tF22MclyytonHWsbtDvf0QpyQcEhLGvz90KCfxcrGoyV5h8nsZnA9lxxGefq24cttfXcWlRvvhncTwz0Rcz3MP53s/l3B8/5z8dEBBz5zd9+fTrcDNPTVj6W9SV8jzbrGy3fmfv6L9cewce4J/ZpL1/t2I/WUZDvsCcrf9mE0nV0BHQCVnSUTV++wW8pDG5BxzzGXazPE2SMex/s9P1vh6tVZEhnZFBst2c034vP+tdrUMM46x0pKLCMqWM++6EVqlR8hdZ5zaETdLxL5yK3h+wOysml2GLkx3jP8xrajme0leem6IZwqG69zrpGPYug58XqzDu70rMSBo/+5S9Jj3TOqvWNbXzEqx5vkf/HbxmeUYi0BsBwxddIBjhYQhtr+I4/LZiVMNYjste5436d+uh3lpz+9+WmAOYk9+zSFQD8h5B57YKrpl7jcNu9dJf6w27XysrvNM58sb9X4xkU67F7bud/IC/V+i7mNJf6HcWm39iVu9mXrkOU9lWhktblM39LO7lCZGbBS5gaHSdtcTrqg1/hOXCudqAhuY5c7aZID0xvJcZDJ3GgRXyex9G1YpOTrLuOZKOyGDsJJ2K31dsKl47HdThO4FUuzIHe9OOb4c3/GoFwaeavRwAHU58YF9V7VJ5m+ukto0fjcTjLaTDbHWd2rMbTA5s20xbnMm9yGgfXu86jz5Hw/EEbYdE1Vwc+nv000m73esm31tPO3OZdr0MrTUbYz2/19zCvjM415pXZJMwwiyJwF0g4ELU+VZBrZq7V3F5FxGFjLuIEqPvO+/eRXHunWdBqPk7cvZQJ7WhpnHfwgcknL3hH7H7KfO4JIT/+yrO+5FegTWxz+dnjQCnzP0mHFPj4lPf1bzT10P8wIPE5+xqMWUyyD/w5TP7tH4d/ZjVlR9qrs65RiVLbKxu+NqMHi8P+BCEk0y4EA9le7diNzVH19OF+ZDd70waioxqPENtLk+NCiNwIplIl6t4Q5OE2PmMKJDBsACOFWenU6KidJxzbh4gaWqx5/BwdcUHcUBqcvnP7f3ozEa5vLi4nlq97hoP4TdRdMXkBPYOrAxp+nRWqtlsq3qUv0fIplG16f4p7jL5FJa6Qu/YgHC4ytF51N8Z/3daHBhaf53w3Chrq4nWDg9rk9LVFZ2fvkBQdNB73ZpRqe6k/C0RGDECkc2TRYIr1G7m7dZbhk8TKg99mtxIMUwPrQfcwXuT/y1CQJ4xJ2j2fILPlSmyv0CoPvNcnxln7pBrfmE1GP0Wj1R1f75vcjW0k1znNckGfyLjqQ7lypw7nn76fZRbP04NrlvPmwr9XySCfIOVQOxVJCjTexUlRMhlDlRj7DmS3G74Sjrsu7pb/IX/yDv+3KyzW5F02E8MzX6xvBDX/ogPivVrGLoku1QVop/HLjYVV9CdikJOfwHJxvtjzB9IIMRQ14ymwaI4JzxneUgr7ne9isdoRzoAirMjwSnBsF7P+TOU0pDKh+r1LClTxhqOZqTGZwb7Wzqfm/Ns00gO2H6LnaNcxbgbLH4cYKt26RmasMeQj4VTNn2CsbqiGSZZUb/1GOQ4B4bkoyIe28ezxRee/7DHRezwe3QmiZq+RKfYq8dhEu9R7fx5QhBw6nNk6qxvH9xjkrNP9irOc+a4UFM3DoK3WhFL/s1mvYDm292k1+cu0ISfhQnGucSEVfoAHDDm1IAoB+pKJRpcIJjbqRljFNU8851znotkcVDTKW4Pdf5XHpqnw92M3WNLwvEbESyfIALiIpnor7ArLQdKDF2yxWkKhA7FKyp/zYf0kUWupHkbollnVnNuNRfMJtxCme19lO3WMdyGF2DTL2hUY7P9sslDdSqedMHF9MH4C+Ziwzv5L/J91Rnbz4uHotZculS7tR9Q89mHkmG5l0AZunNa/EP2u7pQPGeTsQadsDNMNRe95z/ZAWyjiKmn8f9CraYj0T6TmPn36Qt9l6qP2YaP8dlxL4W/ge0T+sIyqxiTdR3v4c/DgeNo3jLq6TEaj23+UMoATP2j2xcla/ZftwzXJ0YVts+XJRG4bQSCdNDnYiWP9Oh3bxZS5LA3C0n5mO+qZHy3XddBru/osV7TU+Vi0Lq+vGAxgIB6gxZWQfWFiekAIjFIMSLjs9u3c64mfjWwf1tdKl6S8bTBWHb2f2gj1/nfeWsLk8qfOJH+ik+H2EhElAvOcf0Wj/R4/1zI+kozoky4jmp1Rfut8uZPUxggb3qZ0dSQvzA7LfJEE6GKDRUKksiG7Ehb3VOceCQeCnkd8KxEdcPWB5F8HGM7+URnWiBZ1BNMLpUKvn0C59Cw/3gttR0DyMS4ped7rh3WOlk/i/XSD0GQjHxpv28cNGH/iLt0UAKmHfRNqLoIm8LBR3+Ybu3VDYZSy0GInH4bsNFXtP8r1Jk/kcjHLeorsnGJYB7XYobDdXyAZNQlgSgT2NhvOhW6YHATQxh3cfjYnz0v94m4a9tRp8rmdxOHQOlUqm+HacjLvAeO627FxZxpC0xjYLZSnTnHca6znoqqOf6Zw2H7Ag3IGppwd6FWS6p8WWDMuUI/4NmPWSA5FnuVKsrRBZUJqnTIPcU/oHnOHEU0zeWV34er524L3173uE+/i4dkTMfOD2yCY1bSN/snYYUY9jnsfsqOc3CVFMy2kQ6vW5lYTO+vE7GpNcKU36UNXcfZHxZRaJgQTm4hMZWoeB/v2TilUQlYJV8GqhAeSrXN9jRLR2R8N5WNqh4Hz2eOe38EC+dOj+axPbZN4Jd8r8dsZCylItbTmw5b7IDGJ/sAmoe0UT1fRPOBOmeSSzU56RH8CZLxlhDZ3/XnOC7jp4chHU5gmlV+YWfg19jfnq/Ms5eJasxyU8Bx1HC0t7EaN52cTV62xIQ3P1OS0876uvJssSxVhmdfU0NrOsySCNw2Aq5It0/LPZI0H1Tjutt97ZbuR6QZQ+KhiUGyPe4l5g7GmZFvP1FdU7C/np5DSBrirx+C6nbV9P09iTLDXXV3cRj5lfPd5PIF1zxdviRzciMSGorlpJOPUvuvFgmtAwsnU06Yzn7YEv1PGS2+OF/aHtV3rde0r5YmFjKVQjqU/XKAbsUe6txsqo4XZKOVW3htFQdqVpTfDUNjfONB627shTD6goesq2qzy3UqHm94reoW1WjuMKgfgNEuFfv1PB9CMiOBIWfIjUiH17Oz7gC4D2Zq7nBcmSHSBcJTrdA9btKKjabdU7uwTj1/0OHeY2bZsxUHLGKndsCN1l5jWvkFp11Vl6E1oB39/b6U0Npgblnyj/7nq5N7r47mQDL3gH/PHLgTTlzvS3tOej2dv3bxwbLf9eNUqrZAPzrDxhd5Pw7+Hf22UYxNJpM5FgWabC/nF2PV63DjUSJNvCGgypJ+ioc5bpsnCi9W54xZdbE6286y6DXVQtu6t5/L3otjxEipZzqLd2i43yID3vN6k/xM1YMro9VoVFoPE4lVpWoZtSyfrnw79rCWdfMBrc5rIJsNRlhHzug7ugy30Am24hoeh8ajvCntRicvbeY7zXlUKcdfTRvVBdtfVft/5IKLx5hqYOSrdLLWjKZWvASt/czhPtv5rKdmF3c4tHNrFligE0aYmT9OYJF0SARVcbkDoKRDVdegRXRMvqWD1r+vLWMvXQwb3Bpk0wyg9xG9eCY6uNuErzTO8OGYZmDU25LDOQvtmX4evref3sdnH7T98/i7Q8A+pnO+/kU6hHfTJrfW0NwdJgzTxHKfx6ca8UXmGImC84+am/8io/LpRRMSUargW5+72/tq/lfz+9YFBsUFh4TDOe1+LZu6PeX330s69Otw4fmnCcIwWR3WqRy+v0TPb5TTJaLXD5WQmIhMPxK17ZW7w/Wjrn9SAbGBY5J7Cmlus90li0bh2IaWRrDIaERjxElRjk1GJqXD4sGUtrhO1SlPdnVpCJXql89GQHCeoTNz5c/xIIoAK193navD+3qxOtr5dlC5fDxGCENAJB1GYej3MUnFZxU/Y6UjSQ+E4wudb39A0hGrDzqDKyfJ4Qtsbn9fW0TTMV9IOlxJ3efipLzELL3G823RH3sVY9z1tFcI2If9nDti9kItfx8WAWdQ+5iRHS6a7HuhmetxQbW47osk+bjPq3nnH2WLs4wmcl8VYNr91f5IJBSs/ciIcv4v8fsyfUEagdPI6RP7gDAPuF7nFhNTfF6xMQ2Aydo+I2P30PorU0dVpBylxsN3/Hd16UgaSvvoGOxmcG60qdauroSsoRE2ae9NQqyNPrXY3+Ua1ZKwsXt4VGzhqLN41oyOMIfjygqKnQUa1cyUrgW7dQgvotZjD/vQe+j8IuRjDZ+LNcIxrYBOROews7nzQ1LguodonfWdnwcoAuUGQ//5eac4PjkumtiSjMx4srk58tXr9vZ24d8oy8bGRs/L2ViHOlSx/+r7/f3iLc+rus1SdY6eF+EAnb5WSRH+FGeGVxCNpwuEObHauMRH5OBkqjiqGaj91LOfOrQeM2o8nbheba7xHIfFu1MSADA464r91pDGM/xCppeWimU0P1Vq5tbzRl1Pr30f8Mx6jna8q91YWcPdkgiE05kTMkWb7M5BVy885okse7q6XLxCO/kIHyx9mVrLfeufyhHV+isIoH86B03NsXM2vmoiwW9HV3Nb6zPWvXcMv0MTPDdfkNyQBFWYjvVRGzbMdtzwdI5XU3CEP9/nY+b/5gka3XIhX4fLoL+Z/2h+AeyWl4o1TCNGOdpW7hj/5fyIObVZ7MI3NLFUxKHTPZT5LuBWcfh/zXy8ibw/3t8L0rEFadpDW3N2Xs7N014MAkWHkGjgrAdDeQxTcbvzx1yg8tvodCM7i4PK1L9/cdE/De3B/rR35X3ssDKzmg/B/z2LQ1GWr4pRNqzdrpNM9FL+HVFnbU86W8p8DTE9YhUb9+t5t/4PuA1hUXd3cZVZmo3zHRqd33Goesur6eq1DfeDpdfXRryKNkhC9hOarL+jFfqJVMfP6FzGV5chcHU1uZ3fRo1nPCcTjn4rkVuGTkPX6Vpk9eJrX7HvHtCHOvkzjbqeXSt0wx+ynjcEsO30UePJFBtzolEZ9jnnRMd4t6KfnJO4aQ40Iaxixu4kTEddz271uen3VT19Jgm+9v/nmMh/ZqH6dwjVa17NiqwTrfN/v0WfAUN2nRudI98dHcec6YKtBt6ul6/q2fWAH/SDPUMZpqbjM8I/ZCuhs2YfdCsAAEAASURBVO7EXSWG7NR7hO6r7GTuF8t+0FSHwa24Z7mgVTvnrsmfSJmhTHdnc5O6dcPVe/hnKv+ntGtEsjAXv3q8GaY1r19aVuz3ZY0ax5gtVHupQXB3UdnOBh3jF2OlOeHXA36XmfAQ3QaLHcDkJarQVKlxieLV9EJURn5jhfshsxIfNyAyPlvmJABmRtPHoVPxmnr16mcyzULX+6ytsbstgtW99u6rl7Nkzphps7z9360DnEmPwpwlzp2R6IRO6UT6gj1WXshAlxqkCcfmRvvojCvWk1LspwtM0Bto2ux/Tm69sBJHV1iaFDdm8VNi0jOCPUsiMGoEXNwdIkC2FBysLnupyR2ZLvjcDXaDidzoM7cImJQyzbPNM9Y2sMmbBn0NaSnpmDcJIosAnea7yZpWDGL1Dbaa+gsyXEvqikelOSc0H/d0jvPZlW1ueeHu4r8RDWRWan08lIndikYNTc6anYAw5KGiu5c/0SUcwIWYLgzlvHgRLgzubm4UqakzTrxgTVGerCFn/on2+Jf1ZZJPlnOxm7Co5XLB7J5wVV3w8SiZlTeUkdq9DVF8zqsNa+gMIcMxSWuj7FS82BmNvoXa/g2mG30G3NjHHBunMnwequChehX7iavwFTqjrNjrfmCVrxOgg7X97rJC28FIl8vLM+gKYb0IaYtqSUmUz3Rfis8jeTIZzCcii2Txkg5T4vq9v9eV6kllujpdPUXT8RoS9hLy4Rb2Du7WqKO6a92n32J1eBXZYl6P1VmisoBK8tGpVDCe0De/HJ2EE5RZWpevfrivhLXTs+Z3d4+ATnVfCKP9hPBwkVc/istQROfg6MvMg4bUTtJCwXlKLeVChMCz+SeCstLyYLxnzjZdusKwRKobXgpoF7aaWp0jHe0SDofxE+Y9IzVdhNw3GeDzaDUwXLbM1XGMjFPb3Xk+CzyZ85dZgT1l/lM7Fk7M1aK9G4BXQ8OfjT495b5N3CPUtLwDTwM4XJgdQXjqiqRYS4lhsz+T4E0fQrG3HmJvrTWLNfFtqubehj4aZWTLt0sruIzBfkQF3BzMrcY+4A+guqSuyDitsKGuz3Vc5IkMxZFN1Z9ZXtX7LsB83AfmZ863451dHsdrHXMrCdI5D0kyNDQEPtM/YF4NWJer4fvS8exYu6yM3jJB/Y+591FxqUoUh/qm/9YqTlCaUX6CdBgm6/b1qmslYfwUWqhvR0/OuyAfdH7Dwf1zZclYrS2SbgneOun/fz5boJd3Sp9Te4n8MRGoRYAuFhP5JxZQJmfsJjxaL6IgNlrPEHed8yaJdLQ+pwLTSUlt4wv8PSLRGPPUopEbCDwXlL20Q14ihjlAm8b7P7b2Y+H2D4TPyyU04AjiRebD+1Cqhaeajt8wcfy2ewj5KFNbKEO7FfuHQn4Tc9U/V92Mbbr4Azl8Rn+r20ul9XpaFZTVzpsGlyh73tIO/URPqmh4iqxxT52nyFzljXWoimTDfm8ekq8aD1UoTsAynqrIOA2BUoA9YwDIgPZpXdX/NnI3NZgCUpv5p4aJxXCi4kaeo3ro29Wru3z/qmCstCVPEJxTnLd/ViY226aesuCumg8uZ4TNG8DybnY1H1Y1per3in19f9e7/8ZOZTtsIwRVqb1B0/GrufcZfD5DS9N0rawrBvNzLNHezyFuP+Fs+wIMDWkyjj4Gedez7/cP9puq77jSMUOif6borSvibn+NPSVYka6d2ldYgXmxLInADREw4tG503xHOuqpKu+1ePOW2srdL0nfLOfDSe6NPpsLzgYmgqmpcgsMP2Mo5z9Sc4d86i5zxKvSfBgxpAxyXHtd379YvCg2LyVwpWbF48etVITDhfsO/cTF+/9AOvTtMCt1txBWn1GzlSGrGyRUe6l2GwJgUUNif2uwGD/psWy9wO9Cq4Q+SE6kX5BBn/kzeKOO+JVaKs07bALH7rMvSURplKSWjtbibrQm/zzmHhV3aBgyI6uxqQSgVTtgp9fp5+ScpGKMoh1MKUrB0i+19dLf3ksynPB/BTh3DjXUscmN6T89i0BKEBSg8wCwiAD9hTpZj/8hNawgsHD4ypraL+hA30JY67y1D/AfAOKf2JvU2uhpqz1xHIsd6x2dzKyxdrgP+MvYCSQd/RE2VVqleelnHINf0fmegd06bfeQwkTta/a5J8051IRH0ZfrzFP2VcnsFiuM96wsVP2qqZt1c4wsicANEVBt7W6tEYpIHzMsHg5SW5yh5hCS7kH0WI0Hc99DKbFqZ95yziIIL3a//RUh/IVJ3z3CKqHVDQ+hdc6MXX8v9sG+WRwQFfQT41yhiGweyyJBOtC0gpbhXztH4Syrdsy9fHyebiV8ZcDFsFV9Mn9aRtuA0Fdzoa+kCyj9NnsVpYwEeZe++hm/wm1kqKSljnR4TWWOmg0VFC/ZbuMZclbNemvx7nILlRtaIqr+3wiGyK86lpg83Xp6QQskNEwumwDgILAyMjD9OTqV6hElMiYckeFostGxpFKxdDqv+q40tZQZUCsCYnSNzEo7KeORTlU6H0ky2oWKn30476VAcXUh97q4XOLJ+I9OLVBXj1fd9s5eaYuoo2QpdhjcPYoEYa7W+yk+h2o2GaZbvb9Cy/EKofmCDuBnHdQeUjFlv3lKJB+q+2T92ku7qimBx76yx3F/QfpUa6+oIQI7cX1Y6D2knnK7z0qXirlJ37iPrBrfs3o0SqBrP7yqTvg9MHGbDM+Mj/rJPSTtW2g+GMMufmP88aqJfWoKAsGE76Kzk8a7ak2JiTLI1bV/pvSZuYqi0IwzjTnHxYk4j0OxrqXWFfM6BEtnTn06Kp++bjLT+ovVMn3lEXPVS+b710Qruomgi/YLZLn7+0hap3lV9NeVID7IdCRmLHidD4/5bP3qinVwnlXLrI+cPkmtJhblsUyhjGhBE8UFK+YQxEM1iw1qPvzQeHBBi+9x1QlHxdcr2s3LCpmRo67I0rRTndD4+002DQKIOuZWXYs+F3Y+2ZodT9KgmeQp79WAbPCQv02fkDa2tP+prelUgoDwLJoqzi4OQqOjymmaSBvTt9r5xqHYIF9gmKrU/qVqDWciTVP9FjFShahZ6hecen4mNG3lgjwsITj7vcrkHBeDkfbdYAC4hbZYqj1yAupUFBBAGMf9xWpDRzQT0UW+BN57vSyJwKAIOP/oiG8I4nv633vmqyrTpH2uW1E4PmECf04fdK4zw+e4CMludb6N75UDzmGOPuNfjNT4k5QJnxFbyMSei9iv4xqyZ6ZPV9mVj1tEW6DZHIci6Yg5Cjn1n0Tl/EH0inuiSATqtA0K9xUeQVP631lsalpX6+AzOmfJqwzFVsPfz5N6P30JG1NlRmw18GpNehVl8wtIh9qkFXLOWK92Tqf1wWdRu9xKpBruoaLzaPh5cIBqrtYi+fCBnjTQeCyxKx7s3WxzdWoveWc4rXKzknBgQ6obcVc39NZl/g47XCkUdA6NUKsZdkzlADUzUecLBAoSpVM9vJUPeyjh4Tjlhyth0/XO4Pg6qx4vrl++xocf/I91NDnYewSesdIKSDUdvZu7xEbSoef7Eyapn2j4X8hE+gJhe3F0EBj+4McZi9upo7BpIyoLk4nqS9m7m0pZOmFrOzjw1OR9xsdGnw8ngxXwbd/0cCweMisx9gjIc53/9E/Yov+Vm2oxK3bqgBxbzUJGoj3Bt+M5ibCcr+aI1HqIReGptn06yAf+eqwThW76GP8DNEg6TDq/d4EzIBNrTfynrE4lMmv7CEYEpVEvaogrzO8C30pmqY39ADH6E8JhBImyla9CW9apXlWd1Wo8Mxkkc785UPTj8xlDacCJvleOlnma6lAq7+LsGP4dICrhkDj3Kloh5AXPmGddrBn63UYdaCOfRY0HpINrt7ZZw3vQPrEqdAIOO1j1hFd3N++D6utdbOc6KjoczrlxBWB7Jb0mP0f87kn82OfDcKydLmxTLXXwrd+7Z8FPPKRJSGSGmn68Ubd6CKANqe1KnxOvszI7+5VNR9Xu4B/xKZ15ziNk9nc6nkKSr/sqXzUdYPF/NlaKn9B0PMa5x4nLTKQPtdjnxFYm7mCQcOisq5e2jLtbKfvJVAiLXY494M99i/paLnS7aH7/YBGIRQ/k1S3gK0/+mu4XODmmnVtdPdp3F65Ix8MdzaUANSxTgRppFlhV/xdZnDVfMaX3tZhVNuh06hzrQkKNx8qFwQZ3a3J3NnLO/w3zuhEsmoXrSEc1mOwnJpQzTcLP+HUoE1tJh8e5APO4fs10zn/2U4s5NxSUzqPdyjenUrXtc0Shdskzw0XU6qtx1jWi9ZIQj5KNeICTcynEr3d3+aEmCh94jVdXlK4Ktdl0K1XFW6Nluh1bfT+lNgLa1IA9tVvYrVFsPsO9jxcui0dHM5h+XFXQYPxW3a+6VvUqqPp7aGd1MD9f9hVVFdehzeAt15+1Ou82X8udZon+oU6yXLPT9WOKqmqqeUXns9ewzZ9w6nmJus1nUy17dAfPc5tYDXptH98+ZDTTo3nMTuDiJGOSnDqtm/1EXySJhyvV9W4datAK5fEPDgEXcPuamZmbnNB7kQ6dBDX/KmRd4BkObh+uxvuDA/DqgSUcwBB71YiHZe+0EcJxC9O5zrrdFp1Xl4gXV/FGFRlp+QkNgxr0yDOFHLiLopyN/bfQcpurQ9l0BAlxDqorkfUVufUUYf+M3EzraAlK35XrPSXmQP7RQtCPzszbSpa/lpa3X79reaMSwEXuGiYe/5bVuFy1T8th4c/hs4amg2u23kJLRjSkzpsKv0serL14TSfvZRinqn39N7zgaY9dQNuv0+uzeTjCcYZKdniOcJSZwwXGzcBUM6kiOj8qt4sX7NYHa72XAkfyoSrd2Gi7mwJbxxg77o8kH7apA2GbDlfa9PqPXvGZZLI6n/0Tnw63tHeiknQ4eWUpEdCktoiudon2dYJxorG/du0gV8AZhWDf1uT14iosLTFNBAZFQG2m5HX3zBw85Uqy7hpfJ3LmXhd1mgI6TeR115jk3yJ6w0ynyJ+/LZfz9fmRJhcdIrtrvCtMqjlXzfcbNB8K8NkVfSDuRuvhov0N8//vOJIqk9R81C2KqucwbFWz+t/JUbXGXmpBOjrM+37FlBdmZ+XiqIs+mBv4lzzCLCgB6UZwImMp864LOqff1hLEQwGuHSb8PDzie+4RRKDcBXY+7OB6aR9KVLpJ+9a79PnebhC2KTtEB8TEcEahMkN8NkzLAW7CE4WKDjHdwnytY6llIHoBnwrZs4433mKJziwIHW7XZ637P0ztjxhv09H+Ar+3MHA7nZDXlQoLB4pkyeiVn0jWYoY4NVE5SbWhB56qGZchZJFyutkIB2M95OtK2TYl8bA/9VqB1F0rf3uYCITmjP6nGVj/orOIqqgf4C7q3GfIlP9q6BSMWb4hUM77LCRY4T9lttZ3oImDqHKrDGIoj+0mi/zeFtDkEtFr4G3Unzj7J/G77aKYjHwWyKuPzPt/QDrMOaWJRQ1ZXbF+muHUcse8r4abDeO6zfvqyuxTQQh4ZXled/mBflMW6WPyPLQuEA/kTzf8DNPVydq59Fx/jpYSxMPHdhV+zEHXf245kreLCGmFnYxNtZWJl+p8Pa6fXf/JBzLmWFLgnyv7bkWmZyNccpz1tphavVuYb3UdnXlMzuLk4PVlZC8Q4JqP7Bg1t6wucaNXyc8OROMDHsR/wNjfkTtCJ7R+inVbZeD9Y1VH0qVIFKMDmh0sy3UExMr2NB+CUQI7JyYVO4v8MtePvP7J1ek2bbM9b8Y/NXqlb1LltHX96PyUCFxHwHnF4WwaAQXKDqbgXkLFK2hCNmGYG2xVDqXdZ7/r93xInxRwmsifIljnWXG7SP0X26Z+IpLP8d6rGCL6Hg25AnkVc5bXM2y5wTVvs1R1O8TZ4T0b2enX8St+HcoihXKvIulQ7v4dWWXkopuwHZ03u57m/OezzULOpri5fakPeLper/ohZDQXsw1eUZeX1Em3hW7FseDzOR5MUtZagnggj2NFeMyR12w9rUfyXuccV5BPm/OR0tfBpTdsna9H2yU6frRK/qki15vZvxKqeOOHa0Wmt8gfe98Vr0maorrt7OIkCIUMq5tfiYLl9GrZOzd9FMdf4ldyunARKs5K9VZpGK7d9AYfnJDsXpp7PiAAjdl2453Sk7j3hSViNvZLd5jFxPIadZsZ4qxvls4IOPicmDbB6TG4/YHXuN9Vk0Cns9Sc2UZGtrgz8BGrUNcKiXIntPK7dgSch5xk7UPuL6Up4Lxtwm0/x7kmVrMQD1Okq8buPOu1n/nwPoeTKXitEbq2Mr8Qc6rJKnVeVHNs9qO68W1mivCtIHzVSMJY5DKHutcIsIcT6yhRVdPi3K/wVdtSmvqJYnT/Lfw6es3/TF8h2DWn/yzpIHLxCXOZWu5TJ7MuZRqBH8SDY8pIzqmQ6zclH6FFRg6Zzl8HaOdW59huxfQccgoX/O28oiQegGPmMv+uFAgdr6WWQNXUKpnSXhDyZV6P8329Vm+mynHwSTZ8MB9Ec0qv4uOaWliVj0UfFTvWNizosEd9ZL6GL1l/Y+1f4+8hm5T9VuQjLjqifyQddr5t7vc7Wo4/6XR7uvn2WbTt/Yx67R9ry8EydT5L0tEbPCcUnUw3F86v7ObTkaum2+Rki2i+O0ZgbJNfZRfiMcuAMKorSyLQCwHnIE3Q22hfJSCSDgVPt1LOexIPJnMmcvPHjEuOoW51HofvDZlfYq4WW2WWQvY3km9ts1jgbVfyYVP4u8TwN7ak8L2aD6Pg/KuRoUM9ti2v+fYLRMfkYIbNvkXjYWZVZVCvojbBfctcaP5zzSCChb72nYl+hQglFiTcCHwuZVBNV+xVlfg9wmfppy8XCfeG/CiDygRlnU9XARC8IsbC9XHw1dRSEY86JxfqH43sTnQ63xmu6CAztauX7WZj61ytb99KM+w8kg+1GRKcflK9SlTM8X/BgD1iQyCJx8VUya4qNfm3u3x75zOWTBlgIClqQuh2TBRuUDcbdqtRdcJycOBVDVbv8GL+wGp6C4peNyFVNRULG9sEYTJew2Zlmw6SLL0RsE+5OlgBLyOyzPR3SBubC6ZbsR/L0N2VcWPhrHhEX1lMuLvBld+3IKCQ0ZSqf4cm1F5j3DlGbYcm0xXMqKW/Vu9FV8stH+RbNR/Oi/rEvF4RZzQeLBacxx27dYkJFL4uArc4ab5xUjzW2RTIn5KOYGaEJhfb3gzeB/hxmBjyf3YPIoLlC+TI+9cVn09Z6KJJ0vE3nEmfsdD3szK4V+F0TCxlgIbmZufBoDk+/BBFImNfdbM9TT7PWASXye3q+6r3LHkFbdRW8ytTCyDJTvizEa1e3QPK0J/Dek5Ytb9Fc7DdZD8WwBzusURCu5vqLgDnzpKOfu3q1lNB/NMi1+DD5bTx0OXKo5v/hPjbONZ5izSsFxfa2vbIsnpa/O9HK6F603fipuTDzieZMazuj322uacD6nDm9/30AQeXDf0zGhmJxxMGRxXfL2pZ6hGIAcwhOkVvks30yzwJegBe1WxdUT0Yu9YeGUKO1zwH142Humvlbw8DAfuIfcstHT6zoq18z+qePtIDoD3egByr1RzFnFN3v0n7Te27Kn9dR03GqM+emWJ7mTBcIBuI4Fz8K06ezsXz+EO4gndu7lf2dMPTa6jQloD+dXxA9MpROJSaSK5Km+A9uxXlmNovtfn/voFpnblfUjrIHKSS1jNcM3k957zeOpbONVIO2jfXWLypdXkB5sqmuuLjaWpxHFS5bFqP/6rx0PVBdlLG3NaHmGobMy/7I1aE1R4u7qqnQ94wxYaWdYbqJtjVIBCXtvwZGkrSdEaGVWvh1vJ6PFeaj/aG9rPHBfslpMk8JhZjkr27bFpWN1hN4hKh+fHaCjBNOe/w53jLgPhER5fctdelPOvbv+Ihxhs0tLk6fsavIxLfULcsgyEglg4SNUWPSIC3i2DoVQyrdaOkrbnT4uVM6UU/CBnudf38fbIQcKw7bzretxE2uyw0+nEq1ZH00Zy70JYJw2660JksVHs/jXNkY5oUDzTA0arJIkvVvsJdEigB6FYkH5KVDwcGcepDV86tU5xr1Ibzviv9QYu3VNiatPAdAQS/M9+4D1e1c27d9b7O+7oysMj8G/O+Lg2byKJBrL1R65CjykYjd/Q9omLd4airVmhMYk8W6vEI7bv+hWpRuhVv43iwPdT6uGeRJKS1BNp+pVOmqkLTzMofSuBbD/32XoAKPFg0uRjaqb1KAe5NhileLhx96EjDDj61Jdbn32CHqoRmtg/iWqbCtn7ew07RqdhJdU56f1hGEquu+18b1GmGnUppOLEYpHgbJx473//gSPpGZ1I64AH49MPNxMJwL1Mn/7K+FDlHJEFZhkNglgneDHs7EsAG3uC0S12xP5iYTtK4f86KFCISpLjupPztwSJQ5SvQmTQS0DHO7UO9ioutJxJi7Pj2ryyDI+DcbLru15ihneD3yJ0i8TDwQZlWV5yj9xjjU8z7Si41Ja9m8BlZwOGUCw8873M7290+8Ju+fM77qBokHf30B+d9F0guNv+NXdU1s2hekXQMSoKse0lkrhbmCsAhmYcWhZdoOV5Rn1XTT3Ct4ABdwK2cal3Ma3U4AZPS1PKtPUriwQ9yBqdjX2UrDgOFebfijRWGT6mQ/hIfjjUjDOc927jKWGpj1z1Qt7pUtXTwLuP1a8IZHVus/+XlcZkgDRC+Pfb1K/G4X/N8XGIOsQ5G78wjsLS/DjopqGYTk8/8vWVzIzUe5jzpZxVkzTSnPMWH5hUd0Cx16+A8DC7Xn/LhflIlu4aGTqfcBfqGWNathug6TF6wdciHeWJcyWKtCZXlw0Uxn7wbApUtW183N9BUrW0fqisKEk3W9kn/DPHMMhwCYueKvIksUliruW9eHBfNHol7bKLwy4EoOGeTHqqYX2aOaLBXE22DlXWgYroESYb+fH+h4X5vCD9zR69536ZXmNsPDJf9eaVcbEao79V8NVBFrg72mmo8JDS8Hbh4jqfpf/RcWQS+pRNu74spf0PrwaFnYNDu/3mlu79yPrGSS0vFIioe7eKtHtbb29vfVVxAZ5mcly/Z24JftSVZ1X7YXevFJAqL7KGytrxUbKyuFhs85LDly9Z2MQXJeDqFLwVLikMqdXo2XezRKXoxYFVDYRo5PCrmPzGJHMI+Adud/zY2UIH0WTQ7fS4gYseHcV/9Z/rFRAjnXQlBczd8Bq6x2zyKO/fDegepZz+P06nd+zmv1zE/sp5if45QmD5toqjjlco56fjXrUhMDjDVnc+s0iDYWOmTKyMwdU0Cnt0w6+f7H9nu/dSn2zGD1FNt6SF5jXAVw47OQoe+U1ccx+ovZ5inpk5PijNyS7iLN3ugDVwGqWc/F7+P/bMSaucIuHWWz0+Rap/QyPdaYFR4OD/o3/cR/J8wzh81Foon+NXFLtXVQX28quH+gLPqp0NyuDDnSzqUKb2KfcE9Vx7PklEbmfWCrKRTR4fU6Sj6Sad5v592b9In19AmLDL3NXqQsE51tDtKWhZ4s4iMb5wcETGKnxzf1RVJnH4dWyzip+AUapPaTQ5XxKP0O9ApM+xjvF5eOj3XF1VAaj3WebDHqAsPOW8bun/unSm9IS+v7500acjQhmFm5VWurkWdtOlLmtxMbhfioBlINmrmuLpJwd/sJ/vU/wM2fp2/TM9uiK+/9aN18HwZt9np3vG3R4NXDkWt9Wx9XzWjjaza8Cm+HU/BcwNs5wKT6ojWs/J9vwhow1XrYbZaCbV73ZzQZ3uRQcMhDdHbP8UOT/tnSQQ6IRALFlT74VPG2O9VFDRqUe2HRrXYN8sovhznvbDr9HslmIEy/OKOLxo4+LKlxiW5MpjLq/m32wh2aKvtN8fHB+ZscyZpAis3qOt0x+vfOY/YB3YIwTfY4i9CZk1YWN33+tHXP9ni+pQ8Zs5/hXb7OYubDTQMfl891/Uz+v/kvKdMDadl5KG0uJ9S9UITdW5AhB658EYOKuu9Xq+is6+h5Wr+VE74X3sJ4iHwXk+h6YQsYBeN7w9uPzkEMSe7F8ZPJvLifRNG1DwvTS7tx3f77HUMjTXvwqjS50jKFhE0r5ZmgRu1+S55O2JSqFezW8cIp+R1duo0zByRD4JzVY3WFfEzpMsO/B773kfUbeaE6KdENj2u/xOZNl9jZnlEB9TTXXKX5WYI2Ld1GXYgLdMxDKt1olAFWFdsy51TUqg3m8Xri+G1cHX3yN/uPwJOrrHHz5Uze68nKucmVrn0wzn6pQLC77LcDAE17kvhsFuQl6n013uDmXub9lHt36voFOqCUTOLe6Jo+gih3aNtKtLhYvVP8nV8wLzeK2TWunhZ3QEkOs75r3DcdGHU43a9HuPr7857OjA77w16zdJnEvkJGfqJumlukXT0008rnyfJh+8t7fBfaTzKH+AcQTp0klq7/PrT1wfp9EbSIGN7iqA8YdfYHWhOkxS2JmnptaKsrvcVIEDqR6tQndfrdZ4OtMlBpzTobnOW+pDbH/ubNntLt65oJ7X+X6bZUwXyYJ3WMJ/IQOs6YpOcIDoWueus8dqabXrZ96xHRTqe4M1sB3xBfTXvSMayjAYBoXQAagtegxgesMQ56XHp6C+0u6sXtVgSa1vkpiuRHrfNn+8JAqr4nUNcXGwhdDSx9rPKjTBaVrhqNNV85DAfTYM7T+uXsYrwfg6+BYEP+nA4bk3spta7rjjeDXk1w6g7hksI1hG83UJHva6+DLtoOtwD5g9SoX+iH+wjA+qITjWre13n+edot53zJTpq6kc1v4iH/UuZNcgCVtKhTN8k0uclC+En1M+69kM6xNdndxxobnHZ3Qn2a+zCjVx0inS7eVlcv0UTgQA+WygFe6Qt525ntmQfRefSryrHfp+uj+uqn9AZ5hHP8gu7Gs4wTfwLME4vemtkBO+A+v9OAhi9c1eX8Q+gQepSlaspMVnMG1jvzpWqrR8EbOTnkA6ZpR1wE+FYOZtxyywjQsB+aojyJpvGbc2U5KPu0uVKltBaJhL3J3IVE4Ki7qT87cEg4Nh2grVvuKPxNuaWfhZbCpdN5iWdxu2TOcRH22XEdBNhKa6n5+qUMKU47/eQR1V7unh0EzcW+WEGW5gps2O31zJIBwvMdyw0/5MoSvM06edRRzqqa4SmAxXNLwj2n1fUcJMYEjnQjymjukav15J4lCRiELHqHPcYefQcWaTJPzbUG+AC4hhbBzA22sNorbMy7RrxoG3Ck9/45vPLzmB3etjqAVdmL0no0ojVoULbvB6ywl7FZ/JhjTioN2b0utL136sHdKvp5/zkpHBgnbDo1THgqsbGPp9cOeVs0BEtXsMICWOjZZIWj1ctL9N9R+d7yw64Tka9nl3cVA+u8c9zfFFkvgpG1W1ZRo+AE5KTvRjPH8vgbaPu93ECkUzqPKj2yjat+nr3s/KXh4KAckzNqNutmyRQU25dfxKXqv+oeVtnnNftdfFQcBz1cyq83VfsgrH+Ai28mUzdosKN1VyBd5uXKw3WAVoPycQiK36TNq7MktmaucO2c7rQfOBqXg3XB477ffeQvaBO0Ha4AWl3TXr1nC4q9R18jobjJYvNZ/QF3RWcn0ZZ1HLMU2dlq4v7forPaKZmLRjPIUUqFLppfLpdjyHBuCjz2jhG2ouU4BrxKAXzWZCPbo3TfpHWzz7gM8A0o+lHhPAOu/YQJd21oatzAyDO9XwffNTFjqja7PnlbJg+JDe/8fSaXepKeEtz7i5I/tfOYfhuHJwtsTMfUTOo4My2am3DrwPB9IWO+A7S8RF1Wz82PkmH3sxqOJ4tzMSOuxWZqatX/jYcAraXewyszZ7HJoP2CyelOmEh+VCgqErfmG3GILSfZkkEtGHrfKy2oyIdVYRFJ3Sc2xzzbnDpKnKVhUal2ex0fH53MwQ0tT8G71PG+OdIaTDDAoLFRo/Lap7RZLJESnXDc124Om9MIahsX8Psv3C9v9js7V8sSF1sqiUJ0qFU7VEi/xUL9J8lHfQBZdMoNR3V7e1vc2AQzssKqh7F45XFS8yTz3CufYIsH2auU7vkeJCUqxVqLzEOWr+UeLj/iiu7fnwTWs/1vXk4FKSPVGcDpkmY9vT5+P7e1061Ij6gTpyG1o66eEmjQxzsLwBUFw/zakg7TC7WiZVVdbCjqfT4xORSYagw8u8xX+gAeoKN9zPM9z2kY4vjjOWuI27VE6rheSKzpPM9omPLesUiy+0gYOSAkS3L6FB1MLXtdATu1lZVt5VE6rezEdl63cn4duqXV71fCNgv3ADsMw6JasbqSIdPFqZf+p1O7/ZBV5Kq3LPcDgKSvBnG+OacmngWxLSXcu2MMW+pxnf73V1InrPZqAtJ5/Ql5mXNYxKWAwiG3//lpm/89uf+Scz5Cttu16uuH6STNteX7xUabv0nlEnDCPfqmnWvyhJlqvu19CNXy4Ww2XQx91NH66ZMH7SIg+RM36fOLhvkRWq9qAdpHjFpkoLVgTSIo4t1VF0kQ5QtKdyb5zhcVRK79WZX772+LEuBYAPc5kB0dWGWQIGxA05NNYt3fJAg1RVgCFuV9rvTXVWrqN75+xnNh/uo2FH16/gT5quPTDdB1noP66Kn8E84QL1GkmnfS9LRitDo30dfozFVP65DjtcZGE38fXqRbCO9nGwkH66A7D9DjMfRP1Be8c4QcG50wfEJ0qGKvdpyoa5Crjw1r2wwsS/QB13lZj+qQ+zmv4mvC7yIbmTg7tJmh31EXTqHuyj5IzaRcyM/zOvIjD/x+fuDvVf83o0kXaT3Qzp8EuWbi8yfIB2vIB2afEdtXmlFjO4VhGmOfWjU0YqFc1e3ovP9E+r01OAGCNtw2VtNmFbu0WL+qk6y0Hn4GvGQH1Q2bV8lImDVt0D0gj6cAD/FdHB8MVvs0DCSmSAybU/ssf6pAm8AjmYGwbqt4kDX9qd99QXgyGCdQHzGMgqnzv5HFASd1r8IN+Y8QaVPx7O9oUMaimX0Q6/ic7rq0aFInPQevi3W26suD+n36G/0AbF20O+czaAq791eChUjW77MG6l0WqydIjgYmLehHn1I7XFfn1X1satn021/IQJCH49e5NVn1VlRwivxsA/e4lR3X6G9lXobUrrJuDdowjlX/0NJRZ2m24q44DAlwsL0MZms3S9lqvgVf44/MbGYLkHNdq9iG0suXFgq1CNslhQPyiA1XrfZBwzTVtb4V23C2k0O+2xq3DWxSDyGWQgrD9mchLGAxgOZf8KrVpT24r2uEQ8rpXrEcFobxj/tUdOqJAYoDqrHNLBx0e+OpotdMrE5v7dXQqJio/ins6YOPD+i2ODP6EgyvAXuu0LnMq/+Dh1NKtSJpbXWy0nHjqdAcjvmS57zDdoO9wfoZwIycdBTZqFnNLBORtYnEwi1Iny773Xo2wR7fXfesmrBCFxbNM05yWjL/0Bf0UTj3i8NCGOWh4dAaWLBtMqYl5DqWOqqt1dxBaka+xFjP51Ke6E1ut+dWxeY603MpandxeM7ZN1ezPfd7+P8vsvc8Beazqkve0ES3rO43MK/w6iNXkVpppA1vFctxwu0HC+5/zpaDzX8ty3tQrMQsrUkP8pXHWPbuYB1VAargZd4KLv9PGhxPxYVFiYSPeYmLtCdO9uLV742c7r6d8GuY4hsXjWSJGJQk7Zhq5pb1lhRrjE5u2PjBTazdoap+ke7p4FPvvqsfnfbJeon0YGBek+BNwT4kt0ENbv08kmRQGknNNVxqFgBV9LhhFRXqqZU2/GUTiizlNhpW0vlfR1yo/0tnExZBYV9lbbXxGXf7zBG4sYSUfvHHua1D2i2tM+b1RD/sCicnuUBIGAfsYSJhb2pNL3ZJzQlX/3UEQX7h10kMiEzL9p37INZfgwCjm/RNlrwMRrmw/PZYstIpKvbdxv3tqnC0wXHJakmbMQdVtAnzP39FE1r+pLpQKpJ3ZQJEbXIdz+i2O/Uyobmg1fN++eYltu9USQky8ikdWTROnPbEn/K40FLpQk8Ah61RaJUjZnWa32n8fBHtR5qJwwNdbe+QfPVew2Z1jTXcSUfTqYMtGN8PWJrXg/4Wtx8C8HLg/tnB3GA3naxfgKi440quOhgTB6W00Ofv7+OpS1r5yoLVT+aDq8v6O6eGw48rH5o4yw/GAEHlXZfJwVXQg3Cao2+6jRIWqtm4rn3Eg8msBdsRriO01r65bQiNPnvJaEuyN6h8XxLamxVyr36jXOaAmCBuc68QgpAul+WH4yAGu7HzLmGy7r4U+Z0dn68XjHndheWll5JyFrPVP6ZB0PziqTD3CLlIlMZ2Xrk7bz3FpXWo0Fd7IPs4/qdo4cEaYMNwjQDWmfnR88btJgHzLEhb3BB3g1br3xd43F1pzNUUTpJ7ms6WKxn850qVz2wD6R37B6ajy0a290bLRXD9LjS1KKpAWY2xMPGBYf4JxqE88LnAyJgXHbzHO0MhOsY5yO1M71MLnKVXlqO1qq5yjFR2jpbC9vICr4yzU3rUfn+thGQLOilrh1TIeBgq8Ih6+7tSneLkfuFPqIZ0s/uYPwj+21d/fK320XAeUvB4+Sqs/HWSenv1euu9g+1HQtInSVenfOyz/RCbfS/K/TdC2ud/UfUxH9BJkka2zXx7XdWDri9e7/F+cV7aVJR22GqBBfwzjc/slDtWMir7zELtsSjJBTlsyh/LYvMYe7HYjSqJsBhF1PiaJ4s5fwp+1x1Q4xqdLZsyPB0ojNpkqomiw8xaNGmqSPVYyJcFsBchtlaBMEVf5Wcxd+uH9F69O29lyA9mSemGtOHYa3m6q+Y6Sjvqh+LrPcR9r5Fnt0Q32EbeZT1eojXqiYHw79XaGwHZa/i3GO4eUQ1MTYkK+1+S72ukb/fXwRs62pFpylav59+2t/5Tft5zCvOd330tfuL0vjW3BGuYF1k0bHBPOyiWMfLURdlh0RDP7Dn2GP1mdBl4UeXqpvNsFOvsldZ2z7L2RclxJvIaFP4D+PbUT2XFoC9s9LnyffdinK/IxpBPFjV7ZIcR+IRg6u9xt2u2vK9D6sPg6t77emyTWTv1yIwDsqSZX0PytcDb/mN9VwEfNVwxlcb8lSSj9EQAx/ZPxnvc7Zd9s+Vts9edY5bfsS8fAsCYu6fk44ThLbNfgZc+HowoBQ+2ziYuYFcP06FLbfOt/cYAVXHhtR/waFUAqr2o5dW1MdVxa8TufOgc101H9xjKO5l1UPgMfDVcLq6d5Wv0B1Ve7iYcU4x2dgr5viflhfDpK6/o36Fd1Gc56p66VrQSnrVwK8w/21CjNyF1iyl7cqBfursk8kR9HVS27EPZ6hzVrAO10wt1U0kHm7n7n4jRrhEnDIXLtU01VG9X4NNYTByVek2w+YH4dLhwOnZ/m52OTUOrYD0vvLoj/D+kqS/s8uuQkgM/AsV/AhuZ4O6rfCrpQXS5M4XDWONstwpAvY7J6BdBp+ZdvstmtdMGqXKdmN2FmfTfs/M4+4zAlU0i8kCfd/Lt6N6ViMY9HXbZMl5Fyvfqh75WiIg8XBxqaD8jDvB3lSZt+qm+IS8U9YROPC/NlaKv60uFtMnh6zuB5edN61L6/kSD7Xt9j3fV8XPj5HLz5FJqzMmV9TlYfCiX6jaYCN93GQvkoYyProVRGHn+0g0XNUdoDYxv4UNZKjMoMUzVGEbfvgUtdZjGpuXrw/v764GJB+tgAx6n5sebz2iLgCvKcSQK7PKPUUoqaX4Zhsb7k4ySzGQWT7FKXETs07uPDsclqM8S4Jpohwdfau9EvrphyGA0AaaNtnMt65672Y9M0o08lrdELBtbWPb+jPh1O48Xe1w3e0cv3dOUcPhgsZtEfTtuusFVl19H8pvzr3m0XDRoSuAmUlbNfGD4uCCXO21/nvub/K3lSUSDc4Xj9GeO8c4p9gX7qr4bAv4cZQL/LIW1klNzEtIhxp4MVDO9TP/dXoOLSPmSdH3TWVFHV/QebWjxsOBJvlwgj1CpWj60yk+6xk7THGr4qfYkBysHxi0siKjCHxQEzFJPvpJ6TrMvQc5hz4Szp6rdMh/rM5H1MspWx2HvQpQ+l8TX7+rk4/M8hkNXG260/RmWe4UATu/2rgN2PA6A3OvoY2y90ZfasK20AZuzRmpVZoivdagGsE7ffi8ed8IqNlQdWxbb5P3xb8Io+9xhSC2qN1NtW8fc3LPBUcP0H7Az8qaORbkmtMfI3wPmO9dtZ8x9ocpTuWaWB7hI6im45e1xUg4ppZbIXvXZTp2fzdipVzgSy7oiuF39AqC9IKoG1j10NVU2yFXMG+Xc+M5jqV1JsgZsOpIPKyB5ENtiTvVHqL5WKBhhi2lc5XhRKobG0TM6Lx6XpparkC53Rxu/dfcTmRSMfdQsTPun7K3C2jsUOdzAOlXvVrdsWSW7McCs3yGtiPsfdwkaUeF0N292jaS3lUIterRIwSLA6cKA+vW4yXlByQW0sHQyC+T5hgmad/JMnkIlBMrGmDmrF3mQl9NxNStVN3APmG/es7kvoIEcsU5DgusbvV+KN/bPsokoznc7PMwIi7RaNGmNmu/c3zVzppu1JT/xBzvFhpP2dHWtr+ppnxU7eG8ZBSfc53aDwnxGmTrMZr3x/RPtT9kCRi6OBZUKhwwDxodWkc6vAnTbnfi4QEn52fF54PDYvnyrPg/L54QHjScMbtaMRQm3CEd2fnUQXFO1j8BmeIep8dHxcEUOhC2Kr9p2djYuOklStIF6VjA7j+3eFQ0Pm4X/9pvhgpJ1PrtmAo2Ge8CiqdN7IhL56RU3z8rtsnmOop6tj/o9vZ24d8oyyTXs+LSsxCIYuG4aMwdFUdkKIzts6sfO4Dp5BQe3IRUvt3eLWZPj0OV7gTUq0wynr2e/b72T7dBUMNlBss9UqTHqq7Hw2pSWSSa4JlO69PnxcvHj2O/D09j2htJua94juLhRzGOFmjXWbRXU4z7rU874XvobtUSzX6L7WxahJ/RdrxGcTDXPCbZ4Fnseu38P4p6ttdl0HbX4fOcfjt9xmqJXBtaIJ6o6aV/FkdHJFRrFpvIzWE1tlPIyc/sX3Oh3yKKBFQW7VW+/hlyouzvWk6vWIybvbj6H7b4QLI/V/vPUOu8hBXq4b3Enz4f+OgxGIe//rD16naemFhftyvWBvbvTzbYXK6MzGEe6Vl8Xv+M3dev5Slmlk0StJS7/fVxgZ536HzAbXTyzne62bfjUk+aKNi3fjzaY12ZrtFe2mp72eIlH7L7bTQeO6yAFUZ3VcYFz17Pf1/rafTKDpqOKjuxHvx1iw+1Gm6LoP9QjH20vJqUHfmjHP33Fc9e/eRH/a4pxNW+gQ8vGP9PIA8K5Wpe6FUPZYFh0uVus5jSWZjry+f3ko7bKoO2u1Rgjp6n86ihxGo77JdPyC9SOZwOSzp8xjMInEnDYuuAmmmwwlUzS1dTixeUt7gXiQ4jo5hYVTVqbjAZyxd2dPSaOvWNaz6LIB90zMdn5NmnoU5ljtS5HywEWaL1GlXW3xFoG0w+8Zy1VE/Us/xoBMIUiOOfbfQI9aPRXBeuWuj3dUX14hYCab0JoZ6vGXF1F8nfxh6BSJtNlJ+J4/pJJKXgWWZBZV4EU1A7DziXZBkvBFxcuGX8JnP7P9aWgxSenO6xoNC43rsozwxAeIG5RheCinT0PvPHHqHImcXGYip0/RclIqPMLyIRN7xc03Mv2ego8K+eeCBk3dreMFgF7k1LqfUoGeYrYpxPufbqFLv/0YCCMW5F1ipZiDTH1LFih73qKbAmT3PyeU6ntnMuYU9UwGUZPwRsZzdCXGbyMJHOZ7Qe+iD1Kmbq28X3x9wOaj9UCnKpLBOCgDOemg1cAJhUmVhp8F4Tq4/unBH7XtCPnDt0KL3NFfCEwP3DH8OhWsmkFywOzUT8595BsYdcsp17STzPlbiYft2QaYMIxrGEHEN+uch/ykJaHw+JkoTYrU1uoofzbK0hKif0Bz1zT5uaopxXDoJdd58Fp17Zvh6rw+byaK2D9zKRiglW/r66EE5858fsmUJFxlko6yxTeu1eJVNrfagO7+mDpUqLSWfTxCwQD8hmljFHIFSvEI91cnO8n272rK1k/ICxccCrxEPmbwp8unmWCUCg8k1rMpmaCtrJ1TbuVaokUssuNrIz9ILrzn933G8w7vdZJBrd5m7qe2g96kVomTRLDZjRHL17xd09pl1QGatGd3a5THJmRI+k4yYmluqZDbow1Fws6p2uJeCltgMORIx6F0z83pzr5vHQ6cZBp7PksOzd+dgHLb2958uokbPjGJzjKJcrYCVfan7c7hcoehYb2TTc6zBKd6JUU5KyqCdsd36AE5ADUruvXuC9igpZHQ/VCDro7CdTjKjcf6cXcvfjdzmGbWr7qkrWtFbmJ6ifBGamLiNMe5XVRq1K+X7AMPG1VHPhnl2rLDhMd7BCW5/QxKc9TK32AhNMmvPKflL1inGb662P89k0BHoBgqUMN6HYsHK8tUNcIBPZuzcW5s6FdfJRAiTWs86RdSA58FQ5oU2mEcztAfFwOX/DovPVAsYVm6p5ZWa5+VVvWKkup/vMxuy7o+GBGAhKj6JqNWL3id8X4HF9th6P8eB+NtHbKqRjjcFpSLUDsy40zK4QfZg3B6jhD+krDb6rHVQPDtX7+8COdSfTQ1e1zFUSTZq4tjjWtf2HAONVMpvlfiCgH0Rs73E6gzNxt+X4t2eRbOyfToUZTjmhyWEcNVwSDYWQebgulf7041HUU42g5mZ9H9X4yhW+0a9vOFXvpjjeOhhMU0t6vLADLVg/29prbhiFr4ePrmlFlaQMyErcROVTPdioX1Ub+ezGJ1cZ2eqie3wu/4zS2WC1Y0ptY6ez3A8E5NTaPfX1WOQ1fI9ioHavP0MkxoUbKvbjXNX9SvnLuCGgMNllNRs+PMwBzoV1xXnM8W6UlHZ/nQ1NlpTlfiDgwkPiscFfRFr2GPtqv5SJasQ0uTYhqHXy4a5QULYqZ0vfilLroJy6afFZNbGoCXRxLjdwPuxWTGSm5iXy2TjZ1hUvrirF1OlmMO1nxV93vfv0mwxuj1wNu/wdiYPA9ngAmeQCpMpUvGu54umB1nj9bNu5zf0ypNFtsw2V60d74aDbYmxsoaI9xUEty2QgoIl5m2iWbbSdzV4Dn0e2ryzxzwqT6wr9yAk2VpuTAcfEP4Um8f+fvffQbiRJ0jUjQK2ZTJ1ZLWfm3pm7e86+/2PsPbsjdrq7qrsqdSa1FhH7fRYIJggGAkEmFcDwKiRAIJSbm5v9bsqNgzDAfJYxtMRD3YJYlpAvLDxm4HGkk/L5sTSBRrm1ShPQJdYQ0BmE25mMgh/VpJKEQVxusItQ3WNVdxMWj+q7Pbxvjwkw2nJPDoqviGzlqTpEF6AD/1URJ6ACK3K6H17P2ieqooArVk3jrlhLV1kTi9UpcVCbZLZEnQeYpM49U3Xf9ruHRwHHUOBhjRYtHi46hjVju5bD0kndDhcdCFpYqm0jQgHHT5m9xMCZEKAcqNtVtvAIsOpn4bEDj+zEwnxEOnsDj6lFUEwgNigX5XWzBPIG8DADiM91hxZP5xpOM7KvR2XxAGx8A3hsUHOkyd4M8GkwrVutzyJxRHat3LkBDr/DSzhego3n1F9ZMxCrwQCK9rfdzVmzI5PR+dKCjzsctBu+lWOn79rFxiYybzME63Cfv3xjmqLls40XaNtoUcARswyCgMPEAEGk4QDDmvM/LJ7IgNjXa9gJY/K7fbVw2A460qzXYU1KWpzRwpod/VrD2imEFdHtYnJscoNh13vovwvFFD6mSW3iZnE1e5INFyTm7y+bFQHTljU/6kx1D50Oj/X5NJG7g/BTCgNR3G8oeDTo0MBS54e+Xs2PrcNldLmnDCrdUbDqYkb+8X9tCz86UXOxCy325Ida06G2E4/8R8ewiNMpMhKN95gyEnJIc3s1LWPGeQlC1B3Dzxpy0RH42Tmxo8wTFzTosDEmLsgFdiSYDD9DIbpHhcZdkM1jcLVE/j5kOcRfbxVLTeialYY1TUhuse52y5rt2jaaFJhyxYO1Y5USyu7oqAutbjSRMwVQZSZuserZgV8sjte20aSAc92CYYXrjKC5IYpEhWUshwJVE/1ypAvWccxo0uWxPPU0c976S2tYr2YmhidEm4CgN2CbeX9Eyqr6Uh0y7k2Lh66WnZOTRvJO16MuSAOvAR4NLB6u5iCqmR36PcfdjCzPyEzuWhgV2WIFW89IImUDkiyT7B4NLfAY3WlnBLi1ZszrN15nnokyzHIePMNEDAsZq2RYp20jSgHn/hYD6D48R2iR+pmvRSxHQbm30yRzX8HaFg4b0aGPx1ZBLjOG7q1lMKQr9TrLtdkth/CJNT18HTP/x336hztSXABAL2M86sYckRrgfB7gMYNM7TTxYYngLKDlDcxr5/+xBh9uCqV1R/+V6UIiO2g8sAk6XPHou7IsbQSVNnBhDbxg+8O9UsDxFDjOMZYRLIivt0lBMV1z6/DMFtrqGB6qYZl77V9788EUcMyM7djAxbqBi9UxHdac96bOm8VmRltRImDYWe3vD5UCBpjPu4AESGrFGjaeoYRhk0Pm/D4+B8HHOHsG7K/90yNQLMy18gyeJ4IOmwDOBd08upGslryoo1H8Vvmvc+8IFCfocCJa0557j22TqCWSs7/2v65RlgUTUpeoKKmI2q0ZiLprtb89DAqErxeh46pHq4eroGFN/+6Oe7cAPozyDhP9OE+UYQQZsd8LFyvyjcXGNvLOLIUmwYIqpqXuCtkAU+Rr20aYAvoAXJXPMekFkrFj7RAdoDLWUqbesPREE9f8qJJIkWayhbpR8FF4Qep745QQ0Kkno47HlF/wbYlKqk6PCckPBpYWNdmt5zG+xiT7qYVH/1WTYFoFTwAPCDuF2U3rR51prorG7XcPjwIGXlv6XvDRxDKobAq+EaAzIQWww0Drw+v1430ix+8sBKpBpSqQZuNn+Wk3hYsS6S3qGHkGiiBTtKu6Ubnuq8mwZqTVR10L5r9egnFtWje0CoY3gHeDsetiWoyQM07OgGuTLswc6lgwKVA6P9Y1L+wq7oAg02E12euuMwq/SUgZqCgIM/yJXR1rPtI0H2iOv+upOfya7RH3TwHHcmmy2MXR6HbHtG5ctXBERgTKy0yIWAncfzfaJ2hIAaP0D1mtumK1NoPj55gOakzzWLBNESe3SFC5sV3oqLaNOAUcQmW6K/QFxlT3eZOYPa1jzntT6rWAjGtzQWUxUXHAMNAhDZwnylLd1Ro5pGtnBrtSVBJrMGFMmbE8rC/uPbZNYWN8h5k8jUytwaCujjGzji1VHl/HROkKHV0t0ygX/x7WNLGqsMyK0Oxap7iGXav9/W4poHXTMdsmtoO40kZjJ0e4glsAcUQ8AMK1beNBAffccu4bs+fGf8OaS5OikqfzftjRo/t7xHcI0JkrvA1tegBmmRYz0NMNNK0J23E/AdNbmghVzZC6HwwoaaKQhz7RAztAXvF1AtcUFdlOGwGsYFCYUyUlmmvbeFAg8s5B6pZONxpbgF43T0r+EXhEJVOAq5/bNhoUcKwMKl2PgoFFcHDd6E0gQA0sFXA497V4ttN/NMa6yVO6z44ZbZa/b+JqVSfuo4hdmPu5lAdN7jVKx2jliKBSsICYYFgrYjuK+VFkCGFRcrIoVI1TGNZ0tWyS7bHdsFLZsOs9xN9jxUr8SgQJNaxEpxnOOABfmpLaNh4UEGTEpHHlQ32GBZa2TRSLmyats2ReJ7tFc2Sd8hoPSo1+Lxwjzcef94+SzwdH1GMYPmrOda2c7kTrAk45UAdMR59Kj6sHWrJMj/alO21Y0yOgQnZTUS0B42rt1OKhVTAsgw0WVlo8FgTngTMKd3UnTMmvruyZAABAAElEQVRMnCY+LJXyXtcUGbXZmZx1QSXDBuqh/a6sEc0Z1R4+LLjHHWoHNbGaikgGLSxHADiI27bxoADDGoDcojfWZ7EibZN5EgAdHvpC8TlTMnW7mKLdtodJAYu9uSfT14Pj5BOgYx2rhxkKw5qrN6tbPuFVptHKM20bDwoIIpXr8wE8iriPuvGVY474x4WHhcS0nNfpj1GlkvNlV7mGRVd9OaxpLdJlZXpyuTfc5KuV5WSf/95bKYeL1TVTaNypdWPvIFknx2jm2BwOg0fqhqPuimwfv7paf8AVf93c3LziGd8PJxMyfHRf94+TPcytmsvqxI8hpCqiRUprv1hZTF4uzUcAjQJpWPuR56y79kOi57g8Z8q8+GnyIDnq7JEquxsrmrq+GdG+h9DZ4PXlDKTfmU6W52ejGmo77g9nvjuGLpx2WGB8PDxNfmPev987LCoV1w1w9zdrPbxeXEh+WllIni4W4zvotHbcH9a4DxqnXvlpgOgiSvZwaj9Z3D9F31FQDoUwaLGtClYRnyH/8+nZZHZxPllHHzVZrAx6nkHf9z7noGOu8n1T/nQdvg5A/7a3n2wzZ5pUaJ4GdDxbmEdHzidP52ciEHsyduMjItuUMAHEIKLaCZWwUbtGfZvD68pOog5Xs1chwf0dW0TrFtXnTjCQD0uJgmRFQRQI66rYqF2jods2XhRwDx734Hg+N528358MRSUolV+qmgLriHnirqbv9g/D/C5/OL+0fBgT1Lb7p4Cm8dgIDsvUe1wsHw5wI1OxVLlW11xXuIpzM8hnczOxKZxR+20bLwo4SyMFFIuHlo9ZXmdYMq3XU9XUnf7iAt3ASwNNJ5zvY6IhlXfOGTO+LBtw4MK8mhRBnlLKESJHnFxRD6lclAfwEHyUmS2Wfx0EPjQbHXMR/dbeWPBBzfWxyeQwUMaqc7qThgkfKWtczAKO3sK/SxnYVqEEw43bPyoV9255enaaPMO6pQ93E2V1llVDU2RNpJCZmvmRVbRAxPx1xdI8300x39p2/xQ4ptbKFyy47w+wdrCK+8Jy1vlvcwwHNUGHLpanbCToLsarvLu/T9vGjwLKdDPaVJwLaFCB6vGQbqqgi3IMp8lCDR8NucyD+9mZcaSOpH+Rbg4txAt1zRg5F+QLgPQ5aFhuSjupQIytaoncdWWnb2oQrfxeouqSMHJXACJgGZctoFUjWnR8DaJBL5FFb3P4rQQeBpq1uKOXOuPzmWGOjIWV6enk1cJsYfGD/40FslXxiopL68YJVg9V0tzEQZQMftVhzrCCErTWT9m4dPvPLVDAsdEkrovlE6Djg6ZjXM0CyrpWjpdln59j6XixMBN+a61Zpgi2bbwoUIYQqCwdc/WkC+1hLYJMyfg4YAE7Vykdhl3hYf7u7FDnq/vNABss/Yrnl35mBlkFdrbjju0szrtdmxS9i9YFIL6ckMOKn1i11AdwRWdU97g0aBmIzr412eRLhpyHoJrgJHDbxpcCrnxc9bxB2Rh4uHl0zC60aaPIdQOVP+wdRWT87AJC7LRILWtdLvfDL8o4LRumPH/AT/3J7CMnf4PmCs706p+I6fC1wMKjtXQ2INwIH+KYu7iMzf+Sk6E9MQmjWJijSyk8OC5No4PzxLljH22C+EFNjWi6eWALVuaGZZRzBZpqSoKwoJFZfjw6ww89BKWdRWlYc5YtDTscAQ56sIf2velPElU0V0fQ8rmhY6DgeQSR8R5tG08KlCsfK/xqXt+fyzC1T5FOVvhxh7nl/N14DzMmFlJK6DDfVs+KFMywlEk2GC4H0F+3HR4PMwBf7cqHbHV9G+0+njM1FRKaKyNdjTrHzWL5BOj4hsvMPVlKQVrX51IBrTL2LwkWfor7zVUwl27bGFNABWrZCauYNgkUlc/0HLjgyKbHhzDnHgEmkeXhh+lI9WNh7SgsvGV8hxSZ9J8olILyFNXtutQvbCj+VNlCQQfyYSIDPkg0qjxu1L40tkUloR+vbre9sl9lcOnsxGRr8SiJMsbvpkrPM5n07z8j0HQbc6r8cjIg1qOXFM4ZN4/7+577gGTJK85fmz6LGjpTqMT8FLhPzMF1WwoP3mTbIWr9Ntp9PGfKoiqdnGJBRWVJ5vYGMs7Ym6/Ed2wjRJuADmlRxPow9rPEdcAD85TTb1L/6Dbo2F7z7iigfoxdVXUVNACZWtTUIb5OswYn3F1XfuhOEbuC+ygKiA5DHdxJoF7EQF4uOR/SylWXqWHm2q536lNqfXIJ6z4mlhXPcrfSGY+m2Dci+RC02iT/eoKVVOH7s3DQeNCg7cVgCjjEkZOOef0VK949rBhR7wXAAP4Y2MqfPPaz/MVLwLJ70q0RQIhWjoUhDxA/8DK1P8wne7W/X/XHfRTzbbT7eM4UxZFOoQTSiQgc30R4fjksQMcxsqwcn7r+ahm20OIrYjteEueziNVDINJO+zqqjcdv6ker02rdKutQ1PXMpJfC1aJcuNkFQd19b/M350jpERC8D0jsufAIhtBb9dV9jHqtHR4UVDHGY5mJ5GuygcAphGax/a/+bi0FpTn6wp1H6A/7IGFNg6Rg6TCjT/TM8BaLyyyw8mljPEZosH/gUVU0gk1jPcxht9iULpeo+TJEg/mzc2eLFfdxhqmfcxVqTlBBRzMVWP3wk4cH1T9c89tTMnhuo93HcxrGm3ZQAoCHwkJlSmCxod+weDZpIOjQsrGEAP0dtRneAjzkgRZ03AaHPLxrKttnkfFzvJpYPFy0Gv94pEuiO6tHmVdKsaau12qra1J5N6yZzbKCazpwBZ97WwE8WLkvs4rzgCZpYdA1Umr2uLm+LEWU+cpl4EjvDUbhs4TV2qElxxWQedrDyIocitWvvj+DZ0a176MwPg/tGZ1Qq/j39+fOYgXs6mYd64fbRNc1WCtW18FjDdwzdde6/NvtAIXL9/nRb+7jOcsZfr1nN2vFmh0vI5Nlmrod0xEXd72rtWeNGgVUmfKA6aBauZT1ctSgshOlq+UAS+hxRu0Pju2MsH50vKJP9MFUWrM+mwD2STbWczsBAXt/bEzAEM0giwAPTSIGmg5DZ8Y/6L+ykJgPoZVgmKL24R9qC2sHHYjVEH2RyCqJQU3Q4QpIH9YMKNigwyZIeND12u9HiwIKHsf8CeDjj8tzyR94LREjNWzejFYv26eVAlpy3Vbij4tzyZ+W54ntwMXCZG8XGo+HPxzraZMveAk8lPvD5ro6JIoM8n6KrhzlhkoMHW9QdhQP5Qu/q2vOm3BLM1/EFmX9jvKcbowH9SiYXMZ5WGNAq4cBV4NQjUrZdYsrt32ewAeaIq1Us/EoNougnGG5wWIeqZJadAahWfsnI0rUGfosUJskwKPdHGoUR/56z8yQx3g7X6zrcQLv7GDxAIdHDIFxQm0bfQqoZMxkeEGZ598DLl/hXjMAv99fPfo9bXtQR4GY7yzRme5RhdTVu+6UQbNcl6n6U/Ch9dxMqmI7+Lq7PNzfLKxpQbQ9OmLGp/2qa+pHYx7VkcpIY6Mg2YUWwEPCiujmOFB0YiDNvgGWQ25QbBZDkCnR+e48d+nqF271cP+QjGH+ts98Ntajrmkmkvl0sfgumuuja93p7W9jQgHHX5fLWTbHiqAAI7+y18fGkRazeh4aExKMbTcKS8dE8ntqdfxhaS55A/jQwuWYt+1xUUBeCAs3Un6Ghbmu1hPrc9Qs+539ZoGoqE9wuWglG9W8a4GGmSwmkzRbVOX0V8BBQDaWYOdMf1BuATwgqNYKC2EtAEBE+QaSDMvkt4KpKYXbx+zQKLK5ZlptDBKdwyUU1gSB0F22DESnOUxXyylo1eepayK6GYgqMxl41IqiOmqN72/ygUGGa6TGWvsmXHbwsWh/jwDSwyHZLuNLmdHtmWPK/pfhdn4F2BB0/A6r1hNK5TvWbXt8FCjVkZYuV/Ho0tqFZrnm0OoR1YtRKMN0ym1Q1efQeEDJjbDQlv246r202FjlN3bZHmTm6bmoIG2eqWJczAzxo1U7tp9bPHxIfVfuSbFEjvouKWe6UOpaROiDhIxyrQF/dZeI37QwCHT0nE0zqHfttpApCmSK+QxmGdaga/j6ikCjYUe3v487BYz3MPDQSqSie7d//sfuQfL1sPDzNmCpcSfRSPQvTMQ86Qrj90fiOX4P6HiLxcNgUoVo2x4vBVTaAUpZVTjHJ9J63SilDCoN1wQCIPSKVo87bIIO7+9/EZui4rpGs1bXNnhgGz0/zM3i5fUCWJrDwNIyWaX/zgE8PNhnEs25YZzulonOMHtHYUpyfwORkMBBAXsV2qrigzicu0lqoQ/nyuKuE9U0iRU+uWIHXulR13w+ieuOvjJj2x43BVwJWTq/A++qnvxbvhb5bzE33KnSOBDBfdseFgWcvs5gFztzjNsy8u/5zGTy5+WFiOlYo1hYa+l4WGN2X0+jvUsF7quJ2He+q1fcWM202rtuWlvc2sGHXSFxpIM3o+T3ps9S6GdcLciwPfS01o9hTbln6IUv9WSVhjwHHl4sKo0BOooo1GGXL1JsDjF1xEt3hcKW23CvZo3jxY2mI37q1g9xkt/16kIfni4WidyArjF4+vmM7Wjc12YUaY8aYQookNYEzvCFwdqC6L/v7Cef4e0dorEF5217OBRQCNt0jSkkn2HpfTs/jfXKeh1sAIf113netpYCQQEYRn5wYdFkwelCXK+As55Agjsnoun9n9gAEbUWWXhm5YSCa/go6kOBxhHvJpEcYsJxkT6s6YoyE2ye+I1B3osLwMODDAZxM6z+9Jeqm0nQIx7ESmZ7PJgAwoJaTQbF69kFO3dAnMjn/aNQ6C/YZtqNlxQGTa/jtX6k6eo5xREmkzRp0in8fbwbl9K2e6IA45ZpSWDcTk9A9vxt6w/sFFhGc7zwOaYhOJgd5ffFrz/8r/xqnJQ7WGqONetJPra09haVSfdJmzo8LbJfNMMaLX5TUOS8jz/ci+IC/TS8octC8oZSr+ENr/qcwgjHyXHRwutiaw55vIRQfoF14zWgYw2LxypxO7cFOnxm9+WRb2N/nnvm24akfvSHyTPK/WlkSBM46tiqqAN8dMf4LoioTjX0Ydf9odic0in3An7W9dFEr5fPqIxyw1QtHQdc089N5JUzXAOC8aLOsap2EXhAVDeLm0fxu6ucE9RODGr+Eg+HAN1BqO5MnjJZKULGuU2anVDXW2jlGyYh7Q1bJ9RE4G93Amx4mSa3qj0m+iGT0NfBvf1+CYWnzKfQuitw9P3u7aegAGOVUYTrDEWesc/J8f4egrz4u1eYO+sEGxNWHWQ/k8mpqST2C5G/AAYxK2+YpE62eXYSeJUW26b/tHgam8Rp9vyCBUSzpWD9OHc36AJ85z+IYDsDJvh1u2bA9W20+3rOlIWFC4YOolPZplVVy+4yC62l8Efrl56MlZqWq0EC80dpcg46DDwGjJ7CuxlVYuXjQXybCmDh2wn2m0lukW9/tG/jfn7IfebZFAikidwPvYKlw0XtXTZBh9szGALx9egoQhf2XfCwvckEGq7a+XH5CXUTeY0tSnkLOpRVw4C+PXX+CDx8CdSq2gXg4TGR2QIyEnzMTZ5Q9rVwoVSd7HdhsaCn34jRMD5kgT0RZiC0g1R9y4tXMnBFq8keVg+Lkn3B8uG9n8+YaVP4pC6ecfN/SUxRaVHwZfj1pVNYPGBCutm2G6ZAMLcgECDR4ZWfYc2AP0AYIF1ep4BU3nOsHL6yEybXxjo/cyzHuNlaOUGCD5kIhdDGETg9G5/TKeIxJtiezc3Vel7+nU5OU15by4he3as3WcLV8tSUFsSJZPlsMnnCBN6enUzmeT43iTvg72Mmsu5JBVT5vFe/W3HG9PTNboN5fMO73Zb9uq/nLOWR2Xtmowk8DAJeIpp9gb91jVmTR4VSHls+85Xeu3ybyreAivSMfCff4c/yO3k4Oz4qvj85TCbkZY7JkX8lHxR8KzgGMCvA4dsOwKMD37rhXcGzbi/I3OCYhL6kE/AtPBt82+3HlZ69PbiWAvKGi80pZUMDuS90N7YrLJvwxV019ZiLnM/shr3J7svyu+EQLqwFJfxZ20p5pD5eJztvA91uCfiQVJ47oCvqROM75njN89n7DgJok5ubm+cPESYa/krZQGkhtzaHwTG8NGtUNGnpALi3yTd6tMIK7k9zC8kihXZ8gEE3LS/1ZWMj+bKxmazvY4amc6bs/HVjOzkBpWULlCYmIMbmPZq21dXVpoeeH3eGH2wm209SNEGqIyvsOOc/X/4ASEkRFqdHB8nuDsrx8OoK6jrPeflBLn7jWPaO58Vfr/fXfTyn+5a44k4Ryp3D3aRztJeke9vY/Xbx7fE64MXn9OgQ0HGQpAjtRXjElSOS2w8XOxsTgDECVBTCeyZJZ+ZwfC4k6dxSks7zivdF/CIrgJPJJJtfSLaoybEJj16JAXvuXCoR2CVMlLP06X+9ehYBZxHQjFCy1VkVey438OPOzs7A3677w9KrF9c9deB59/2cyiNFiVYX5VMoEYUlL+Nyylm8tbV1vXkE74Wl6PQomTxk074DxgV+Tfd3kkXqPmTwcB7fYZ1Ddgg+MoBJABHkbZh/e6nXtchpqYvXFHw7Dd/OziUd+PUgnUx238Ozs4tJvrCcZPBz5ucpQIqLIl5Xbfcx36/6jB5/H88Z6aSHx8kZlqq0O3frnt0SDVpXp+aw4i8thPuu7vimvw2T8xu4WP62d5z8iptlA12+hIVmAxmxeHoYYQwCgv7WS88SB+ztHibb8O4Gup3SRNEUr4Oac+oJ7sqXZIO9frKczLJg3NnarMQBfRYPJiZXFv0bzb2HxDxkdXncNQNX3dTvtBZsUUFpHQW+zaA8OcWc3SDWY2l5Jdn48i2Kd6EywpzjrpGzTJhnM1hduIYpioMCVAYR4DrfixItiNZECXSgh0JKnx+P92CazHPTwOM2OnfpOWEirRuCuQ5gQ6GcILhThfbeFuBjB+Et2ECQCz54zwUfx6wW4c8UBhesdBQGMqSavpxc5WcGSkGcI6wzLBr5tOBjIenMLwM6EN4I8vi8sJTk86tJvriarPDdLiuGRJCCwHc1iURnzJsJdFettvAN825RHQuO9bYSnPR+d+XPlPO+6XFf5Zo33h7Ac5ZjUte3S/w54OBwjch38i58mx3uJ51jebcAG+nBVpIGSN4BW2Dh4HO2D/gQSIfFA97NsXYE79bwLfyWY9XItNDBt52Z+SRngTczt5wcT8DHvOfzAI5ZeHhhJclnFsmwWoDhZjl+Lqx6pRVkQFdu9eum9LzVh2hw8WHPKXBVH10llECLposMRvfG2qDnVHeZPmva62cA0mcW825pMocA0nphkcw55eMQX4TLoSNdNby+YTX5hgzU1RKnVvSinFMWHn2GfHtGPIm1wJ4trSSC+Kp2AXh4gBeZRWg/n50AdEzG7pu7gPE6wmnCsebHLibuHQDIzswpqwhjPapu+f07TVCCFokSJcu5yQ6mnW/HJ8nGMQV72FFyhUhz01dvs9k3+6AxqViDDr9baVYa0sXhF2qPKEAHAKKzj6Be/5Akmx9xnXxK0t2NAB8CDEGJrpYcXyVmjqTD37pbYrsmZ0T/CkTA0dti4mCpAjRmXCflfgmK4sx7dE3XAhKtIgKSsIIsP08msIAkqy+Ts5WXScqqkox4jrm5US8nbe+jXufzTV2nvPdNX++2rntbz1k+b+078kvQm2DJ6Gx/xp3yMUk2eN/9VgCOo/2CR+FX5VvhepF/ie+QB+HbArzAq71AufemcYzWECQT52BmBbhwXfg2h18jWLrrMtQdE9aPxSfBszk8m6y9JsUAIO2x8Hbbrk8BZ71TX3ddE43k+KpTDCfw/babutT6W+saAXi5C7bfnWYmTrBOU0w2eAhjO7zOdngh3IUefh1yomssN9F7TdE9C+9Z4bVublZyopGvqwRa7czkyTxuhBlKlBqHMQi3ibR8mZ2yCWh4emIRsspLX+i2yt4cZ1GaHfMa1Fyi0zn+qeMAQLN0AONHtCaDfeEGDf8I5kAwNCmOUl7SR4rnGTIg5fHtew8FGGfSUBhwTJa4S1JXgPubSbqFwN74EK9k83OSAEQ6mAcjnqOX8xHSuVYHV4K+d03RWiP8zpEp47k01uWasblnqvAWoOiK4bsc61x+6Oj3DaIBqKwqO4trSbr0DMXCc7BSzbCCdFhVxioSIa/Z+9yn3tO99uN4UqCMOQogjIUjAQCEK2Ub8ArokHeTrU/wC6CA31JAcimz4Doaf6m5tJoRJJpifRM45MG3xpYQ+tc9oTAyy7zyq65HwYcxTPLtUff7gm/910wtgUU+CfgQLO8QU7K7GRaWdPUZQHo1XDHJzGxYTlLjQtQWbWtMAeWEFNMC34RyOccJOtRzirzbauWljeP4gnXiy8FJWD3Uqzb/1TBgOj+HDG26iMyI2eJabgo3LIVWWhjTZjbsM0oINNlaoBId6KtxM6SlybNkCfPwOpYHH1hTTV07Yo4YiLLBAz+d5diLVuVLp0oXAY2BK1k54zjKiP+PuFz0va5iNjEn+DbdLQVwYl4Hg9T30U5IaM1uWj14a9tVKCAPaanA1JwINhDYE5sfkvzLb0m68wVzNL7xENoIdgPzQuD2jYmCGotags87wZ/tq4PfO+U9V6DzusCqXkOg0w1ETYkLUTHEdwbnhXDvuYfCHVePmQbJLqZCnlGfemcRM/bi0yTHApI/4bX4jO9YTeqCadvYUyACnQGhE1g08m/vk87O1yTd/lLwCLEb4UIRFGCVuBQDgKwIUKxVDQubMUadqfkuDxffEchxTkPlikHSqYHSgJzUQGrdOL64RwRcy9dlQ46ytuUkYp52sQYaYwJ4n/j4lyTBcpesvaU64+skW3uVpPBszJsWfJTUa/Qu3IhYIAancLf20L/iCqVe6ZEsFUfdzFeCGy0THw5Pk/e4WQ66lb6Ug1GLA/7ACBI6btgd3Y/FOBGLejbZWVc9bR0cK/4uk4puttiwrLBK4KEu1ZflpnHm/i5iW0JsRxBp3UNHNC0Wjy0euslmMiKpIxCNVg8JVzYBzjqmnjkAzCbEnD813oOc4FtU8gWTfH+G8lmq3l1TC4QmesBS1XHtd10KOLYxAxCYBCvlWA86nwAa29+SJFwrH5LO+vskZ6VonMZ53IOCcRrhTLQ+KSKFrzo+E6MhyNDqgGWC6K1kYnEpjkux1MWqsndNovAWePDqqBiOcbEomEOQ80zhykGw87urycIkrqAHnPDSV59vA3S2cMFoxnY1iTUmW+F7QIiCPMc9k2PyDvOiWqNto0+BrkwyM8WAZq1yna0vYdlIAR7pDla5HYKPjUfyGAGsDQCRYnnIiZNLdHEINOBXM6oSYjSMF+rMyrdY1QI8F8eYKvu9MWdYgIVr0Rgm+RJ+zeRbYqDS+PuQBC8+64bEepfo9gH0JAFUACuH8i3Sane9CHTd20wmDrDcLa9hFYFnAdM5z5FPEicimO+dM98fpP3UpYCzWrf/sKSJXoKpV9Rzvt9W01JvdeQNXl8AHZsgjSiV3r2l5doNZ4gKqg2eQ/fMJgv/TXhqmLHBPmmo0NqxDOBYQP7OoKuHtWrgAYV9PkuCW0JYJLMb6Loe4bkF8DZgYYvOH9N5nv/cdVn1IA6GQStaPHrdHBKK9S7mIiqaHpxG1TUV/RSWj9tqpTmsKXvIhOoX39s2hAKMcyj+7fUkf/+XJPv8S5J+5GV8BYI0fNYK0B7QEWZjQccCil5lr3IniC4hEDSfWUrOFJgAjkiLRbBPEKhcuFpiZPoeiPsDbjs+B3xs3Y9YNXLvjvdHGOunTxDMZ4AK/efZDqBIq4jWD3hU6C1g8jxN2Mm335LOMtaPZ79P8ud/oELPH6lCtcaqs9632fdg7Z8PnQIqdca78+XvSfLlH0nn6z8QTF+DNwQCAoDgW3gkqkqhwAMUw7eC1NxgT5T87JNnvBMjRNZJSuCngMMMK60gulqqFT/SSEEM7wpq5NuwFAYYBoAckgG4DhCSf3nGFP5N9uBfXJeJYJtzqcRU8K3nYp1JP/81mVhYC+tH/uynJHvxpySHbzNrTvdYXB76sNzL8ylaHA9eTTRRDB2n9C6qb+O5T9C7LtS/YO3YQe+GB6HnRjwxWSkAD3i0C417fr34UZ18xDW2MSBsU5urSbVls2QMml+20m83/m2YXqwEHj6KSlUks4C1I2qup/Wgw3N86KhiChGOCITSAmIE8CCEGJ2EGP3WEQklSnQfmM8gL6Nyl0FRs7yLpeqCVnyOqzYZhKuGO6n4XH+FwsxWMKDnta2GAhBUi0KCdSP//Pfk9B//nmSffk6Sr++YDbsBCAKhcolcc7TCD8CRERCXLD1lx67nmIoV2ghwgzsBHTlWjjNWjwp4C4NFzY0hadTlKPluPYXwv6M0TNc120Dhne1sJpNYXbKtr0kH98oZq9tM64auGYU/wjzcMxwfiNoYFPoWlhKe2yqqYf2gcFhMoBqytD+NAAUEFSjz9Nu7JP2AywLAnG9gqcNqpzWi5KngWxdFAOEMcNxZgV9XXuCKA4ga2An46Dx7HaAjA3Ro+dAyVyr68jrDKBLWQONGsGh0CIxOAcb5wrtI09UClwOIwvUjaBaIyLdhDcESgqsmAIqWjRmAE9YbAX8H4HPGfOhgBRHIt20wBRwndZmvZmPG4tvV9y02L2/8hqDDjFC3r+9dxHtrwySsxxVFwGqeR30M5gjdbV2tXV7916rqiq4WPSPLxHUO2pul/7yBwMMDA3iAYBaNsQhTXP/pF/8WTYmQDmBk03hEWB0CptQnVc3j7Zib2VQFsGga+gbqWiDW5PUs8SZkuDjitQ9ddaMG37k6ODfxNzhe8HPTAKjBbUfrEGjq6sCU2OzX/0jOfv3PJPv4tyTH95zqxlCZ9zZBB8Iv3Bc//VtyxoosUYDjxtAvTvlGzMKYrTlO8OemR9cBfnGugt/zLcjESpSboRxYFZLtMoH1IyNQsPPx5+To5/+7eF5N2PD1eWMCGxSbqJQ0hfMyFfjszf8AKAE87Ds80rYRpgAAswO/psRJpJ/+FjET4X5Drl1oWjl0VxBLkb75l+RMCxguuAS+MgU2XC1rBHiaMSWPa+GAf6/eWHjBt3mKpQ8XTk79mTwjnmkVC54WDWvcAJonvv6aJO/+I+KnMItwDL+XzTkn364Tt2RwNS6iFNdNPvFvzDVcQS3flpS69C7ccEY7rZndDVox/yXpbTQxhPpzjwWRKa9fCXHQTdLf/EYd6291zyJAcX8Xdfc+fCJQqbhc/+WJxXRzWYrxYRwQhDRptTrca5iba+nTKXarVdHWKWe6VSAmHngftGTZ1ig/3IcPy2togiKBJV59UzmeXfS1y7U2uNY3rCizEFZkNYHlw9asi3HoDf/TXe3wAK1uGURaBxa/tHULME9n7/6/JPvwV5T4pyTTYtDbEKb6vfNZAADuixT3xdnrf04ygYcR+vrBexpXbmTq7DnlwscCNApaaD0phsFPzszlA+ohUN9Dq8oBn3XpsPKN2iGsIs8BiMGnp5i5sXSoRsywmUQZnKlcdAmhdFoGCSqPzj+Ov7VhdAMS9JxinfOVo6hT63PYk1K4Ms5RrItYiUhZ1XXx5n8myfPfYbHDPWhMhzKTU6JWjO+ef81WLHRQfuFyBtBwnXzhO6gwDsSaHpluHF0zgngDYJlvAiYtfdGCb7Ha+Le86zPqBpJvF3FvGofyQ09a3Gbc/lW/lWQxLX9Yw8kVY3/VRe2w68qivvQUuF39N9Nn0Y3ul/adG75fRT1r2Xb1qVYNz7X16y5/E2yot8MtUx5YHF75rzzpFgRmsc7zaroXTC3w0MpBkCrprJRdBYA431S5JXDofxKf086YM7wjIWBwg06KYL+LR9t3rRz6pzzeTvc3vxGlbXPA36miZvs9N9AS0xRZxUk3/g8rFq7pq21VFGDkXFlh6Uje/zfWjv9KTj9o6fgUEfoXzoCvtGika2+S/OnbiJXI/IyZ2qJeUcL8wgm3/Ae8Zc0DAZA++Dzj+Z7xXLqHiOvIDS50xVgKcR8HS0dO/QaWs4UiAihnL/5QxKb4u5OibQ+fAl0ZZHXRiOkgHsmYiNysJutn9PYA2ZjoNtEiR8ZIzngH35p+rVuwDDTuPeeWP0f5f1w7mWm1zJ2ULJb0yy+4NX8LC0dyBEh2XpZNKx5umajvIfC3Tsgy4H+SPti/VsKVlLr2e+jKW5j+6ktTXX9j5+vfyvRZvhukRwUpvhx9j6kKfyjqd+hiwV3TNXV0p0Rl/wUdYoKprnHCbQhKTF55Qs+XtcBD1jNwxNgKd9j0wiIiTTKDmg9q7vI2wGMbJPZkOscMc/FoQ56M/yiIUVhJCia/eOFAipyqKekrUG6K2h6LpNcKPKKqadNeXrz9D/8l2i1WHz98qTG8AGNoTAc+5pxgvDNAx5ngQ9DRtXSEi4PsFKswWm0xwSeeYeWIleLTnwrQoZWDFdgtzNmhNA9BrCUEAJI9x9JnGWo+m1KbupIlgC/Rz292QbfOiGZuXUgd6yjQUkyPsXOuK0mBTHx5H70pbt3+W0OBUrp2LXQCzOTdfwM6sHRsCDQZWwRxamYVcUWJlUMBHYl1Xp68Sc5Q8MmL3ycZQZq6CrWi3cdIF24cYo28P+m6UYtGqx0xU9acMQZEvjVGJDJgkKvpGSDa2BD5m6mbrRCPghXEYO6w2NxLT2rGqv0p3CtuU68n4BM69jPxHfuYM6rCFSSXYOOM7UzMdDFLRcvHlDqsb2zVyRoMtkkOMY22nBaDSK761SMiLrDaudksTfViPfDgwk4hS5ib3aI55ZQAFuKlBz1LfG9tjg2iYs0Dfsu+Lf3NKn6acvQlCT7ssGapQU2LyAaxHhoXlybxwXPgRGc6AlkGnXMX3zcl8l08y8O4h5KLwQJ0ZMZz/PafyRkC/IwVo0o6Gtwa9TaMq7AeBv5wLR3GdYS52vLk+Mu1Htx70/SMIsmWeee5ckBRh9Ra6yOkZjcQ35HRt/SscB2FJQSwxSRhppO6+4q03Zd/ImsA95HXatuDpUDUixEsE0SawbMdYiSSTerKHOmSgK/h2wAdT15FTYz8+e8j/ijDuuH+KO6fkgg6H8I4a3kz5gS+ywAcxp7IuxEkS3ZOSpGzXGtkwpxEDqdk5+SksxvfRMgIwbOkB//hfzE/X7SWjwfIsZYz/8omcO/Z48xCm1uRzDFYfwogykW+yR/GThpU3L9u12Dg5nIbvNTPw5qBpAsYAlbABYIPvRBNpVwt8PDGPtwMF12d4cUDuaX3sIeKPGDTagEfRe5wcZ2yIyIzi52YeyxB9DzWoStNQxY/2eT4T6C7GYICl9gFN7JcsH7cx+qi7Ev7XlJA7sYcLegge+WMYNIMIX5GvYMIZuOwWIVRhKuDOfoUoZizWlSARwaAWSx9sRzllcv30sUXuz0y7s4Ng6vCh8meAlriSlOjx5bAsHh3fx0mhpODczUP+i5/+y4PlceX9+OLWL2GCdsVI2mRySlBgqQj6h7qGPSq5cZqla4kraNAimOyXsQAmVHgROwo0N1Pw9oNMrrXbdv9U4Cx0L1gcKW1WfIvv8K3ZF19+JmVzgfGshvTQQCygaLyafL8j7hV4NlnvyO+Ah42HkLrWM2YyovypXwqhonYNpi3/PtUCwMcWPJ3L+9qEu/lUwszBQ+zUNMV3ntsSdDgY6ugGoxvnIl7EQmO3AxRAE38UoBn63sYg6UFxP2PcB+edq85Aa8WsR8rnMM1Wilbkvfe3mGd4BkzV750LR1buFvMaqlr8oj2Da0dB93sFj0ZRZRQcWahY7OowbWFJaUqSLX/HnoelqeLNFp3tffvpm0o8PBC1qZfJdjjCVtvf8WfxBqgtkXJVR5+E7ONgSpFWu13hOWE2zMGhNcRQS9ORok6rGlJ+cw5lmd9boU0g6z4/yodHnaP9vfrUMABRKiyisoJIj377b9YNQI6XEUZ/8AldV+Ystf53b9hCfin5Ggel4XgAzOwhcCaxnKcYh4W+LpbohazPT77nh7vhClR32QIcn4vBLCgt9jYySAoS/AXEdgEQ4HW5wCxTsIJ3munjZOKPmRmFKzAdAjwjDoNbsqVkv2Sfvwrlh7SGLX4GIBqMCK7LFsbJMHq0Xn7r0mmVUc/ukGnbbt3CpSgI8Nylf/y/4RL8OwbVXSNe+jybcQ6GOD86p8Zxz9gwQJ4LANABJFs0DYMdNhJ+f8MvtXUfcD7HibcXeLf9nk/5G/d1wr6AM0cHAAEdptkVQo+joWWAf4WUTRmbp4vLTGgsG/SLOsfFXYB9mdU3k13/xAF+xIWCOmH/8bVQnwSz2GfwzrpM8OjE7ieJn76VxYEAC9kbgs+mlD79o4pAas1Nj5h6fjMu7zTpHmuGafynmUqLJFRmifkOxdwghLLpG/hXfDvYW0GnlgDeIgNhlUq7b9WI+ChSWWFG6yw+ZvWj1JAD3o0LRgWMTGzxXxgwUeKrJ3ums+dZLEJDb9p/YiJ1v9kFX+bEmSg6QYZNt/YRG6eybdqJG03y6XilParW6UAHICijVLOlhbHzZABOnKEmQF5WjrkES0DKf7vjgpY4PH6n9jjhFWUq7BuK3mq/NvzzIF3zPVJOmmOFd7w0iHf7fHlAd/LRwZZZZNUy+UYgYeTzPPL5grRSrzy7jwAY77rNhSALPKdlrNZPk/zm5Npku8EI/3PdNECYsXHbsVJBHtUroS/o56CK0hTGw3eO8aHjsVDsBELgpXVSIMsQNGlO5SP3L7fJgXkD17pAXUwAMe6Vs6sL4Mizt263nGz6fLTEoebIoNn81d/ZgWGqwXLwSAlXKwui6D4yNiTb5kjW+kBSgK5F8KfQk8Id+skCDwE0v0lBeQMLR2arxXqAg93/FyCT31fQHILRI5RQPKtwf8uEOXzTh/v6uaLjBVjjXRxsgNz5pzUHWMaLnybY/3Q5RJzFleiCwH2FsNzBN8KliPmA3dSC0DkjHtpyja3JLG21Tr8s3VcWM2GPUwpC89Y5LtQ20VersHaZdNSfIAcVZZqTbGauDJ3UAs5xo/TLOJWqc5r8TAxwlVaI+BhiswKgVUr0yfF6pA7K9wHNSffGcc4oTZBUCI0BbmWCpsTcZsccl0xfm7avKWxILsQ5v3+UZRQ17fUC4aaXqs97gYo4NhZKtpCW3//94jnyD79QgEu9q9w1W9DKEaGyB//z1g9dVgx6jvO9wjMjAMu/yNnyUPyxi5Ac4vJYDngHV4GLUe6FwcdM5GMF2IeoQcAsXxXCn75xFbCZOeFgrxwtaBT4EUBhwJ9kZfFb1ZnppO12Un4fDr+lre83iUXTFyZCxpk6A6glHbPiTlyV9vk/X+xggRoBG0Q2GRIpFp+OEeFllPBMmW1rCKovm5cvP3nFikQY4pbweq02d/+d+EWNGMpQAdjZ1NWCTre/k8AB6ndZK3kq8RKWPp8AOd6XVu5sJJv3SE0tpDYOYndu+VdAUixeRjTpwuUeYvWy7fyjDyi1JRvNfBOABICKMObAugZ+MwSA6vTyGj5GGAyU5xY/ZRcLyMWJaUvE1reACM5rpgUF1OyxWIBIJRZYwcXqTU+rN7bIbV4wpgPd7oVvMC7bbtbCsgehie82ztM3u0cBIDoX2ANe6IIHgXs7pxSNC7/bnX1OhFU2rWgaO0oeXnQNWUxLchhkIDnbgV4yGZueWsBr3kZe4LYDUBFnTnGB9cMZICpE28FVGRzgoncVCK7gI+6a8QJff84t0Vk37imEbVrbF0r8tfdonJp291RIPaPAGTklD8/+4fFwf6anBk578rJgUbBTixROhqwock2ZdWYWokUN0UKau9vmvwyxvEYJKGAVnBvguzNUdf8ty1aR5DLe27xHKbp/otc4W9dMIILM6Tk7ZWZk+TZkeDjDL4qgIjp3sj0S6tIb5MiuPN5XlzDBkyJctWxQZgl2F05UzEy3C3shqu7Kf/yp/C7awEqsgbi1PafO6SAQZSWxTfNNKM4mCX8o96MY6UQ0dKhZYC6HAE64F9BRzKDgq54TlgxrHMCZf3t8qglrF2d6oPfho/3MQNrmVMm/ijfKusU9Lpa5mA9Acf2yQRmbyyB3LcM9nNrcmV3P8AtsrYWsTqSOuDCAL516wCQRhT7S6iKmmWkFK+zOaiZPoAR56ygJwJO3R+pbXdGAUWpoGGbGMuPAI+PB4fBZ/LdVZq6do/rmAGjDNUz4egLlNXRG8hkA1eHgQ7lppZhLcbGePjepMBo77M2snhoutOUpz88NoLhRqe5O9fVd90OrYOi1piAr+dJneRw0ZUBp2676wQdconeZz3/7HU3sWPOdSAWQTYLvJtxMw1B2nZ3FAhhjZk6MyBP4W1anqt6Zwo8M0Eg6cTv/49uXMefAnSEe2LAIwo6CrB6GvnpX+Abs5msoqdQtwiO7pSoJTPgGlf52gnm9eRJ/Zvy0oeJY1aQHXZXnk7eLMwlT/JTVpOsLIEVrjqrmluRZ66G+XECs3ROwGn6Ud85wMNzrPlh+u3WZ+Jf/pMMF65lxVQD/9p25xTICaRMKGZ39hvVdI3pMMDS0uLd8U0Jvsxe4lp5889JDuiIsdVKMOBJdQkauOeOnu+6pas1hWu6PsYiZyqjQv8qbuUBt4qvVRgC+zOuf8hDaTr/gpydh69WWSA+x2r3dgEAjX9b68ggIR8F7ohTsrBYxLtg6evAn1l34RAWOvdX6vwSqcRa8Sbk2RZ41A3Pjf92AvDTIrEOb5nF8o13F15XbbpP9tGbByRm6NoTAAsi1KcbgO71Y/ZYU3YPaQJfs1l0+xlrpPVYa/JV2iCevHANL+mFXR16s2UEsWYfUVNds0OaxrdQIB5rRxXyJ3z2fJVMTKK6i1T85iQ+5fwt4JqTXUWhyVx3TtvugAJG4eMbdst49105e/+3KKyVsVKyuQ9FpB4ShNehAqkxHSm1OsLSUfF4AgDZXeWvJesjGwP+g8I4XxHeWsacJEXrf6+42BW+8mrBS6BfIAJ/FNy4BS/taFlB0O4zsYASyVOA7RwrPidqfytXkOkKV2TVGLTZwd1k3RLjO1wxcq3YhI5A1EldMk/fFKZ8zdYV1+y/R/v3DVBAPuuCwFNcgmefjOnYIKuDMbKxsIp6Fm6aZkEwNlCL/YIGWDo8RZl2gJxzgfX58IxiTscE/hGADy9rmS3adaRc99SKN+cLMAleK65/0L38VIfAQe55CK8Zt6Fl+RmWZgMJ5dtLbNaN/bBYn1a6juXTy51sYw8i7kIQrAuKsw+oCuuBUJW1Y3E/qw1rAWnbrVNAObRObY3PhBdsELqg5WyYVaLqoWQXEzTkj4iF47NDqJ7eYtGlrvbzsKa1Tfeer4gt4u/LUrH+Ko2Ah5fwwqYg6gvXuvCtwlTefyvNQ1o1RP5+LoS8q1cJ4Lu+pP6zmv/txDbQRlO5SN/3tt0BBVgdxg6YCKQMX/AZxcGs3nneWPFPkLHSQbmmz6kf8OQFQovAtAFNFpAXNlH8f9ulEt/eUZioNVvfrMge8AB9X2sF0fRo2u4WwGP/dCqZXMLqp10bhq0CH17iDP+/GQ8TzwFgpGamrqQ16Qs8aLGtOfEeZ1qC9v6Vv9nbA2EemRFxRPvPbVIgQId8yphkulnIZgm3YPemus7ct6djACnpsgaSZroFBzxUsZBKEdgnyc87x8kHAIcuFgP4EHt33sQ5O8wh5ezh2QGWkOkITp225hHgeeCqlGyX3IqrLBw6T6nxscteRVjnBB3RzHZhjrvb7gSbPcbGjQbYGu/RtlungO5e9dxHSga4l8p1QIcPyZkAzELWKm8dXTWm/KKLTl0tIBnWtHAsATzFAsZtDpofdddpDDy8iH6cRYEHN22i450I+urDOhIrgKJjWjwMrrLDw7s5+PE1N1k8RRR4MDddXI9r9vs0B1+h/eU6FHCFmG9+xcrxOckwxUadDuiORo7LpXPUuKDMeIcaHSk7y/Zmr/TfTz4P9wqK/gOWjvesGL9g6dB0rWn6PpoKxQluWvgBwAO8HX5zu2chPVG+Qrx/wqUGmVLd1JTFSfqfU9Mjx3wZGS90JEzaghE28srWqXK6hHtmVT/7labhfZBkLO5pBkcOv2YWBrNuh0W0tIB0+TZW9JTrT91zBUUcZccrei5XhssYmaabw9pCgo5PyiFlm3PhHpp8q0w0nfww5s5x8KtFIFewUmuxk2cvyUetbrhPIj3cDe72cEWRjRVBpvZDGlHTxGDcfPMj1U0BzCQbaB1q2+1RoAC2DAcBod+weBgzNMzLUPc0sqVLIHWvGVdmCBqfphFgj8VkyLwGvDulHMSSJha47tYlk6tDthMvO7K5uRmTqoOCmGS3wwZ75AQyE/nvHR4ln3fY6VHkzITYYqIeQcwGfSxvX/nu3Noj52ufYjkZRW6mF+aTbzznVet67BhUQ80Fc+2boElrPszNzSVLS/MRNKub56pNet5GazqeTe9d+ZwElE5Qr6Pz7q+RtRED6WAowBFiZ6TJnrl/BYo1QxjnFX31OT1FS9g+SP4zwW3vKEC2hSNS0OGku+8WyoWZ6jP9himyQ7GoeSw3q8QrFemL/dCDJ/a5p3j+7N8IlMWtSDxBRo2R0uqhEM8IPD2gzkmODz4DZOUGmv5gu5Nx/8Fn9PT7fE43fovdZt/9jUwN5p8KtdsEf5kb+5E6e0Km0tJL9jkxq+WSf6JYIWoVOwAkfybD4D1xTVvwscr+HgwdZRfO3505msx3eJh3mJenKP64DLCYZ3Em3w6y2GVEUe/iepoAfCVf3wGIcUMZ+9Kd2xlxSofQLkvYSsA9jJab9/Y+x/2cMA0+1D2ni+gM5T+X7ScTuzpnuxahAdcV4KlT1C07OztYdMOhO+Doy18bk+Gi7AMulk/wmRmiysYfacpVXeHT6MuZhdmIW0vzw2T3825cu4n+s6T+FHzROTpM9oj1zA8G679B9LzSUovFX9TOsHDXHPfydgYEDnxYjtemoQdVX30U/PJvJmlGoODA87qUVayX5kGVQD/JRW5ewxiSr8QEiMBmGKgoBlWhE7qXbd+uSYEceocvmNVPsv6BABvS79yXRcFkM8uDFX9iiWaqkmYWWqoIoPToMAczkTcBfb8Rqf0LE+vjHpVx+e6+LB3Rh55/yufcBhyQHM5qQabiE/1dI399wQnMpLggyJ0Plqkm9bBDRcwJdgc1viMz8NbS1PIxKYqptEOxpRQVyzDvR0n1CiXX8zjtx+tSQJoDMtxdtrPxHt4lVdQsjrLh7nI3WXdFtoR/hovFvU36QUdYFJAvmqVdfaoQftne5/0Qd0vhTi4veZ/vwWM8gCvlj91uujiSn5/AtyYJ9Nf68Hk7ulyYs9k+FVvNPjsgM8tXhgR3jhv3Af06boLnNgfwrzsyGyzdtpulACwbge+6fL/BWzsCGHivakE2TE/2P1nwMeO5b/wO8ix4l09xbS8mo1Q0gVSHB4uMlsAARWBpxaFDv7oS8NCSINMuTp5FBLVVIKPYyIDbSDxlKXQLn7n+IKOs9VnlBigOaYKO8/xgDq8yYQpIjCH5dfcgCom9mSDbBURU3nvILdqfr0ABQUeqwMZM3dl4hxBi23Bz/sumwrWU9Is/Ut8CwRVbw19mMcfMFeM6rpW/bO2x8/B+8gngGP7pEsSU13wA71pltpC9J9kh7+6PMJv808pC8poV5CrZL7NWbuppmqDDisF5E66qpynW9PP/Zl8X6nnwt7EebrmeW0CNomopFV3NjGldLj1EvMGPAToI8k333bjwN+qq9MR2IM9yqs/mvyPm5vW/RCn0hFiGqviFiP0RcGDp+OvmXgAPFYOuZHnkobWwegA+0u4UtWDZP60uJC/nZqqztNiNOeasrpSXzGFSaROCcNMy+JbaPKnFxWYBylQfjpTwKALYAo+bHHt1l00Ly3sWZu9xs8QmcOUPxc/n/zbRk+cH8wHvYLhVdo4n0N8s/uDpMptlwC3idA0NbgTnhnBRWoPPfaKv9za1ny9rhZrDXdm5wrN+hhGti0w6V6eahAY1OxKCGyJO0sElHrbwg14U1r3nl7+Yp/6M1DDbV9wzTnBvVVpKytt6PQNvohgUAYCWFI4y2KKett0cBQzMs5w0JZaj0qHVORW4rniMU2DVmD8FePhiX5PzXVm7T+B4CR6Nyt7apRAOQaQ/7wA6sHTsMrZawh5iEwu52vD5BEeCbTlLPrRqrhsW8vbd8oG7yRWz8S3Bo/ZL/ziAI6OEupUgDTrt7BInoyXELIGlLg0fIgFG/JlSzMKppeuJrUnNNsKdIIiOdNLu9vH5yz+TxYKype5M4g60xj10m2NYLHCI5cC68fcdLHQsdNw+Iqyu5YEP7N3nVqG4oj0FNLuitQrqGfz7VIsdNRhc2J1LSawXke4uEGMBoSk92ScO5hQLnW5oQbRznt2ZjfWIAmvO+4nvFYgfGAlG8nEcJ2MwdpA5n+ExdZ+ZKCFLenqkBcKxs46VhQ9tXwEqlkQvdWR82fePu2YLarYBopGmK/AIY0DfgX1/Wk5gkWmxgu6fFQvw9wVrb9/xdX8WT1t3RN9vdtQbWqrcwM59UrCKQKa+A3v+1C+1zbHGhUi8sJLwXV0Txa3gc/xnVpYRDMUK4yM1sl119J8Z6UBMrq8gw6dkVMxPWERnAlfQ+ZSqu1X7W0MKpJhaO1g5OpiqEy0fJVBQ+OAuyN3N0jREzbBkA/Q3QYcg8SuM/o5KjrpYDAzWvfIQV4z9zy/LRqYLgPtvuIYUEAvwmSWrBb1MiwsthDjgw03I3J8mYQWZWZAJ8zX1I1nSYNIms6LDqtFdRN23pm03TwFdXB13EcY9mOtuEXQwdmYU5cYiubqXZwEdsatr3yMIOtwCYh2+/cvmfvIPQLOWjocMOnq74NzaJxzhA1ZFAwh1b/7L2mLyGhlr8af+MgQ58SCxgSMxVxNmtwA28gAg8CzX0uo5gfVOF2FGzZOw3PXesP38QxSwfIC6dZ24MrOkTM2uypIKXcwiW9DxL6vIEMbmJNsNXrVy+CDwoaFAmevyaZ2iZPJ1kzTaaW64YjkNXpbWuC7okDhXBh6epMtkhdoZgg/rLuzUx9iEVcS9NYypjYAb+bcfPXjhbtP/OIswX6GE9evF2TDnWEteyGERFX2XvaerAAQzCoNPLD21yviKfQsYAP5v2w9RQB85ef4o0HSD1NnYhwX7rYMIAyasGhXgCSvG7MnrYl8HwUi3lRNA0PgNJn8Piv8HbhbdKzJ8lQutPPehvcNq8NoZ/bCiaZo8J8jMgL0XKSmLZLX0tqgKOaHlg425XpLhI+AwNsadQLlQxBkI5NgHIxSfF7e1DFvQ4Uf/7dJTwJy4QtfVdVjE2cSlAcc529xnT37C3YKlAyDSLyocEas5rqOsP2CZ07IqcDbtsDtaP/qUt36+zxkF+Ag0jQBJvrAStWbyMNPz2RYLPN5z+dj4I2iTszFecnqIlQ7AgatK4BF7M+lmZaPHlJiYsIRo9bxEPa/atqYUCJnAwdYz+qouYyGtJVjd1t8UEbo8rLD8liDR3y3NRX2sD/CnVZ4FyoPUcrjguK6LQOMjDVVoIoPVqep8y/NfN5ul7MdFSVl+O+Rd89wTHmAHgkwfiHyqg17Kyxg7HmlAZp9QCRI7ZgTolb/3vxeV0Yp7rIKuFnlZEMeYkv/Md+NaVasNTfgfGCwnVBQVA7zU5q/337j9u5ICATo0s2rlsGbHNuZq/b+CDlPqzMpg87f89f8oAs4EHX3K06mjCfC3PSwdAI5NgKgTQN4YtaY+0/KhmfLnnb3oqht3afIshfeFPlkLwvRi9wL5x39AG9MaQd+W7tZttcUuvQScJmYQ9AC2C9do/7geBeDbDhaP4NuoN8Nnm7Ed7lFivQ6LuVVU4yzF/T6C+e+4BH8mkDR2LoN6jgAAQABJREFU7oRvXeyMWuOxmXNsY4Fi0sUpyFK2LiBXL6xenbvwocGjGbsqy+CWVE/lUVMFnPvU80gXkQNYkHRl4XS84J4aNdo8hOeVo3SN6WJ5L8jFGmxsR3+L4XHxD+jQI/CH5fnkBa4z3cBrLNZdnJ+iZy2yWdXUxRsc4/gbviAorT7y+9kea1CpVZzVyeW+a9+PuNqnawEP0Y7MaryGO8SKhDQF1WUj2DFTgzLSX8VidQjLFaTIKvYc4B4WKhFQa/L8hmlINOc+XP0xAeYjbx5jLWHDsJVp0n4R8Pqj5qGahKtUClej16M8Wn+4boEO5tb0AJ8vtSgiSFIlqYvFtFmDSsnQyN0uHLr3NrNBtHbobtNCZkVSqz3W8UDv+Q/xs3rHFYMljN3x9vXCDEHXTEjmRX86d0q2gIF42SoxH64kZ7AQHZFia1VTa0kQrGuxsQTTdm5pBIP82vbjFBAsE5eUw7Md63YE36Ikjd8w4BcrxynWKOtXuBurMqK3WQo9gu8IKP5IPNJnVpMK6lEEHWW/BB9mM3zZzyNB4M0ifIsi0VVofYZoajZeGXM5nXgJcANwfP61cLdEQTwAMpsf5lhAOtD0TPCh1bMnLqa8X/vejAKOS2xLj4y08u1nQMcmFqqq9FnlizGWLwAZWjrekN5vRidSOnTmEwCJli3sfJVNa92OQccIsSalCwSlGhss0LmMp2MR8PGjFo+LGqLyMS9/6UkzCNt5TAv6fBYBHoWx7vKxflMuDso9DVzpXsZx389117snENXUL83ZEdSCUH9K0ZK387PJCwitmam/haAQnDB4f0NQ/JUgMJXdsPv1X6f9u48CrHBSFGS+S9VCqhsG6EDpJmRimDqbYJJNTLETdPS5G7xSscoiLYzJ5Ipxn3NHIaajjwqX/rQPW/RJ99FXAIjR4ZX7FwnETM+ERunKi8hiiQBGAF0KbTtHrCb1oaMgpW3bbogC1hpAQSbW7MC91Yl9hKCvm8BRWTcHdCSzKEysdpHO3HdbFzbbji9uFuPH5N1x4FsBvz7+DZTPZ6yPLuZcGPS3KIhnNd455jaLipjr8rFa0oBdLSAETUvfXBDdtmtRQHI6JuqqX7B0qLfc68eAUnVaf1MnvpqfTt4uzoVOjEJegAOtEGtk2a12g4b7zyv/9oqOtwv18vqlji6P6X0PDwL/LANOFwA86mc3xPyRdll7N7iaCAiskczyAFo9rM9hOfW6Zsd8VK0i0rK2oxDQPWF8lQVvvL7I/CXA4znEneEBtGD0WjHK6+uz+rhviVlKGLPC1sRfYbGqe9z2tx4KWPExPSAbA/CRklIXu1U6mqzkdbOEAHf/EbfZZkz6m0y+yZho7SjKSQM8HawRb/JxmEYR4AIPA7WOqoCDNDHTJapDEs9huiZB0IUAZwVN3IHFrbQmuTFX226GAu5CK6ALUKc1yRLgDpoWJd0IZBPl1JmJNOYKvnXB4l5QXxhbV4hFHYWbebb7vIpzz77tody+CDyQk1p2LjXlq3N6lrltejxgTetdSHKUVoo1SZnQIWOo495NbbsWBQQduvM2cBsYAKy1o6xnVCUm3Zjt+exMLMDViQIOdbKWkEX0sTvB1+ljY0m02jkVvL78UNe0dqjjl3jNci/vc8E1V3fygN/q0cKAk/xa9WLwpg9jlOu1fDYDrs8lyRbA98h1e7fbnQF8WLjpOXnoptpy+8pmUTPN4BZdcbWyidAo85QrT2i/rKWAPlzdK67Io5Jh9+gcAZ4vmArKi91WBzVBn9kr7jR7nV0VB133oXxvKppWDwMQjwG5AxtlpnMC8iKQkc9l61AJ2EJNOTEgQevyh/b9xyhg7AE01Z1Vlq2PC2LxiDorsdmZirS6CZi1dLhduPtLjVuzEJ6b260DrKytNLBZGJD9hTLBWuc73+aWoIe24XZpgcdA8g37wS1EtD6FRZjPWoQrYGBcRoWvHnxKDaFnuFT8XLYIgUBvCkY0DNxUMwV7BY+D7h11/k1c+vtTX+MpRUL6fJZBCgS6XrA+XONy0SHRlAhOf7l+x14Xji4XN6gz9kNriOiriggiOgduDwSpyUokeWweOt/VTK/rPPLjOIe6E6kma0omh0mVcQDyxqrdAD0LCmWujPpaiaw16W1h2jX4qcqk23fayP3p6tHCYmZVaZ4ftIJINfEjvIv6B3yWhrTMlfjBXgTwnW/MNXJUeIAP7G6ruLEMis75HE2aGxA9R2wSG53luIz7mzLCFaFj6ZhunFjnYPyQh24jN7iznoMWD/vsnO1vscBgjhvPlbrAKOd/0JfYL9JtU3dlbtuVKFDqIwHgJjoqLMJd63zFMISlger3xOaQXdLdK0VQUDYX6epMwxDUoerLQsKUR1z9XY/CFHUwTNawREV/6vXVr1ic8f2pr3EFO621YwWfkiDAKdzr+rjqJT1XYnktzUmm1Pp32YoKbbpcJsiqmYqoXv1Ng5pFWL6J6FmxHILoDU5t29UpoJUjdedKgszOYxAYozBZ4yM3I6Cq6qbUVik7sXR37TsGV7/9gz/DPu4AcLdRUIKsopR/xWMLzgBqph+fB5AqHLQoAews6d27f0jFFdqvrkIB3V4lXaVxKSsiKBrQoTKtCOQtFy6OpYrZsR3lQOhBJNPt7bzUjWQ8ga6kSgmJm9DaHm72mLMgjEh/Lwp9o5IxsqHXEjrofu33lylgoKdJF1/QUVo8Ivvz8mHxjcYNy1iYUarrw/pBqMzz5mctIAIPAYhZKJamuG5TH1MNJPRxLPa59k1ZUn4IeNgnq5gGMTD7mIlyHhl9jd5qKtJHZQCLrhQtKr2YTRJ6jIR9ToDpS2M9OC4I1DsC3XsbsbuDnV8TvyvuNtbjioMiUOMV6XKsHLNSMRIsmWNyNWYhYSdaN+hzz4b+pvXW4nLWcDETKbKaKiVb/5mj9XcUmEJ4GEnuPh4Kj0pFpQC3SJjxMO6LYRaAfBvAjlW5BcVYRZq+PNBsMlqkuZ+nLfnW2CSUoimfkars05gmCr8aVBoptBWWOm0busyMgTCLRb4dx0WLfTqinwdYOwQf8m/VwiD41IKABo/Lv8Qnxf4sgjnkQm41U90uLd9eid+VEVFLw/gOLGum0dbFIrogt26HL1P31Y+9sRYu/NW/xV4qJn9oDFBrXq/pVnmClcPM0Ijv4J69oQ/Xu2px1mVtcYWraYEwldYH+wmf06sZ02txf1SAgCaXlZDWgDd9tgwq7T9PMs6Buk0DM6rXtN5BtzNiV8W3jSnbFCVNWf0puP3Xb//uo4DChYBHTdYRxa5ilOBT3UqbUwgiP1cADyeWgb7Wu6DeFth5cDW9vruO1J+aqLV6WORuVwGCENfqcalp1kd4m6aYKMgN1JNuxnhorlaAm0HUrax56fz2i+YUkG91r5DNUgAPQIhATzcLmRoxBo5DBd9qCXAMd7B2HPCuS4KvxrIJPkzj3KZKpvPUeIP+Jt1ygXJU110o3slr0OIR9Wes8WEgb8u3/aSr/du4Gi3yn7F26IZ2cXaZ+sUlBBjuQfYKF8sLKpVq0ahqHqfuVIeqS9Wp120u8F+RXfqWDJoobcF1fzSbpXyWHwIedsmYDN0iLyHGq7mp83iP6/Q3glggmP4rfVTqN1/9TbCzxjHPIMgq6M/iTT5Hf1NWFObEnCpwpI4BPiwy5ndjKkf6SfBDf8cKRgFuwSCLMJEZEBYQrB0di2Jh7cjD51tYnfpvFi4IQJ/V9/xc5T/uP2dU/xZ8aOnYDuBhCeIKEQJPWy+iY6lu3VOmJsq31kmBvpqtY9M998Txu7ZdjwLSTtCha9D4DivuMj4Bjt0t2VW7YFlrB2PS37TUBYDE4nGICSDkBeePW7NHvgTJxiiZzmnfLzV4NLJbTJ+fEzTzsu6JdHbjOCrDmuFiXRpN822rp4AUsgCh1rTP6CV1057rO3hMOdLfDDcQBJjOqpvlCeENuln6W2n5D+CBflwhgP06wKMAL3of2MMSnf5qfipcO6bV9lpY+u9/lb8vz7qrnN09VtOOBBGJPeWlWeY6HTZAVdAhmJiqcSYJMjQ1WUHtxdwsucwOxGXgUXZFq8cX/Gem10aAowM8rkuYstM38K5g6Zifb8lpdqhMrTqrsHHliLsgpQiTijRaBfArJherR0y5J48g+MyMHYMRd0mBUFldbs7cDoG4Bf3C7WKWAEIo0milM0GmEU8jndt2LQoYhxTWOWgZOwFrpevybQ7gCGuTfBug47LcUAHsoIQFkZWWq2s91cM9ibjGsHZo4bHvg1rMdeZ81KShXk/Q1DgarXQsSqxJY2n1ttVTwD1Vygql6iQLKurOG9Smka2r+FDc2M+wBq0dVQvt8nwX8LpjYgFfoxfL4/vfBRgmjDwnjvIVZpan6Nnr6PP+6/b+fSPAozADUW2UB3wGcFgDhEisqzTRmlYOibUcBVAGP5rHSlyDTF8tTMc2z/qzBrl49Jttgy43eH0FgFgyuKoi3FWe91Eci7B2a+zYFlvhDYCIVroM9JWXcQoVBCHTP+JqDhgAIEzFEeP1VWFdw90Cn1WuHKO7zAtW2jnm/oiRCeCGE0rFKK1xt0SJby1NbbseBcjCkoYdClyl1kXh7wIws0rH4iHgC2vHAP+3AX/uB7WLta4q5uF6D/VwzxJc2VdrR9QBD/ceSmcFbtAvQBt94tyIAdMd6yKlBcxDB9qkhy3QXqmLtDRVzXY1qK9ZkIAg4Dm60RITAoM69SpIWMLaYT0Pg00H6cVBD6rFRKvKGqETptFqbTGs4ibbjWiD8pl84JezE7zIcpE6DZuE0XA0QwcFHVGJrWTsmmvMQZzXFBR7E7Eexe6gVUTWxG98gcGlUQM/slwGRHDX3O+x/RSuFlNpNVuXoMOVvMrSioa8ercP76dPBK8hmMwOqLYA9J8x2n8rtA8Q4IcqLPo8sMHbqaBNs385eTg+UpXNEDAFtK2LMJB8Q3+A/gnuldhVFUtdmSkUAZG4t6R9fB5wIdf8Blwe8noMFg8XZhH8bYxBDdvibyncVLqqrFDcteopJwLghWXpMUC1AYzT4Gt5ywzLj9SH+UixsD0+S7FBbuhIuEBe6PJ4ARCoy+Isbz/J8epQ4zxMvtA6UqUXy+P732dBBerwV+rxrsWkuTbvv1r13zcCPLy08tMcX60e4W7hXbTVmw5b/QjoMX5wAzhrd2i50JTUxEJkBK+ZNBZSeUKGS10hMwf2gEHWrPWpG8yjuasO4Q963sfyvbn5Vi1VIRYgxGlDIyAvM7bDgLOK4DwP0WIr2NCMK53HMSvAfva2AFqYTI31qOtvBNkS5BirboW5ApxXR5BnLI1Ks1059pL2Sp/DemR8x9Fh0DROhr4RFG1wqbQvAV/FlR0763Y4jlU+94pTRvor3c7RXyweLse6s/xSn7RyWF7eYoGx87JHyLtaRrHQWVBs4MmXrvb4vlAeSmddz8Z2fMaVt8fnQaBDHRhZo+i4pwIJLPxmmgxrnue29YYjLGClckFf55oprxexJJy3wnmGL6jL9SwMv2N5hebvk5ub7GPQoK2uUvhoSJMHDarL9w+Tr6dUD832qVh5MnS1ayDqHBBoCkV3erCf7OYnjYJYnCD6y5AQyQpFTtYg8Gk+QThCleGqUITboPotTjmcIKMAs6HI8GT6JJk5zJIJmCHlOsPaGcxycHCQbLMZXYfzjxisq7Ym9LzqNR3LpuPZ6NqkIa4skIVBZPMJDFyuZSYAiJPz7Oy5tJJ0nrDp2fJF3hB02HYnMXfvunMlAmlgvHYcOhb/KMCPzGw5YI+gHTK8Ksqfx7jnh8nZt5XklFLUZ0zykuOcB50OefPwVGcZ+vbRdRCRbnzcudFI8OeA58w7gOUNNs2ClnxCLxYU7qA0J6ijMkEVzokVytYPkGmfPnxJ9hjDQ9wtg11mg0Zj9L5X8R0BOvaOjpKFV6vJ6hIWDVq/wsk7zOVt+HYevsXFWhpHVFizmPZTZEUq31KcrbeNC38ah2HszwGVXtUBw5p0ncA6PDMzkywtLSWLVNzeRh8enR0mm8iALXwuXHJgm0XOviSU4C3j8Wp1ie1CZpAPabLVQM5Hph3xIzPo1HnnQQO9JsgwvvIVG8/99HSFzedmA3gol67T6sb96hqz5gl8QK0cSxDsKRaI5ygsi4ANa9aVNy02iqLQ+aaRs9KjqNZGCVnMUO7KV5qGqu6pdcNI4m2sHu6/sOHmSF2hVHX8oO/y/GGmhd68skBou/IO+2upHruLGgRP1cZaQTMGxnWTzG+9WOnuKv8xNPspSw1axUgDY19i7xZ95j0Wo7Aq4RqIUtR1EqmPkDc/7n03uKE/7/Q5DXo0Tgbeu9CUR7oKa1aOC4uLAA7zM1jh959/4WLj8Uc5V6WU3bXPg2ZrVHrti+vy+NyAXmle0e503Cvu3/SrW3vOLguaquyW9V/2j2LzQXVRncVdXfYMHeqmqPNYOwR4jkuT51SHqov1ICzB84KKYU03jhuxPqM0hpminn9d0OG96p5z+NMMe9qK3yPWg1TX53TAjJdhTey80AUfTVws/dfTxfOEgdE85K65w/xZFm35xBbXn/Cx6ce9etMgyQS9+okjeAZCBbTcK4Bl/zBVM2aX10XFN+UYSCNBfUGxEez+FR7ZvmqmD+Fdc17MCATDpTgDT9RfrhD3c9uuR4GexcQFBSrYEOjxqnO1FLzb5flHMQzOZ0EW/NuVar3z/fsgFPRz19pyfvtb8HMwPYDlUdDrO0XqPkmLgArOdV5aTD4fHpFdeRjF2urO9TeLaAo6nsWmqEHlYadc+N0zdLXochm+/C/u94r7veB+umpuswH9b76JlCyjLnJaJP1n87gTdRwG+UunYWT3XtHqcZ3oWYNpjO9YwgzmRjbeX1/aoPudgDQto748dZy8JctFbHS14EcmqWTjn8egH/qFSfRdQQUJLgj2HlYqBdeg33sOHbOPw3sc1lWVYH+LrxDevFf93H94+3cNBZiYJQ/2HxX82/9lz98XznNMhp3Qc+4ofsS4Qxf5L/jPf+JDZVcKvrzsH4jzofngMysvN1JfRt/kK/9rIPhLcOax7j6r/fcz1o4NrB5uIzGoaa1w8W7Wplme7k+mjrtqm2QVv0AgZOweX3O69zMXRN25hoVlFeBhhulttlu5uoEsAgn9RbpcYle7GptNJ82COIsQ+wrJMOd0Ec2ZQuT5qwCeVcBOXd5xFLbCf/sNV0swAr4wK5qWjHJ+4ZoPMlMT5qu5xMj+FMIHF0xaM3mcpIUQcoINnmQjS4SqB6ebweZ0vOh71UEFqAgXFnQJWpaHSSYmfBGwW3eF8oT2fSAFHIMqEqowhszdUg40ifcaeP8R+sGFhcon3rtztZJ29in8iBc7JwwpV/aXIcnFY0f5L6dnl3341ER1FvPbIOVNYjs+4d5f5z0KtdXITnWXm6+qy9Sdc1gtmgSH9tPWc2ILEhb0k1r6BjSjzMyAMVHjCZksfm7imhlwuUZf34rFI4KN6KipsZpuDrEwvNs7KgJPeSwHzyZzCxpmOVZflC/PvXrLA7BoUno+PxmbdR1mxG8w4Lbu7c4vK/Z0X4JNrB6/7R6GhcSgIQFJE5dAoTS6173O454/ycP/YAyC0eylMPaJDdbTp8s/lR0IencllzHROL9iml7HqVV5gwf6pV3uIL1l4W73q59UoQPQNaajDHyMAznJzfZ86QoYc9aqps0NfBsuLOMQePWuwZ231qLRldW1WQ68m+Mn/Qu+75cgA08b2R907UV/+dfolqL3/d2Rb6UfQab9c59Fn6B5sHrrv9bo/R2gg8cu9dewHigdTbbYIb1b/ScAWSeNVn1YlfVWznezOg1TeMErioVdSycWVcXdwsS9zwiBDB2pDC6fX972nupdA1dfL8xG5kwR21E+zbBeXu/3WwEePooIWlPRH4mQ7aC89iC6qUOCgXIai8iMzygCSy29fj1kJwG1Phgc84YIYge4qCCZVg6wz+cz7JLr+QvAw+cwyOeYSdXE5RL+UM4JoVR2xouOWUtN9WTswiceLNrtoNYO0+d4VVUqlGUlizwg6DAX/XbZ+GEQXn4QSMtP9T1GyCu8Lbh0PhskGDCNzIt48blt16OAKtRUZV8X4miY46n74kD7c+lbcQuGL9L55dthAKXi9JH7quiv8xTg4Fz1i4pWALdi3vfSTxrH7tQCPT9XnDsOX0mWUtxfAl4VHVSXWLPjayQyWNuHQpYscKtAR3m6oQa6Rn5amAMIzARo8LcBQ1KeVvnutVyML06e4g3QckJGDg9R5nw6TtP8s8L9/mllAV09S5Yn22Fc52aVTzD4y1sDHt7S4iXPQFJ2dPOYvRGY+BvEVBjN66BYb34F34ompXlWefq1rsu0ThbPnydlyXodZq0IQMxgKTNXStcIjxHNwNIT0mhDQcpUXKN6DV8cf+FfrjEohuTCcaP8h4Ph6rtPgDvpsuPjpBNl1Ksp5qnS1YwlBVohzMppO8pEGfzsQgX9qoLp2rnLKij2vzGDxc/dFvthuHlcWRG2/KF9vxIFDH5MpmdiL5zzkv5eAXmQW1CMCrHSfZCskW8dQ4XjoGOu9EAP/GDBMpZ9wJZ5PIPtHamaU55l7heZbmXHOMf9m5AT40yxc+nVkCnUJwKPY16npLWabh/B5yXZ+t7VX9bqiJ3X0ZtPZ2ciOaNWlvRdo/dPWDhxROYBhG7ythqghy94Dn8zgFT9+4ZEkDfc7xm6s0kySO89rvv5VoGHiEtiGufxr6sL4W/6eWePzdqOCbbJABuWgiUOBDuQRGg4ngP7yuUCIT7DT/Vncp+93i+7BwF2SrDRf7KM4OuUZ9Wny5gMbSpez/HYcQYfiiG3wLb+QVg+SsqE4jxAiPOqEeBOGM12poW5eqTcyli30sUo2KoNkoZ/cva2sBz9+Xbt0EclmbvxHvU9KADww/NhrIld0zlTPvPZRWhZbGYWUtbJivB336GMwmKROTTgGoUi7nSF/ndgOODwkf+6WLRpcS7SJwfKYSzCWezbdMi8705mNZgLC2SEC5QOn8e1uXDF3tPIKi4NZLmoa9XVKeXCt4o+gl1dIr/HQ/BHdJeuFv++XujB9zs4turWp+xUu38ySW0t+BlLgDL5Kdf/A1YOK6KaCCLo0OJ1F+1WgYdd0Oysuce0ICw6tDwAyB5FvsKXBdR+BvhwhfGjLVbYEM+MmreLRf2IXYJIRZyWBD6BcXpb71/BFL1f9B7Y99nLcEnKKRProHYd0xZmasbGCqXpJNgZBg57oW6WboXNcLcM6L+Txvzz8FNSbG3cmwrLSa5fdSA7B/NAP6qT5pZH12cuXVmVdHATduaW2A8D4OGqvW3XowDAw/1E0hmKWVnWH0CHbzDARvAtyjNqTjgWFfN3kvGwjkHwLRbTcW/yqqDDRaLyemADMCfsf5PxijL0nsjxKXWbopopcuLCAmXghUbzB9lFMGGJ+SZcoU5RTwxryknp7yZwbxdn42WAp+NRMxrDLnv+uxuoWt3bxbL61/hGeduaHW/m2JMFfekeMD8Kcs5v2ODDnUg3LREBMjAdzSMUDiCu+1kEk7Pys1x6kxr0DfoTAzXN9URwxpNYJOwQlPeVzBXLd99Ioz9h8eC9DsXeyL3u8SLGssRKRoEC8IigR+CyQjs/2EVx7tYKcCOjF0Hapjp/To1nGO8mPxuvNI/5sjL9LSY+NLCwlfuxuF27dWQ4z9VibNdOZc0E4BFul/Em1631Llwt0LEzvwz4wHWlxQ6wESBPpXkM7R0Dm2PSp2y1Vi0gtIo0RFdLTdRMXG0k/4l5ily2v4Kugc0FxyG042WMV9BNkGdcknvg4N4aa+ABX4R1PObxzfFFWCTYi+U1i3OBhwDEMISbAB2OpZmiT5DDM1j0nzJcxjNaFXXWRSHjLcBRR99luxPgoSVCcDxJR10Bn2VT5yVnd3ZOQVo1zH4NaqgAJkF07t/ykrKvu/i2dli57PF+E03cKAMWCPImrvgwrxHWnEl95Vo8MKW6hTuKMqwcpcUj9mcoIuL7BXikOAM6FgNNP8w+3uRThYXHlTJCw3yKqhYmave/0eKhqypXAbpqBNiVO9YixDVft+16FIgAR3ehxerRYUOz2JHWQF4DenUVHLIXTvyNPMDS1N+UH3PQX6uHqf78Gfik/7hx+dt5GkGIyOZKF2EoWmgg2GAPnNyXrhYIo0yIYOjpYg+cceZbF5lauQv3+k2tYllvoPifUj/DzJKId0Re3iQOEFiCKWNx73b3Nl1ipd6Vv9XRd9nuBHiUHdLf5ODZ6bKjpU+wCD4sj7yZ9xlg3HMCZ7aPT5L3FG65qWbJdNnOV7V6uak73e91opy3ZmrAR4Iy7Lgp3JkBkQidcBW4cjwprB4e19ccY4X3Amj7tvPC+259L3+6soj+IkiqLR7dbKBTVt8K7xOUIObrVOEdoAPAMcUL64eg725Fwb2Q7FZuqouQBPsIMM3diVaLh64reDeD5pmg2X103HVZgWv2Vk8L0zcCOmKT/J3mW1f/9hw5Hh+VZvOQYJY+Dqx/pEsQwJwB2nQRBog7B8xaRHmFS2t8AbOyXleLiRHqgJtqxlYY0/EMq4cxcTd35e9P6DXVtefXPufr82++H3wHn+6cSwQYYQERfPji79sAHdLOIL8V0KOmK03gTqqbILMJwTKfdT/G2dUS/McYRVaLW7j7UoDr6zUzwOBIhHjm7rV+19dcPbmSmsesp5/xNse679Z3+mfB04XQnkWAF32teAQ1l0GlrrqhWYoitH5C7qqb1Xkyg4tFszV/9+7hUnGl9qtaCjDPpaG0xNWSGu/B3xEILdgAfITydBwMtutr8qmrUIGHFRwvwpK+g0f4T/lW684ML610mvzte3+TbmYDCZZTrXRaiwIwszLXOqebRVehfDzGTeAB/IqXn3+0SWr5TN30xIqhbLR3mws0RzZ07i3r3SZ0uXPg0eShbuoYJ9E8wMMqqpaddTV6EwOr/ohiY7zfBAPeVH9v/DpdIRQ5+ipFXyXwsB6CfvMDrB4IpHOfec9DFCvHwr3mZoHG8VwWaz0njOhH3YgRVMqEnuUV0eFVfen6yLN94mOknW4rmMktxjtks6Sz84A8hHeF8K+6XPtdPQUC0JHdIt/GZw7XXaDilG8z4xWs6dHX9HdrLXVM3UPKVeg4qlT7pJXOuanyK4BHHzH4M41sIKxEBkNHXJJWTyx1WDikraD5PG15jHlXuX9Kv08BXTfhZlcXqZOMgVvGKrxAkOdAi9PlYRnpb8YaeASaV3gwsM8JbNXycRMDK9iQ8UrwMdIcMOzhFSSx5TWBegsrBurEGaE0VZ57W0m6tw1BACJ9TYuHVidL2ZtpZKDpTdC/7zb3/uc0/VxWgNC/WVCIwrxq5ZgSUJ3vbSb5zgbAw1UjnITVLMWF1ZmHtrzCLXDvPRqPBzANvLOwiv+Ll+4WaO3LVOZsdyNJ4N3EGKW+5tgpOwSRlqx2bG9iwdJ3m3v/U8DsXlpFWW6CDOlnVYyHuyUn+9tJ7qsLmH34ABsLyIXFrlyAZuPc4JwIzDRSUB3wo81MzjWyTazbsahVmL+r5MaP3uchnj/WwEOCOxXMqHm7OEM1uFnM/j/eZVephAcW6bnjPdcKntVkvfw06aw8RUl2Bbi/4GbJt74kGS9dCFVNQVZkNLFbMeZEV1Xj1hQYpqs9xapmhtYg4ZEb27H5GZp9xmTGClJFSAuwsfws6UDjUJDjRqD76g8Bj+nyWtA1+LZ8juBbxsGxQJFWNae1Vo9iXCduJN2/6j73+Z2LAHf1XhMwMy87yLVKt7dgA56VXrqpogmYCTqXZ9Ml+Fa5MObNdYLFKN3X6yYsHuqit+ikN7xcHA+SG+NI1vHTAhWj5PbCz7B4vGSAV8hd/tFa9CLeY5K5I8K5qzwqbjs2X6UI8M7KM5ZHa0luai0Cy2aMR775kbK0CCQD9piQsYrv9tyjQoBDf+u4SH9BiBOsUsB1zxuVN/tmZLh1OwQdaxTiqaz8h8QK07SxBdAqU4iHwuMKnJ8QWNpBQSYhwKFv226EAjnF7+RZAbPZLUFrOFK+zQQdG5/gW8akj2/LmzuWjumz2ckYY12HjvmotzK2wwKO1nKwj+Vq+0L/unwbNNr8Au9++g7UpMUkfLv0DHCHbHgMwIOBD1dLyPwLlLoSSyj/ZnBvLWEFNuvyOdmXgtzH1B4F8HBSWZBlLSbZVICPHzH5W/r2pIt+L4emjSH7GLGOAE9XnuPTJZhMZUnL8Pdm6594fSjqemiSdVnQ18wVd8Ojl2QYrbC6GpdYDwO17Is1H1wZr8FjUxUCJOI4DMZDyWVbH0OAR8n0EN6sdIzvAHSki6sI88KV1UfC9s9rUEArR7r0BOXIilwa626B5hEYjRLNeEVNCuvSVPCtgX9PWIla4HDJGAjOvavKjtfobuNTytgOdy59gfvZ/lUpvuBbaUMsjHP8bJ1FRgBmbqUMmCWoVJmg1cNCbWPeouQ5Al+rx49UrNZtZwnzpwAP3f/L6CXrdjym9iiAh+sUA6gcYHOlnzPYP2LyF2zIfMZ4mN0y9s2I9YUlBPiTJDUWIVaPTBSC9LLd9ST7BvD4+j5JcLkUK/mLNHGluIRitpS9sTZrvN9Uwbj7pP0MOuzJNKlw9GeVd2vUVImPCM7DP57sfAN4fE0yYgsMcLTiY0ql0mThCcBO2vK5Ii35Pvs40vc2s4XgUmM8Ul/QN4rgmVZrvML2t+K1T5zSgCDTOQCH24Vr9XhCPMQ48K2LrmX4VReLfGudncvbpjOHw6LJnP76LoBHZmySGS1mr0yRKWRMEpa6nEJtj6HSLhAsilFaCftHXC3qHhcq6iKTHvz7cdk7YJeRFiwNH76MeSp8asR6UB1OJXFdc79o1xr8J1RGFYRcVLMNH2qUDlOACzYUNCsvCp+uVhALMrEa0n1w9o//N8l++68kRYgXKYrfqaJp0WA9TYvuRfC7xbmomDfKk81nt0LpT4COn+bd5HCwj9xMgM7256SDWyrfhT6uGrWAQMPO8vOks8qq0YqlsSJ/FFPybrjfVbkWJCrBduBb3YWxMte1otsLAJh9e3fucql6qCIlnN1CURK+dE+Msi9emacF8i3m/bcqPhZkzk0NQd8bcxcZlwqQ3/93kv/2HwWNjnZjzqe4sCaWsIDqYgF0dEypHXPArPXHNeYJoMNFZ4WB7Dv5aj5J/3kAbFEafSZczx7O14+qXa76NKbdd2DDZ8uE22PfltWZAwqLnSZHfLaE7FUaKiNcLUec5/4vxnwYmDXKAqm2/xLP1DkF+NrrZMKAUsqlZ6bR4l45w+qRfPw5KkSGcBekxAZd390G0saaHqJ8LUXbh+yXQQnffWJljqGdk7rK3F37XPf0oytGhfcaK8WXFP15hiXNOKJL40+/csDZBOXRU0zVyTesQoc7ZADJMTRrTDx9zetNbAxnrYm23SQF4NuweuBmefYmSbE4JTvwqtancCHsADx+wxqynORkbBVuRERiVwuUuiBWqFgHjqi4vIHMOGFM3WHbRFyGeCSawGKaLRBMm33JatsdSZ8T26FF5yLooE+kHKcWCGSen73/S3L28W/FHHdnXw6WTp21V8kErwIwf5/nI0GMKz6kQ+yMNaZPee9eLZnMccWxF+DpvtOC9gL6r6GLDEbvstsVn2q0D59cXSXVrEHb3NxscNTVD2l6/6ZXrntOLRUWgJkklRFRQ5pcmqyz+EGGXLnFKawWZufnk4XF+SsHrNY955UfpueE26RneoRAmsdkvfIySb8isL2vgojV4ykrxzPAySEbc+UI52z1BStNXAc9TbfUBGOwyij8X8/Xkl/ZOfjnnf3kG9fVgtRkQ6Wey93bRwuimSX1J6w3f2bXZbeTdvddBUtvy00xjgwKTPtbH5LTzffJGTU8onH8GVVKs+UXyeHsKjEy1EZIrz/HbnPce/v0o5/v5TnZr6kDjbUupZPGKDFO8GLGfkNn7/4CH3cYC2p9sH1yTi0VK8f2PqegeAX+nD44Ss6wSk1u7yXv9o6SLfjcIX/o4MPuGldgWe4/wrM/sSPp24WZ2FLCdPdevg255B5MBN52Pv4l6bz77yTB1RLB416IlhFgfrL8MjlcICCauZs10A299PxRHvL8u5Sf6g3dKyxZAWPwgDmNVwQdPrMLlpUp9gDCTj5J5dzT/TxBBMKOBV09pmkbZXrax0dj8bCzDrBDrMvlKah/h5XnHvD1qFyBelCDFvncSCMtJccAF/19Ks3uvGxwhRE9hPS5fOk5UngDQY5rQPOqK0fqU1ijIt3+mnRY1WezmF/nlpMMENIL54310JvJ2jJZmaOUNYNxgLvqLDlKNg6Peb/GbL5DUiqgtWw8xd9vavYbXHarWjsQ3hdaKZUEHd8+JNnnvyenALUzMgOsVpp7vBkXxHdIz3yR4EerwrbtdihA4GNugKm8axyN5ekdByvvagWBZwXTEbuUvkhyduwMzdJVCM5rM+EcaxW2mQ2H8K3zX4tp/67Xt9OJ619VS6/ZfK949j8sz0UfjHczw+xSo08GQU9sfUpSrUHbxHgARMIkKd9qQcItmOG6SgDNkeV26SLj9YXy3aJhbjLqmBcl068uq8AcyWrIDyppQ0eBiProMbZHBTwcYAfaLJdVTKdrx+6aerlyYRNGkO10GRwDWtwFVxNacfUmZ4/mMVE6HZN0B/+uStNS1LFbZUS6IKsxzybffo2t3bPnvys6yUTtBR/SH9yXLCL4IjsIGko56XgEHR9yE3S8wLXyeyxcf+D1CreRaXFVLfaz2dlMsl//I8n+/u/hI9cyFN+7F4vADetRbnErlGGmQK+6UPvdj1MA2hrnEbSeA/aiOHNjkXATpoIPAHP6jvgkWDUjXsHN5aqa4MP0R9sRKw1lwKf9Y+TANUymcZW7+Ue+FTD9aRme5V0QUsirvvs7V2mpO/hiwUwAHjG/Nfn4PXva5FjpUmlIUGlGzFfsqhy/ju8/dl8Zb0yfoPO6gaVupWD6sovexxhQ2sshjw542HnNjqv453dmsmTlcALLh2i2iDPoJc6gz935ySIAnx/nWlBGJTr2obrQLWdlnuFCmSCFLt8iGwNLR7wkFoo12V7ne1ZLe1hFyILJYtOzi2wWlgNXkARmFlajDLP1CZObqHH8Xlo+ShoPGoO7/F5+Uek8B3QYGPs7zNVuPmgpflfDl5ppxQc7BN0STPrpl+QMi0e+z9/SyjbLipv6B5nBeQCQ3AJtxS/tv7dBAWIbVJC5KbWkfyY7X9Ek8KrVY+E2xyo1yFReXSVuQeBxRqaGwb49TT6YJAvkNJsmQN0dm5jz/P8lPQm+VYY8pKaFMeJT4Nu38O1reDYsdFWWDh9cAEUAaWd/M0mZw2ENEph1m3xqWn2G9UgZoCzoXVSUx43bu6Pq2B4G6Ighv1IXtbSbDbXIissFr5VwHZvH3C5qhEdCCdeoBgeuElwl+tyHodaPXXFfTXB4eFSyw9yaTV3t3NEkNZPF+UJwWf6EYD1LpWuGdc8LWoo5Mj/GP2yKrcGUuFvS1ZdFaeU44uI/rrrMYz/hvF385a4kPh3kuL+IxOE+DwV8GAD2BuvG73Ct/BFT9QvcREWlwYv9Of9Lywb9zz79PTnDxRIl0t0Ntdtim3aCdNO1N8lZ62IpyXK77zBUbq0J6J6gWBMDogGD0YjFiWysbeIa1hmvOQDIGq6ZPuDhsbK/Yy8AndVcrlKZOEw+YPkw5uMhBUgLOrTK/cSzviEmyVikSktHEIH5Bt92SPdOnLsG4Rrr4Zzu/p5QMCzm85PXgA5o5CR9BJD5QhbjNYSSoGMFwGqRwUi7R55UlPspqfwo3h8l8BBsWjBH5PlSxQeaDYsHAMQV+PlEG8ICHJ4cnJwFEjbS+XG0QoBnT14lnYNtUkSpZsi7m8TFDrWAMPfA6Hz9NczWCYFouSmNmrtZefY2LR8TCPE1ENxPS+QKMS4GaX45PCFrAEsS1iQn/V03U94UqQqMBdKu3bJa98rvlmYQ5HNRjE4e6m+6UVLpYH0ILR0ffuYzFqCyPDpuGYtYafLPBB5PAGXEzbTtbigg4MsMjJY/dSUIPIj1MMsozwGLKtvPv2AShWefviqAB7zbn22k9Uv/fMEDBArytzyjD9+MuUOvR5fugXUjjs1nszjYGpaOnxZMX59lgTVdlBCoIrWCDL5NdrF0GDSOiyXpuqJi9mHpiaw29mTJnr5NMvl2RpdTxSSouv6If6c1+4DFkK+ryHnlmYvcBZIYXuFieY0cWfr/2XvT5jaSLU3TA+C+i9qlVC733qpb1dU91jNj1v//23yYsemusaq2rrvmql3ivhMR8zwnEEpKCWKhQBEk3TMhgEAgEHHc/fjr79nolxne/1gTXnMBXeDybyXwUE5OGXMvPFskJp2JpbPYMTufA9jGYZ3FOuwG3J3vneDZfRVa5gIdPpav6Nuxxq7HkDs93g+wlxui2A23CzPDiz8jY9SWRaS0m5unAnl/2qIfWNy/jnoFdTKjld3D9OPeIQ6nJxGy+KVl6zXVHujt9N3aUuR9eYTSWCP8rVf4YXNPATpIsiTLUf6Ib4c5EKDxwzGPg1ouaBbaQ3EX975KHcwtOjrm9mUkUJI3pTBvyjEMHcxGwY5eNip1TPePU6V99eaHqMBc3X8SzJ6Jx6AJfnOB0ucyH48jJ1BdAfsX/v6BMIW3R/p+nWEKfvPty3nDaxLM32GRe4Yvh87P5otYB3RYBdVx3bMJljUNwnS0nv9Hql4Q6aMsbMjFIpH6dGkarO59HWxnsirtLWluRt0ICTw6grQhm30hsy7T8Q2M01OAoP3Qa9My5ClvzGG3Eni4O7GRxyWtUOZdp0YzyWlyOSWk7mRIWOthuwE8dDqKvcGNGRj9bqQ0moXEQSYTq+5/hYMezmhMzqIi4ZB2YuzCRrjEomokgY6T618BPogo8Ltd+Te/4Q4ydpE8T8OKzDI5ZT5eA0h2YZRklY7oG73JnfZyUuPEeV6Oalm7q7sRs9wuw4iZYfV3K3PhUKgy10mvp/L+sGPcIILle5Iu/TV13vzIovY2ciIEzBV06c+xzo5R5Q3oqIyw+EQWjUzy8yVIgLEnAC4Zky36wFwVUZ22gxkMHWCF5TATEnFk/oqWmWUffFvX0HHcuvM/0wSn0yTFm+maXGb43JTqi4RGa3Y5CNau3iXrlDhODeGwkZfzimLcMr7mHbeApAcAZP2Q9Om4S6ZgkyX2bE6iAB1kcTU7KeNW53DnboEsvF6z68a8Zdym+4xbwuRL574M5i1pmoDdYKqLhlwaQjI6nt+B7XiA7rinbwcA5NxCfLdEls1t3krg0dy8AMSBIAp9vDAd/hq7KIv9IQNdzD0h22EyoVGQcPP71/oZJVuSRj09+SMIHqrZUuM47LXwZaiQBxqdhE1Q12Q0bQNESpR5iZkhFu5z6pHMYPu8C7Mgq7BOyOq7g9P0AubjzeFRek+4rTS2O0knv4p3XOBDFarpbYnHqqYfQOhDlLcpsh8vL0TiM4FRT9BhJzY7Ruj7zl//NTK4lphbgr72c7/LvbdwbDx9+sdUPfnHOqolQMe5Z/WbuY1TAiFvNvELsG+P/4EzA5b19zCpW8LkwoCK5Fl7m+n0b/+apvXV0c/DcStobn3sbNpcmtEKsmGO3zXGjnlpXsDaOW5l7Vyw9jm3s2IcPiDd2wB0VAHSLanu71psTAbmHjtrx7GMjHk6zm2M29LijtRgKf/y31Pn5/9F2YMu6GCeFejFCJeFJUrP/jmVj34PWCai5RaBDmWnnt/F+X0PeQkgh23zjAsTDD4iPDuYDsZAs+kd9hw39bjbDTzoVQeCTlh3maT7s1V6eXSSdgjYdnEbRPFr+5OC20exaJ5xh2C76UtJM3mKGUIUcR7tsDtqH0Bfo5Ci5Dv24QLmozLF8vtfQlG13N3TKuP/VeJO4E92kFKTUyg7+2OJneTS1Elk9ltht3CHv+vJT/gycpelirh6Xhtj38TWV5yDrvCX/IdW7wr92x2iTIq70jbcyQy7WO3y+nLM89Dr3OJNFhN0h7LETlGmQwq7Z+N3I6JnF6YD6r78+U+pevlnimlhfjLCRx3l70lLW0zr4TewHc9i16ijY+1J0vPM+c3LkoB9aeI20tQnfG9MY2/NoWLrHeB5H+DBgiuD9/55OmXHOoWpxaW7wrehRT2dijHz6cLr+JhjZztD5MwyZonl6ZMw47rD3Zg5JkPySdoiiZms3QkpL4/JfNrhrOoPmdJacxRNUHr3zhkdXGrRXaz8DQGy4xc/RUwqguUWu+jZ8EMyC6ag/RHhvquAkKbabC8xRqVk5mcp6KLIY/XLn0ik9qdUwtIVAhEb8818PAmGo3jwXeo8+AYTC+ZVE6x5YbegNRqEIRHs1V53XRh060rHCCj73zpOd3hWx5yrRwad8AZ+fquBR9OfTmKdCNcIr11Hcbiz3maQHTcjrznwk2dtf9r9dmE9DKmVkrO2w21pFUAjinBpPnAhJba/+PF/kukQMwO7RqlrlXvaeMEii2zMFPnNv5ChE9q2g6/DOTtIJajiNN+A5o1HTF7DbA9w2jPh2DYRSJsARFPe7xCiGvZX+kAAclqhwFHmZ+GffaKRRI9+zzuHBl9kAVkBbC7T7zrizbfZPYaZR7NPXSbccdFXWRgea70P/ALKv7JjxKejfMdCFqBDYMXi4Y6Z0OOpb/9zaj/7JyrQQlUrK0x8uV2RBNyxGzrLTr58+s8QUjj8lv9OOkxMLWSlFBRXMncbL9PpX/4fwku3Uvv3sAN82qKCcDhK97j0GCutCtBcMw0WRTzqzMe4fbO1g1m2ZFPTQbe02D3rhNqNiuO1KbjVHxXjt2kCZMegBdwsSDjHYmbKc8esYNxd9IPlpQDqs4xlgYjzxTH+61mas/36HJsCWR4KO3b+8v+mkuykJUCrMuEdu/qobwOzke4Ckr/+T6l8+DtkhWlQP61bxnYIDI8AaZpa3GC6wRnUTNimycucHRaRXKG/3FTl9qsEsvZDFk5TEakex/cIsd071e9DMCE5en4znPaQf3RMPYIiMaeHtPqtGWRMsMpH1LmYQycxnMxhEY2JtoepBbBQHJkn4QQGqQRr4GBp1kj81SLclsROoeg4TwMWZFScpnNQlbIfFYq8jN2imSI7KO/TtHk8nXYAILsCDxTCzsFBRCapGCIyqasfnO8uCO5AVMg+NOWowGU0LJLla00tTob47X5KgsUhTCgqaZiOyvwPv+DTQYE8nUrDv8Xf1pERlseS7O1H3wXoSA+/ZWEhSoKdcW5XKAH7l7FqVdUWfgvO8pbRLdMAEM2DOFa6OBtO2nn9E3QH4xagUjD29GlKy5QN+FAYzZH6a3OsOZYEARXjy+amZA5zoxsasyXvnqhjBB41c6f5UNDx6bhVj+i/0YzdYAIdu5gAY9zy/ABfDgF1i/H98ZX8ek2yfYKpmJuyOhQqrMhIWj7/W7AdZtatQQf37BymWnJ1l/t8/IdUapKS6cAx+raBjpqRqs276hiz1KqHBrVZ+kiz10McfJen2NDQP7l9LAF17a1v6iHXExe6B/gWHLF4bTLIdlEI/Wyyri/a/6RQ91gA3ZFHYhhPeJsaO7KKhbYiuVDn2X9KbaNe3DkR5VKQ1yNeJ0wPMB8tWBBzfJT7G6kwuykKriDRWORMOGc3pTRVrDOklpS90G69zG7iFMWtstbuurldMx1mkVRh1PR1DSqNWpri4aLQKHK6un7NtaMngk73dxozUs/uc5D4ODxIJfdSURiv/Ol/ps6r71OpM63JllRMVp1lZ+yi1obpaAE8EuHHRkiUu/t9Foiev5rfvCQJmFSsxHwCEsSsYHIxKtiSabbQVGaUFqxHwaPEHHF6AvOB/8PUwX9OAsiC/kz6ODlozulRx5L6Q+Ag2PV5saIuDEDaTUvUJ2KsatKNjJiMnbPjVsZjmjkRpkHHvWOYXzN8N5gQgfRA0MEXHJOyj5oECXOv3vzEmIWlMzPpJg7QXaajwPeqtGYNSdSqb/+3VOFYW8HWGV4MReeN3qpmv8ho78N+W1bD/hoEO+xzU9E/pR7OY4DHnHKnxTC5VdLrf7MZeHTlw3iJSaw9bg+tsLR3nAi0Sx0+OM/XQ6Ui+HDH0vh66Fke2qG/3G/Up7FYm05ZKhZGwzDjljtHJ505AcjzEU57hi+i5AxjPK3wC6FgWsvIAuznhUXl/L4d0WOaxrt81gIxfOowZz8sYN7QwbeqVOpG2NQilrkWrAhcggr37PEbo3QBJ/PcZru0VDhVOwUdVu0sSbVdbr7mc3aLriYsBt5HAehofYXjLU55xb2n5D2A2mehKyg0ltuESIBFXXNhtazJEEZDloox69DhXcAkLAgbkKKyEjPjFBBySv+2XahhDkymZbh4JCZjfBU9FmfHmmM3/JdQDXPhqVHff7OpUb+4k+41bv2+wNnWa9w2n9Vn/ORfzitQrqiOnKgTFJErgmVMgx3ARx1KzP0yX6NRVdqkdhU+HUmfDnLNRFbdczYEn/zajfuzMaUbQKBfGTO8b6uZVXzFYLru4W9zj4iiUyIV7P/cPpZABh5n5CExaujZChT+AlsKi8kJKAahXB1R9xmcEeftZL+tDQXJ/q5Oq+yiqyJW6flgYQ7HPWRTsXh3CN0zuZYJyNpP/pBav//fU+HOyoiXEYFBo5AFFypa+7HpBk8Vn/uCN5tjR+oiFgUdEK3pUeqE9wLTyusf2S2+jnuJe/MHWZQMP2yxS2zjy9L++p/DOU/QkX06RpL4Fz3YvglnXxyAO0mfD1gGHUwBzOWJCzPjRiaNnB/VD/8O8CTyA5+IKaI8Ws/+GH0cjN2IlLpj0XM3oNjKzQ4j24cp0H1xoXHr+TR9bpFJ+O//mk5//gu5OijiaNZWAb8gS/OwuMZ7pgbTKVFq1dN/wHy6Xkf09ABTcYG34B/NtsF4wHoME7UoixohzTAe+o8ZVbT3oSNvgcBGuMUMPM4IS8RqwJw2uiUHDna9Y7y+TtzJ9mkOSh1MRca3KZ/Hb0XCzHMHKXOBw2llQrFt2AApa+zKxSnhie6uYA5kD0pSrUflS/1AzHGBeabQX4Tvf9hpDTlxVcz8+hmN/dur+1Wb9/jsN2/R55jPKhxiZWhKsjpWeP13cJ4tX34P6HjF9RO1YxOZynRgYipwwms/+DbMK4W5D+aJAsg+HSGmif3HsaPZBXNLq3gE2KA66wEF/jCdtcxCS9G0WKDNbroF68XfBWO3o2nN8ckiXmBaMy+LrAmhWdxqjMaBt/wBUHgNnutzm2BD9k2gDOCvKFRoFt3yp/+ApYOhEzzJ3NkEyqyWhY62ZCVt3YflePB15JoJ1u6WO0DLeHxIl1BLrO+/YUrT/wbWfIExYF4X4GtuPSSQgUcPoVh/YZHdyyJmk63CVaV/iwGqLRB2ZJQ47/5nvcafdsGH4Xfp6T+xo4PKfk6o6dZr1PGvduzYcbGgd179jcX7NNiP1pPfQ/eyYK/g4DaLyUIxjEMhjyROlbcASUq9m1xJlsOkYPp2cM0uTtHYFXGDEb0SoOPbf6nNK/oACDpuufIeSexXfLDMRwk71Sateuvb/4IvBX5E3/8bvkkvGYc4RAOQXaw1FyaAZwdgXQKo25rVGLcJk5omw6qFv4js25DgY2y3LejgYVSVafvTO9gNEqFZM6gk0kzQ4ZxrWgAd5yY+Vm1Mgj4OqcEk6DBs+LY3GY996GzzsBi6P6hpThN0+DDs2fbFVdegi5yQz/Po6tEROiAumcfh2Eyag3ch4A2cS+toC2u+NLbbsexgelzfxL8lPQtwM8GYDpbO2ZZKWwdUFm0rYNamF97zfZSkuUC0Rbsb0+u+dQcFjne9BemShdRM4mQkggt5KHUn9eC+6SurRlHrkyITI+PCTtFrMFD9ECYAAEAASURBVJ+ByaVKrjUc8l78LXU2YG/4O5gcTlzoz0POhESlzhaOte3H3+HX8c+wHb9jB0nYZWY6+op/4j5kPMl8RJIsavKwJAM2cIZuol2itgvjVCbsFCbM/B8WSDS9uEBUh1QcOJMOq1a41XTIQ6fNcLBmXsSY/cxx2+iXcBqFdYlzey0yMLAvFaaUCp+OEj+OUpYDZ+6Ka2vGbQ2UHbdLMW5bsByFvkiPfwfgwDHcEPDcYhNpBJ2RczqWDmquG0ZGCjx0+v3Mbh70c9f68ww8enSfQjGLpQml+H9gc1DukFPC/BIBPPjGZy6JA3/zOhxQUc3SRE0t8laYdtmogfTiT3VSMUwYVQkdTAvFSaXbDvb0EqfUFnVeWkv3sJ2TdOvuEzJ+3oPKphy3Jhwc4CoWggjd/UwhqMAbpe0utoXppGXdGZJJuaMtCDnsaA4CgHQMsVSxw8x8aNCpRqoU5DuYkukgeqWQ5TFKx0Unt2spgRLwUWB6MLR0ar6O8ggTG4yXJrcAy94ZY8EkeeV7xi0LewFzJwAt8BVphcM049bQVMZ+hX6o/UAYM2NYkUpAcgv/jXIf51fmUrmHCYUIFVmOjs7OO5iIBM44cAdzZ5RZt+mHFGCZekFT+CK1nvwuWEaZj5JMwVl30bUQR0Y3bpkviEy0w5jQZ1krzD1kEkLT6ed2vgQy8OghG2kyk/Ms4+fRJONhHJ7baltg7edhSK0e0Nr3bvvQk6FIbWlbal+48wMwsIckB8JCah+ywAM2ykOsoPiAmLApol+MGtGJcx6zzNZ6aukIZ8pmdpGmrY7MiYbrwoJY9dYdqpkki10UbDAhzH4F3+2wivCWIpIyCTJgVyoryPKMHTzYDcCEGSsLrqMgqVLhrlWaGnq9Ig/JKZ81qc/NimpYYUsTiv4cgg6r9Mp0kGhJkBQJ1XSQze3aSqBmsnAIdvzqGGzODgcV4zZtwh5gsijx84hxK/ggLbo5P1zsy9nXOBe78BMuLnC2KCDJuNpsmCu/L3MnKHXMwpgZVeOYMiKm/DBW65+rxzBfZGNT8AjfDX6vAHAE26LvCRukElBcyrQ4b8grE+n6jSQ7Bti7AHp+WQzmTOH9cD06khaPvmXc/jNRV8/qlPDO0cNfAcq17cDPvHCjjNThB9hXohZXOJf2WwEQMbohwvzNuEwSSsP3cztfAsXGxkZ/iXa/u7YGdTzmtrnJ7mHMbRzXKWth3PbftvfT//VyI/196yBC3c4TlOucsfZPod3/6/piekbdF4GLoOW8No7r/PTckypPNCZKGor6YC8U5N6LH2ETABYbr3i8qB1QARw6nYaiVMmrkFXQAox2DVqMeKlcBGQ92IkmfECSz/y9uAbLYIl5TDGRoAtFEJS0Nu+IqGFxoJ5MhPMaZcO1WJGzIwUNq1FoF0dRV1Lm2u71+scZNq7dc9hciPx9PP4TYYcl9vAmBbphlVbsrFTyfZTOrer3Wmof/p3Y8fnhCusXzXVGanHHLuOlwMxSwCQUFFFrwSpU5PpokYtGx9MGmAa3bli54AK2r5ghIRmg2+qubUsGAFZbJi2T/bNejMnzYAPDHKNZzvHFuA1GJNg4xqwMW4xbxm533JYA5GpvJ53IvmgSlPlgzFonKUw+wcwBrkUu6LIwVQI2KrOPysgBlqsVMugKPjQJCuTjt6k1c4v0/Cfdnpp+t/zFHn4dPx2cpP/+bi89B4xFVtlPv9D92/5CW6Wv0Pv/5x30PxXPTfZmrpUsz95CY6RfXbNTms6+uqv47S8bFmXaW9OoGxK1AIjYx85n2Gyv5tsResWuZFubYKeuN4IW6XX4pb03qfJ0xxUgwl0XSncJOnrn+fdBQ7ektN/BHOwSokhq6gAB+lnwSFDIPj5IkR2iOzdNOIUJn6gbUWGnFnicbuJnYSpyFHgZu8jut+iTyMGhD4mgQhu4CpwdapQC1+SjYvf3XGRU1N0WlTmNUgAAVTIcmnqoX6ECF3hUKnCSLdXVOutd64drbU7yBZ4ntt8/uffrdp01gGTsAhZKxlmMuVnG2Dwg0/wdMgyY5jR1FAIQF3zGmQxa4lHt1mNJZiMKJAJaNRcGaPZ8AZphIBzPAg8BawNaWfwitbk+Jo5bxqjRNEZZlTwsbFf/JuOWTdJH+2t9j5xrzbhdIOKGDLrJxGDm5sDkaeK0EqAcFXhZOC+zXbd+NwO1Ke23AR+H6AQZ7X5N0DGHTd70C/OgDdcOEwtclv6/bvLsJbsrBR69LmgS3otEU8xkB5B59pfJt3/cKQYOwBPG2hZ+Hj5WACvzjsjcPpKAik6WooKGVnl3WMDTw43UJjdC2nwOCPkFBuRNJOpCy34EBGrmREUr1Ywy1h+jkOFopw7nLVW47j1CjzbKlE7xf0ws4YznM9Sp59BxMHaUghPzGdTcdn297FjM7VBhTtHUIx1dWjCLXWIUz4KyjtwPApJYLJrf++h28x83QgKwEPYxYMFicR0W8eLhdyz+muXeB3uXSJdvXpeEX0VhfSLHVLfV+WsA0zJvOi7LVAg00BHB7MmSwZT0GrcMzNpE6PlYBAXI+iUVMiH6bXy6KMqyCs6749bMwKVgA4bD0gbBboSzNsUPc8RV00UfPbvB3ECHCzxOLaIzoOlUqq5fQGfMyH5gMmuSFQ746q39OAOPc7regRPAA0chHYY2cTA6uxvu9TUHrMXldDI9nsvRLZ/K6INTHb4eocSt2gqJYARIhx1YK3J4sJvcxJRhHRTs1C12kZU7SRinULTlCREoCFoFbP6E7o/8quY//dUefzcmsMYsgqJuGZ0SiwE+I9Lfs5h3oKdP5qGo3SEaKony7kSmSswtsUusf725hh6/lN+6MRKgl/XdmWI8wIBoxisEESuA323BKAwGoFQ/D6NcNMFoAhEoyFzUPhr+jUnPHYrtDLtWvzHcv+GD4tjFjFMJWDST6Ogsw6F5EkamYD5ZObqUmSM8uAqTCvPNxtjNY7YWxdl/w9mcftXULujY4uHrQW0GYa6aeJKHzEcGHYMkxnAdfMjtPUJnoTuzM1QYPE2v2oeEzPaXhanTt4mtbQasTkp5EPaRmYs3MoqU0zIJAhGUZaEpBJ+PAk/9cJTTUc9qmlLM0tj6Y7irlKEIpqLPb5z3ETtYFbd0dEtbOyxMEWGxOLFq+7aMPcr70CnidclwhL8Ji88Z0HHe6fP7N1kCjFuHros8Y6Sj388y44WxWegcjcnQui46J0eIraYYgbKht6f6DsHanWFERpIUOqkGGfo6MSYx00TeDcau0VTWVikxrYQpyPf037AwI2OdS+6O3ZF+8VYdLMw4QqeowzeJRLIO16Bm4rBVgN8dUjDcmgKhg4Qy4PMMPPoIyFjsFXbCkRCmz3HNR4JjvaB3KHt9yC7nlEWLZSrvLhoB9Xp29+WOjUd4/UsRSyFHfoRtdpTsIKGmqy7wCFCirVuHPxkPQQg7y2BBtIdDR4e9G0ATTZDAQ6dPfyNygcBwuDtsYW8Pu308Q72YeZLwxxbVRyvMKy0d8o5YMHRYDbDR6wbye7dTAowrfIkiKkWTHGNFs12xsk9INn5DOnLC2hVGl/B3uyL8VSbE8GzHdvgVweY51jWd6F/kmD0zbl3ywsSjOVFGQ8YFsBGRKeEjspSOCt4L3yMivmA1dBiNawEs1w6jATeyDhpikKoxZK2P6AOThu2Ssfo8v77mdKoFTSumXrDKdQYejWT6P2fg0Uc+FhdbZMIbVmtFSDREn6P5lAGr3jgEMe8xYn1uYceNhbDvN/OHHyQgSNA5VCc8EzcZAXAXXwxDYNkpWt22I41t2Cv2dOu+GHHQLlHiR1DfXY/+CD3kpBFqK7AxlJfdn+etwwlhNgAZxRK0OUo6lLq2ccwthv3WzrBE0WA2y6DjQ+/kF+dIwDGi2UMnZCs1a3opceZs6YvBuG3P40AqYCY5XtojvwYsnsxIODjzvpFUgpCz49aaMRGCrk8G7IVjVRbOsvVtQIag+cCig4zbhH+TYzdYGP8WaLsq5ja0BHQiVWcfwFr7OAZ4nFcg1JM24nWDamE4M13r75HbYAlk4NFHRo6h8FRmUOk0JJrtF1YlYja65ZgX+yDmfdiPWU7yaTXVPj+ZP1IC4axZMxShyBupoBhK7eXS1oY3EplidlFft1sU8QJ4fFDg7CALdiJQHGxM2RUG8ICeBsi0DH0VdGirh+VoSZnHb/5q+27UR+042lxAfs4SOF8C9VjBKVkAIFig1UQ9JtcVxho+IcGGAJpbJvzaBTwbGmvotiHcOjvj/FyRd8a8HrJzATyMpNFsYkiuCcoYt/Ga3yi3MUE2K+D5l5Y/GUIC6m7DaGWt1eH9QEdzOrZIZLcGFxIKaY0vN6u5DZZABh59ZOQg0n63wKCaA0DM8nw0BP0mPbfD4DWNumxJbmOUALtAQxNb0sok8gqHPkwtxSI5EqS6scmaf6Ep9R1sRYCP2gkv6OdgQAAbUte+7oKOMV5lPlWWwBkJsBg5xgLgMg4NBdcRVRNL19RSwui1A3SgPGgBPPiOYCZMfY5Txys5QcKpNMaty15u45KAPnqG0e6iwPtz2/UvwkfFmmC6BfN2uDm9zDDacd3nJJwnr4p9ekHH0BlBBwNrWSqNHB0dwqsGxXUfo0S2qPOyMVOmdR4l53ABzFi4j7CH+QgZ2sJPowseajXNe6tUteWziDbQ3uXDY/1O8+DvT519c5+EmPI/ly4B5r9jlkeMOU1+/GYkueO5aMZsj3HrcTGOz1zjh3HbnRNnPsovR5SAmsJ+EHiYCsEIRh1MB7Wo6YVuXwJ0zNIPJgz7VL8MOsdt/TwDjwE97wTXhreKx/Kdkylsfyc4jjbLXe8vm253A5CyfNROh/PToGdsfwzsT5VH72/ndy8igbOy9fUHhe5rTnj284ucP38nS+AyJHB2XOZxexkSHnxOdQVENrq9k94RyfIec4t1Wga1Oox2ijDaqWA8MugYJLFfP89+j7/K4txX5vNYg/G4Q04PzS1nlUWvL2GpxdQC+GAQvzsiygUUrfll8FDudbb83igSiL4BbEhRh83d1zxyyxKYZAnkcXs1vSPBFHk7BBw8TBy2C9uhv8d5TW3iw7VgjQ3pGgkmre+V2/ASyIzHELKS8RB0GKmir0fsod1JO2p7tJJBi5tj2gQ5vzg4jgq30nLTht/xfh6iPYSW38oSyBLIEviCEmjUt0EAv1CV94ftA3T2aTokomWQoUWgMc/mZp3kkm5K+9Xl+oK3dG1+KgOPIbqqrlZrTg/R7VTax/NIz2eZjWbwnj2N4CI8pOHvXmEvtFKtKdQFLZZLzjvws9LKr7MEsgSyBL68BNTTJzii78B0vNg9TM/3D0O3D/Lhi/UgzO9ktYbtWDLdAjo+t+ElkIHHELIyumWWGO2VqSo9nsNnAzh8igc64BgQ0Rt8eFrjwN9B3c0UJ+kuicjmdUTqhuYO8bP5kCyBLIEsgSyBS5KAoGNXc/jhUfoF0PFq/3gop1I3kA/YhD6aw7/DDaVp0mMHmrnsYbsqA48hJKXTEJghigA9YLAdAzy2qB1ywIOsEphPeptcRM570HabLX09TkhGpqOqtNwQP5oPyRLIEsgSyBK4NAkIPN6Tmfg1gGMD/Wz6g/PM515Esw4Y4fiQDegDHlYwN6g5s9ijdVMGHkPKSyxrrPY9arcYtfL2qPb52B9gD3QgHwFU3mBymQcZr02TY4Ln3LIEsgSyBLIErkYCbhUPARqv8MF7SfbXA/zx+oEOr9LNp1Vo19DfjxZm032Ah2G0mecYvQ/zCjiCzIzTNh//KjY9HYqWpofzZjY0y4JDm0S4HOgxDRjpzZGMcDH50CyBLIEsgSyBkSWg7lUH61T6DtDx9tAUCYPcScndhonFhJBrmM1XWQcWQSKuCbmNLoEMPEaUGWMv0qCv4mS6CgPiYBzUjMzaxSF1B1TtAI/Q2ow8Boktf54lkCWQJTB2CYA5IoTWTeAGTLR62ZDaQU3zwCobTvN2GMUyWPMPOuPt/TwDjwv0vbVXVmA7BB/D+GucAjbMhGc63p2Tkjoupwz0YZLyXuDi8leyBLIEsgSyBM6VgL4dezDQ24AOWY9DgIcpEAY1s1ivUDR0BfDRRCdm345BUuv9eQYeveXS913pNR2MBB6zgJBhMtZJ7cl2bDHgt4ZE2H0vIn+YJZAlkCWQJTCyBE7YAG7iTKpDqT566uZBTR1vWoRgPDCzDMN0Dzrnbf48A48L9L4x24tRv6VIC1BuVibsVw7ZYe1DJ9P3hNduEBYTSWqGGPAXuLz8lSyBLIEsgSyBHhJQDx8CPN4eHqc3PGSiG/3c4/B4y6rk6nh9OmQ7IpJlCBP7eefL71PvcG1tbSg5bG5uDnXcqAcN+/vDnvdLXKflks3tX+4dpJcnRdrjv/eHFpBzCJ/ftCO+w8FjhUJzL99TFnt+Jjylh2FMzj/rx59cR3l+fAcX++tL9PvFruzjb+XrHE7ffCy18//K8szyPH90fPyJ2tkUB68PTtLfNw/Sz/tHaQ/T96Amu3EHh9JHy4vp8dpyerg0h1MplWh5DGp5fPYen5nxGDRyenzugHMwynrcX5hJD+ZnCbMaXKLa6JYt6L23xI5vQPGZ/VRH09yyBLIEsgSyBC5XApFXCTP3BmBjA927jQ4elKXUK5rFtHLX8Fk2iovh1zecef1y7+Z6nz0Dj8/ovzmAh/Hcjxfm0gKDc5CjkRhD8GHRuDeEcL3DuWmY8sufcYn5q1kCWQJZAlkCSOAoMkmfRviszqUy0IP2fer0efT8YzaXjxZnMbkM3mBmYQ+WQAYeg2V07hFGt9yhSNA9kPBKpEQnr0cf+s0ENZpp9kHd0n1vm7weOJ0OmgDnXkT+IEsgSyBLIEvgXAmoW2U2jGBR775i07cPCAF39Ky11ZxIXT6PjjeIwGRhazPTuQptI5zPfM7A4zME6MBcMLyKgXkXAHKH/P1Wsh3UjG55C+vxkqx5mlvMhFryXm5ZAlkCWQJZAuOVgFErJwANda1FO80ifaiT3oCmOd2ioOr21bnazJKjWQYIbciPB6+SQ57oNh4WIVYADasTPsDcch+zi+G1kh59iI+g+ExaY1itReQ2eT4ZPA9uo4jzPWcJZAlkCXyWBE7Z2Klr3xNNuIW+3SGS5bQPx6x5xccsJpYHizPp4eJcWua14bTDOJR+1sXeki/nWi2f2dH6NS8ANp4COo5A1G9hMbaO6/DZ804dJhcG9h6o+zkFiqZ5bR2YAC3nfSm/nyWQJZAlkCUwkgTczxk+q3nlhVEsYWLBt2PARg+VnBZIEqn/3mPAxwKby8ExLCNd2q0+ODMeY+h+zSt3oOLu4YBkYjFBxCBkLPjY6wBUcHJ6Q6RL1HDhWvQBuW7Na9Zeeh2v/brJOl9vlsCXlMB1ntteuxYVq86qY9+ga9Wzg1Ss9cZNiW5qdCNZ1mdmiGLMS+U4x12W5hikGU5IRLUsm0Z9ehrTS7uvk2nzk4bSbhnaBf23y4SQMblunh4BONgL6Lzl/WTw0fRufs4SuN4SqBfuAjMwGwvmuHP9OjV1qWzHHtUpTNy4ia49HoQ6+I4gww2k/h0mDJPt6Bc0cJ1kMinXmk0tY+gJ7YGaS+ZxNL0LQt48ptohMeIErfRtJhw7ZDLvADisXLssc1IQGTPhEVuN/tEp1gidQ55NQzzFLqFhfJyo0pW5ZQlkCVwvCbg2q7p0wNxGl+kPMY1eMnvnAsppmnkdfhATflv6duhQamVwN3bezzAbIxnsdRxK12dxKEWnZ4fS8Xd0Bh5jlKl5Pe5jbtlmoL/DpshqPPDsTgQBink9jBefb5f4erQn3p6op/ge9/czPi3vyNp6wCQ3ffw3SzPhBW4YmmAstyyBLIHrJQG11gEL9lvMEz/uGXpaopcKFuKp9JSNleGlLea/4GNSm5sjcyaZsuCtUSzQscOADu9HgHUf07nBAsNEKU6qDCb5ujLwGGPvaBdcJ957+2QWp9EjmAyoPSbtoAEvHWgysdn2MfUAEnVfGPzQfZOGtPVLiQnNzkGWxgn9y/5Jek3NA+PiZTusWSPFeRflZLSP5M0E66cx9n4+VZbA9ZaA8zuye6K33rN5+uXgNP10cARrUMJ0FAFA9F3zmGVMy7PdKI9Jm9+afNWp7wFOr9nQveUhCBnUvDd1rnrsAaDjLkBLh//cxi+BDDzGKFPDre5Az2l+EDHv8mw12kMW6X5Nk8U77I8FE0SWwDnycN5kNZPFfDh1vdYN7ulHonFewHa8BnzoKS6t6Weaj0zUU6zMUYemzvqXB1m/3s+fZQlMhgQEFDpfvmN+/2X7MD03Qq/rF3HQKWBBjsOEvAPr8fWipojpNMOlO88npamj1D+yNW6Kftk7Su/D7D3Ye86q46sz7XRvrk6PbsDAVAYel9K1eU0Yo1hFzNJ0UpEPQczSlTIeJyQHYz3Gm9pp8dvmhO8EQsexKZ0Eham/hP8ZIeOEmIQGvoidgzHxLwFJLzCxmI+kyUHiTuO4qkHW/BSmJuRxhxu3mqP3MCjSZxLuMV9DlsBtk4CMrDpoB8Bhci0X7Bdk+HxD3gvTioc5GK7zGPDRYX4XxQmOlzhdYhaekuWcEIGpf46IFNzs3sMvbI7eo5/2AB69Ne+vF65u0jz8kPBZU6ObpVTTeW6XI4EMPMYoV4G/2EIv6K+pYCjY2D6pQ7gEHy7c5zVBibsNM+t1mCYCjxbH35vDo3pCJoDKaY/70YS0bSQOz6ghbqm+Mf9VUb1nl1Sy09D88t3SdHrIITqlzXhoblkCWQITJQHn9S6gwzwX/7F1QM6L0yik9mktE7cUznk3G9s8VgEdbrSmYWYnoRkVqMn6OZuinwEdL3ndlL3vd32CDu9A89E3y/P4qc2jw+t7yiqrn+Qu/lkGHheXXc9vCj6avB5HgI2Nw7lgOrQz7lc18u7HfOg74TnmUAKyBHNMBmvCRJRIz1/8cm86Cdv6nnCBMjHuEHQ8E2DZvC9fCqCOD3gfdlO/F/7E9FRPbAFVDk0LceV/sgSuVAKaRY+ZpNvhC3Gcftw5gMWsa0gJRpp53VwkGCOcTE2YqO+DC/YkOJhyqbVvihs3AJTAQ+ZGpqNf89qFF7PcmAzOI/zznsB23MGUNMNGSX2X2+VIIAOPS5BrTFAG7n1shf98h2gP0fPmLrVZTsL00l2nz/3lmvnoYDs9xmxDGBvgYxKiRAQR7nI6cyos7Z8FtOxp2ipPP7qXcKZlUm8x8f+yi5MtLIn+Hw9hb4yNbyug3LIEsgSuTALqINmAjaPj9Bx28i9be+klm51NzCu9QIcXqg56yuL8lWnEcbx0sZ6EyDWvV525gZ7RvKKeNcpuUBN0uLnzPn63MBP3dQ+/DqMLa75j0Bny5xeVQAYeF5Vcn++5E2CNTkuGnRVzEQf/zsgP2IwtJonlmfs1HTVlPt7hJvGGcLC59mlqc65pJsRVNu9LatWJeoo3CgF1ULT6eLQDUKkAmib4aHxcSpgeHdBkRGrZ1J7xmflopJWfswS+nAScp1G/hBwdP+8dph+29tNPuwdhpnC9PjON46Kcp0Z7BCvAAv1ofiqcMGU9J6Fpxt48xT/l0NpXtSnY+xvU1NGLJH1cZzP1eGE63cdZVp09CWBq0LVf988z8LjEHnTC6u9hpMtjCg0d4Ph01DmKncagn3XimOrXsFwT9iyT22OB3uLllTdNSYbLmstj63gKEHKSNirARA9A5THb+Hz8lI7D/2MKU427jFWUxRT3lFuWQJbAl5WAJhYTg73cP0x/hun4ZecwfDZq0PHbBdsQeZnO+8z5x4COu+g0Q2knpZnA8CWhvy9hb/bxMB0GdHjtM+jnO8FMk5uEe5rXrD1B9zUp8r2M68jA4zKk2j0n4zrQs/ksHpJYbBcq8H03EsTpfZ6vRzP1jzBRmup3aaqDmaID8GiFz4SswVU2AZUOr0asPGIHVMexnKTWSQGo6nxwom3uw6iXDcOFASiLXTPLLJToCjsMbcUqNiHIJNiLr1Ku+bezBC5LAoKKE+amUXZb6KE35Of4EcDxfPcwWAJZjkYfNerFOWkywxV2Po8wrTwixH8NAKLp+Go1UC0lWVUdYM1O+ha96kOTS6N3zpNl49sxzw7oHqaje9ybfisyHZNwX+dd9016v9jY2BjUT3G/a2trY7/vzc3NsZ9zEq9T/wZzevzEYvtveI0bqnaM1MMXoo8EXJDdWejw9F/vraRv8bZewwapz0ev9qXlaZKeDUxIr4n3/357P9iZt9ybkS8yHc3AagCFNuI7s9RA4PmhE57HXahO6U3xyOeYXiax33v1Ub7OXlK5+HtZnoNlJ+jQvGLkygZ6yMi5V8zTd2xqDI2XMbCdBR4uwItsmO4zR5+QGuC71cX0AKdLc1uMamK5LL1kfiTTof+AU+z/eLuFuegIIEKkXfd+4qZ6/NOYjp4uzab/4/5aRLKYAuFwd6fH0Z/3Vh6fveXXewXrfezY372MThn7RXLCz71OTQuLgIV1nCvvh1PW1FCT1wmkn8SWyXDYmbw4OATAnATK7wVaPvc6R5WdCdPWUUSPAUbfrCyk7whF+4rJfLfroNUwMyo0HwIVdyWvUXg/4tD2E49f+PsNSnCH9/xcBdkowFGvZ9zHf2l5XvT683VeVHK9v3cT5OkcUn84p0xi+Jo55lz7gc3Pz3s4YPLa0FMzejbzU2k4Z+dhOR4AOJ4xl79bXkjfrizCbM7GXHfOj9rGLc+a6ShjM/di7wDW5iB0pOG0g0CH125SMHXxI3J23IPFWQF0aD4e93WOKqdhj78J15lNLcP29mcc5+4hUvEyoZ/iEa4rxCmKQGfTQc29iHkz/g6q97U+I4Z6qRx0jrrK5u9rE42JKwjBdPIAk9JPXOvfdvYDUBjv0oCkWmGY26STuH2iXqrYea3jrPoM8HKX51WAmUyPyrBhSq7yHvNvZwlcNwk0wN1QWRmNt0SqmMHzLQBEs4TF0gQcap9mbnqPgg71lKzk7wAbX+GXZll4TaIm03KuX7XO8ToNkjUi5x0+HX+DQf4e4KFOqXkbj+jfrCL+NYDqm+U5HGZrc+8Vq9L+F3wDP83A4wt0qguoA1vnJR20juco1cw7Tn6r2EoP9mvaZd8zyWawR6zvmErdIkazqY2ttWEV+n3/Mj9TEc0BgupHHd8vcDCL4HTrACq0EynkvUcVg4rOqJ4jXu9z/zt8fw/bsx4gB+V0OiACZiWAFf4snLf2/bjMO8jnzhK4GRIIloNbUV/IdGwDMt4R6WFZg19A+ppZmkykZ+9Y3aT5IQrBATSeAji+ZVF+tDjPRgDQARswKa3WHwAqfFSeY1p5gYPse/J2eF+DmvcogJKR9R5lPAydvWodOui6b+LnGXh8wV41OmUFsHACjXnUJjk6k+UV1Ocg4OFkOy3Ji4EC+RNe6JojZu7UizzgfWImjjsibaVNjZa7e9Ppr1zvK6jdXagPd2Bnm6pCX5dNUMoJcniHGWmd72tXNmSPFCihGPIgPSu1/DpLoLcEZDBkM7YA+9ZZeaM5BX+rHby7ZVd18nbOfdoa0PEAs8Mf15fTE0ws1ivRx8NNzqQ09WCH6DmzJv+0vx9+ZRukG+gFpnpd8ywbP+/xMYDjIQzrGnpmkqJzel3zTX0v6/Qv2LMia7PkWf3wCSG2Op3qIHXMjt/J00spNJfnpFN5vGaBlg6NBT6ep7uovTny6p4jOoX0ydpQg5rlXkvua6ZoUbTJglOYWLiHxg4btmUuNxgQdmh71IIw2+B+sEDc7wzsB7LS49zkZSpBGZBmh5JNMVfX1/mXr04CjSlFnaAOOWHuqD/MIizL8R7TirWU3uAbtsVrj+nV9D0zqmyZXf865pVHsBvfrMyHudT3Jym01HuVITYZoc6xPxE+a5FKdaKf9WtCp8Yk/BQW5yuc9E1xIEs7ObCq3x3cvM8y8PjCfepAl7r8CtStAtFxVHNLk92z3+XoG2IukDdMuD9v78EWVOn3OHW6IE+K/dXrl/Ew8sYKvbMwM3ehb03H/Au06CsKUO2SQ6CXqiDiNvxZjsmEuoVC0eRiaWpzhqwb/QIIkQ427M3U7bllCdxWCXRgD+toOfw2mDiWsbdG0jvBBs+GlfrQ5NmrhR5iDhlKaoTZVyTQWofheADTESHuzLFJaQIL2RxrxPwAe2odlreacAN0DL5KdeMSuuQ+YONbgNUz6mgZYTc5dzj4Hm7aERl4XEGPylgYQurCrAOXJojOHpOrO5GaHc2nl+YEdPPiBDT+3uYi7I5HW6z2So9pGIFPv/+l/nZCS99K1ZoHQPZDMKJH/GyLvAGHrbQH+HCXpmJsXGy9dpjTkMcuz7t8qP+HocjbOp5yviXsVXOcy3ttdmXu3JRZZkC+VA/n3/mSEnBsO0dkCp3rh8yJfXb++zxrqjVBn8Bjg4dmS5kPvhJzwuts5gVqJ5L3mTgrMhAzhx6xKXhoNlIAyBLgfhG9NCkLcgM46o1ZHQYs6HgFuNrhPhvmtF9feM8WqDQq5ysAhyHBKzqwI4Pcrk4CGXhckexlKYwG+d3qQgAFncEO902I07+KrZfrMVvHOGqSAGiPRfktheh+R5y9SsSFfJKqwHqfmpaeEWpr9kNtrK9gbH7c3AlnN8GFCkZFebb5twqnxKZrCLHU8RznUol4HndqdwAj1n7RFOPXsyo5K8H8+qZIQNARmYxlNVh03zJ/XuNcuSG7QYi9eTiwqODDwTO06CdTKcTgOhsbHhjDO8wfWY67bFaMJAsmkXnFRxPVvG/12zs2Kd/vnkQE3CY6wQq5+rkNaoIO2Y476Irfry1GFIs6N4OOQZK7/M8z8Lh8Gf/mF5zfPty13wMsyHi8jlou1BxAmQwKDJP1MJzMyac/hEpJpeLyu8i5pgs9IdzpxNOV/dP8vNV1V3kIEMx6GDVsTk/SEvdqZlZ3bNam0fnN1jA+huKeiqS6TR+SOQ6SStYXZOdkKlgRC+lNcS5DjIMmVuPkliVwzSXQmFP2WXzNNroJ+H6Lnnhj0j5KKehEqul10M6/ySO0CqOh87amywcWbHQu8jibm2MSZk6DKdx4vOe+f8E8+zP3a1hwzZL+qhP6dbGgw3BZmeXHpDG4T6i/Zu5JuMd+130bPsvA4wp7ueVCirvkCpPjKV7WJsARUPgYpoVpAqBhONnf0n6wBt9Cdyww4a7a3NLr+gUO3qvml9bRAQphCn8Vylizg/v5sK7p4j2d13RUPSTwtux66Zt5cZEwQfMOnE4dBI16h53cQmty6OLz7iW/nyXQTwKCb/WArIbmFIu4CTh2YD3cbISeYO47J/o19YDOo0+IErPs+0OeV6ZIYIgPllF2mkQnsakHrFX10y73jn7YZLMh6DAj8rBNPw5LOjzGxKKZVtChzs3t6iWQgccV9oFTwMXYXYe2x8bJVFOKlOmgMFvnoBNRRWT2T/0nVpYMEdO/oi5ZPUnTTCXY0jkUBXCiT0q7jEJNmmNUJ9Mtk6rVnvo60n4KQjzG3Z2p1A54vYtilunZ6xD2N7UfimqXKpXWxnG3YzZC6WNfc1goWa+hsXlzityyBK5MAoILx7jMpfihMbOah+MUHWCKc8GG5ep/xqfrfWQaHZwS3DHuuNc0qS+HAP+rrh9HAHPmxSTphbMdgCjCZKTjaKR3JyT4LblIDpHHGfLz7Fd+81owNQvYWgdomVX5Mf4d+pupa3ObDAlk4DEB/SDVeQ8a0EVVhzFtJO5yVD4utoOa4EMPdh3MfsJJtSB89TFzzFBUzzWJ081rEjTcgfZVUUTK4oN2+HLIZOxxPyrjfs2P3QUZpvsXonxeYe9ehVHR0XZZR1TOvYwZZgGGRTNPOKSikIyHyeCjn2TzZ5ctgQZ0yHIaYq5DqHN/B3OCgMMot23YDk0s2w3LgT74FIz3uk4NrZZouMv8f4hP1UPmgz5RZuycnVB94H0IOmzqMn26fiKCRZ8OQYcJBjkiPu/3j/NaZ/b73Pczwmb1LTOqbgZ55DY5EsjAYwL6wrwXSyzCZYW5hbklVGD+4ETGbp5FdRDzoTLyIQ37isyf7nimi5m4s7qi7WROOoGHbIcPX8+1yPnB83z7JFIg7wEqTIjkDrCDTD5VuioqVZGKSgc7EwuZKXWRXaKsRw0+2uHcuoTikXqdB5jMkGvE33MHpKOZjIjy5s/Qfkb3S8kWvJ9blsAoEnA8ViyU+mc4qCoeAui6cGLNULrBcEwfl+zkBRUADh0mjVbbZfya1nwHh2q/0zCAjd9Tr2sJhoMPBO9zoI4Fxq6h6NZbEXjo1yEQ0f9pklv4rCGXtwAuM60avaIsaqZDyfZv3r/O53e572dECwo67uHfoS6QAcptciSQgceE9IULoHTg10v4aLhA8pgl5bgUq0mAhmnafd+yGncKQl5oerk/Ae2z0WEpnczmdcl4aG4SDKwhg8fHU2kLwPEmnOlO2PUQ2YJiPuEuzlPAvq8zqkDNpGyyIFPIwXtXIQloVLxL2LeVs8pIc5TPgjN/W5t3G+AWVC3vT3Gs6m5SZTeZPXp7r8qxUgI4ovw8wEFzYdWeYlxSDuDwCB8uC5vhGA2gMETckHKfj/iOD8EIH4fpRXAi4+lizP/nNnf4MX8Yw5avfxCRKkR8MfCN4HD379iv3c3PPc2Vf+D8lfUxKZigwwKSG/hymTRs2KbOtBbWsyUK23WZDoGIoCMznMNK8cscl4HHl5Fz319pFjYXRh/uwG3CDRdRTSn6f6iE+jU/P1XbUQilXR3HLj78J3jfCejCapu0SYheDF+PaZgId2Y+lrjfBdzxF5HHCop6j23PvgpaAMItGgmkklY2jVRkREyqFg0l1jRvW2A3hQZa1OyCUl6C+RDsxN/IRme7Nmdqc14iDLERw4wAPA5QgCYr4+txDs/lL9aslP8KTJocIvWn8W68bK6suRKOZRd3Gc3d8jjbrb5OOnuHwVWPrG6PxzirfZFcJJsxYA/HGOSFQCHGIH5GRzwEwp2CZ6LMIPFiYd0LRgMmQ+DB3K6z9OrTUf9avz70SqYYi4JpMyDPAGoEyjqTLzJXDC23+vW6ZhXGs7rEue73JrE1mwg3SAfMa4vYCTp+AXyYfVUgMkwTeAmw7sl0YF6x+NsD/DqWkcek3vsw93WTj8nAYwJ712JwJryxmTDI2aPPh7ujYZoZDc3sJ/NximI64lxP5xL+D5OdIjiUBEpEn5dVUJJe6OsABO3g+4hBNsMqlCZKMszOxeEAkQwCZMrMxaEElLmB0jSjSUaFpRIXWLgrclcoCKrfr51TC2hwwxFV4nEMxwoLg972e7zmI55R8JxPZep9+HkNHXk607ZwAL6MtoeyHme73dcJ8GC+CSqaPjXE3anoDNSMIsBwWfS1WN8556N2DK+BhAuqiDVmbesojg2wzHGxSeDzGJcOyiGaoEN2bo15rN/C3dnZNEOWX99bZOCqN5wzjlUV+ySDjuZ2vXPB188AjufI/AXP75jjR8puyCboMAna1wE65nk9G/5czsDcJlMCGXhMYL/IeEzjFHmfyWdisVrB1YtmeLwPmJQfmI/uWuThU4U7qhkmZL1jkgGYxInpNYXvBVc3g8/HMn+fwkzoRHqAwt0GcKyAFpaPfV1nNdX5rINDbRMJ1ITdNarrwzMvwrbep88DUHAR9kF9Hfqd1I6wApAAKZzH46b4TYGKgCS+xzUH8OBvlb7cyKdt9nTv07fG8vcRtXDG2W73dRbpENOI88Z+FHQINAQYYgTBfPxNFws89EFw7FnAzPEl0BCA6BDpcXWT/xiuOXIa36MwATLwBOOaYPVbWsOcYk6KO0SrtA4PmdOCjhps+Av12Bvut67iKCUi4DpBZgcI9DUm1V9gFp/DBsp0uDEYprlBEGTdQw7PqMGiT4dyUUa5TbYEcg9NcP/Ms+Ca5lcTyWl3Mr5mR3AKAzBM0z66IfPR3ZWZJfQpOyV3TG7bnbiT3FSgLuSxsLPCtzHFRKpnFMvjOYvJQVdzj6ZP3ueGNixEJ5UNIAl7Od9t6Nxh79OFQsWorV7E1+LvA0EIwM3W4rngPZvQTRE2YjRIUYn6aUi2+x2PbVqL/ruMFtc7xhPf6uukA/WxaPqyiS2z2+PRBZS142g9FgQlFYDE74lGXTpHHXt2n2PeMgiGxC8EyMBfAxOCWUZN9b2MqVAfJXf5hqUflCf1/Oj2/aSDDi9T0KFpaZNNxHPCZV/CdLwEdGwCOtw0DNs+gA6Yjt+tLUTYrJFrtusgh2Hv8yYel4HHBPequ5xpEoIZ7WKGQjWhk5YsWuGMFkquz/X7+T6P09Jd2zHOmY2pwSRC+DrAfkjPTjIAUYHUizi7QO51FvCx0BZQkAukwgcDQGYW0+PpGbK+zpBM7Tic99xJ6eSnInP36a40mJCQB7tTZcFr26eqThGHnPksIN6QO7A42cB/hgONA09z6Qfk67ywiLvj6tPvxzjmTce0c07/K1k1WQ3ZM81+vnbem4VXH6Q1ojLWSJBnCXeTYEVIOJ/HvOAcJcdfl6Y+0on2AJQmc6k52Kykr6NydZ0wbZh7UWaWs183P4khs2zOLBchE3R9pDHMnd7cYzLwmPC+VcG4w3m2bBXaVk3dFhRaY+e8TzjeMM1F18iYE3ZH+jZYhfKJ8f1kMbyHA9ZUd5cwzLkm4RhlYpMJauG4FyG4eLIfLxgZMB9x/0coN81U4cSHktskgkBnvh2eDVE0AujYHaooI7csgS8kgTp0vPbDEPgLLpamYTOYh9Y0sqSA5tAZltCISIHViKgsnmU4BN8N6PhClzy2n3E+mgTtVQCOI/y0ZCfrUPhRmA6L3N0VdGBe+QM1WJ7g06HzfAYdY+uqSz9RBh6XLuLP/wEpxenWdFC3Tl4Xy0ivzu7BXfugpVPzwTEHnTDJ9Ys4YOFt7NZTvO+EdZflTuK6tFC+XKyXbDSMO0MxhPR2w3AILqziaYVbkzDtoPR0UDU3wD5RB3rNGyUT1YGRY/M9zxHUeVcYF6HMr4sc83WOTwINIHYWWTfJv4PZ8LkLIOZhGGUtFoNx5BnnaQHHKuBjEcpD4BHOoXynzi9Tm/PGd5Vf/kwyHeqtLeagphVLJLzg2b9L7nPY+RVyZcIbwfN4YS59vUxW0vB1mUEPXB/d9eV7YPJ+cWptbW2oq9rc3BzquFEPGvb3hz3vTb5O/TzW2aXvse15hyLbZbIdQc8OMrk0sosJznfMCqoCSNC5q8S9r83NpwWo3MY+2hzv83WTZ4APlL7AAc2fpgBnS7ycxep+l5xqxyj+Y3z+98kNssdB4RMCEDnguD1EUjMldZSCfJLnyy1LYFgJuP4JNsJcAnMhayHImAH8mklXx2iT2YWZM8wr+jAROcX4axMGf3rCQsyPeR6NjD73a9dBf8ZmaXaeKLQiPT8hT8eRxe3YNHFzw4IOZRC1rdgg3ZufSw+hO9eZ052DPTYVFlAYT7sO8vROr/t1ZsZjPOP1i5wlEgHhGHq/004bAAUdKK1nsM/q+LEH/fmX40SP0D9MLyrIZYqrNUxHMVfbm5u/zz/L5H7SKOyGvJGejsZzAyKM+jkqBR8dEpYB4E7aAcZUhgfIU6bkkIXCnCAt8nmwYYvvlkYzcLI4DwuCzx/+9n2XjGbVqH/1N/+O2wm0+YEWCnmcLV8n8rSDuwBA2Tq2lLLP9nPzdwsAUY+72hFaM8l81wFUB/FF8sG0To+D2TC/RrAa9JdRUrbuU/3HDfrXeSObKLjfPj1KP+4ckBbgKCpwj3KbdaSZTAf1V/B3sf7KfXzfVtCF6rDcrp8EMvC4Rn0mddtGGZpt89kiiyJzrmAilzib1vUMhruZ0Kd816RTP+zsR4bT5pt60M9huriJ01kd5b2rrAqYDx35TFZ2MlMzJMeADVmlw9OTdHSi82qV5pZXIvOkoX8RIsn39cjX3OVDM5ZAhrd56LD6q2NqI9OzzydktLyMNg1VP86Wr3MaJsLU+QID/6vHjXOuDqOGTeMP/9Yk4mtD1tuMIcOv5zChzAFap1ks/Xx/dzd8NAQbml3q2IubCzqcDwJ3QccrTJw/Hx+n54TMmoF41GY/mJVUv47fryykr1fm02IH3tJ5POrJ8vETIYEMPCaiG4a7CCeZ4CMmIYrNv5nbZP00rbimAnfr9UI46Ix+T8bkHfQu6TSDGnYhdYeid7iJiGYwxdy0hviiOfBVXEbJ2FSUZafOu3B8Sk6QqWP8YGCEUHSmvBZsBPCICCFAh+CDb0VOB3RpfB/51eYZ/+rdDg7GRwuf/YX5+fmzf37263yd8zHXHB3uuB02ghD/NqzbsSM8b5FrpgEebfivFsBDcDFDlNUMoMO8Ly3m0dbJ5SSO++yOHvMJZDkE4uHTgT56i0n3BeGyz2FY3xMy6zwatiljMwqvsNFyQ6Q/x9crZCXluXPgrMztukogA49r2HNs1mOnPtWaiZTfD4hOMSzNio6GqA2b4VQVYJrnTZy8/rK1Rx4MAAyPJxRYMvvf2qwLsYr3GgppxEv2FjVXmKNjFvuxi4Z7s1WdVlFxTSIoPu6aV7osh2/wuf/WnEcNBuPPHv9st0bf8fU4zW/eWlnRk2V8LV/nUtd8okybnXXtMOpYcQPwwezC3zU44XPGQzOW4r0uaPEsN701oEP98xo98qoLOjZwateRW9DRzKNhZCHoMCPpUxxJvyGq7x6ReLK9mq92Lwe/D3NZ+ZgxSCADjzEI8UufQoUmGHBnNc/uywmqEnQ3ZmjsG0Nt2W0ME6Lmgmk9mHigGJrdijsWy3MnHjIsk57vYxx94GLSLCjN+eawz4+zTR2N93zNta2Rx2CcLV/neOU5zr6ZtHPVOqMOUd+F8dnAedRspG8wsbzmsQ8LO4oTqQySzrf3GdPfkKfjKzKSPsWvYxWWtwZzNdCbNDnk6xleApejBYf//XzkZ0rAibgABWIV2nkm7BrwY67dVLU97e7Eh/sRQ0utCaPvx/O9wygpvVKUUVr7Lo5cS4Aafy+3LIEsgSwBJSCDoUP2GzYob7uAY8OwdZjUQ8g9HbWDFBxSXGoXq0Z/FWXtYTpIDnYf1tEsrln3DCnEa3BYBh7XoJPOu0R35zYTaZnLQtZjYXouiGGZjCkcT3Xmqid/bQzw+POaPgw+LNu9AYgx98U6Ow/Zj2PMOSYeM1HPLA/ZlYxBzpNkfj9L4OZKQPZCXyY3KkaCvUdPvMTnojH17sCgQnKMZFZRl5m/xFBjzbzf4UAqy/EIM4thyLndLAnkHr1B/TnLpF1lsuoYasieiYn+vnNIGnGcurjPYelOIYq+H9tkHTsi38WO9CnK5RE7jyeL08TPY+IBfOTBc4MGT76VLIEhJSDoEHBssEH52ZTnlrGH9dg5MUzdBIejgw4dSVcBGN/CcHyDQ/djwMc6DqVmbc3t5kkgrx03qE+dvDpfGX5mLg7/Rj/AhpAIDPrTiJcmBHTQbQs+mlLfh/h+mO3UCpxSq4fzZVoFePhbs5h5avajccAbdOb8eZZAlsB1koC6oGE5DtEBliHYJPOvppWfCZF9h0P7DuzHMD5lZ+9bvlZdJYu6SgE8wcZ3q6RAZ/N0h8i6XgkNz34/v76+EsjA4/r23blXLmVpSKzAw8l7Z3c6/XV7j53JCU6kJMEaxejKr7iDMdtp57BKu/yxDoh5gIf5AyrE3meXIhVqFdfG9HPuheUPsgSyBK6dBAQdZhm13MBrIlXCcRQWta61gmM6GxN1xKhN0KFj/H10ye8BHE+XZvErm426Neqw3G6uBDLwuIF9qxNWmELw05CqdA7ru+EOw7j6PShRFcWwAMTj0C2Ya2A+eGE12CPe03dEk8xd3tPxdJbfMa1x7XlyAwXLPespZ/nzwgJ9PFfx3PV3IYMlSRtShdwLng3DzI4w12wcdPuY3OXRvyR3oY+hDWNQ25/2LVlw6d/C/mau3dQ+FktEbh/mueUF3hEi+xxfDkNlBSD76AE/97hRmvpJ0GHyPkNknxG58m3k55iL7KQfsg2PctJ87LWSQAYe16q7RrtYGQ+9wR/wNQGBVW7/1+ZuKAvDZwUTozYVzT4+H6+Io49qr+yCHmF6+dq8H0S+zKCjr3PK9XPloYIVvAk0SH9dnSCAY7KvnfDg/coFqD2VihkST1GXIs3M8TfZRF3I/Cy3yZeAfUWLPqb+R3l0kAoSf1X0t/0YYHJqNlWzPHgufG2fA0RuYh871zWfWNH6Z9jSF/hyaFbZYs5rhvXzi7SG6bhHJN4/rS1R2n4u3eW1KdGtwJ3bzZdABh43uI9d76b5x/C0qRaKknuVpbCAlcnC9lAiB4CIYW2zjZrB3QObLllSyeLpd+sk4AVsCFEvAJyIfIFmMdrG37x2JhgUqvRyS5Cxv52qY7JOCjB4LuN5P1WHB4CPQxYmgQdcEHIu2uR+mF1IxZyPRYQPACFttoAkkcmymOJzQUvBbvmGLlbXYjrZv4LIity09m2HEQzDUdCPCd+FRL+W5j0/2E/l8X70mYnBSvqssE8FlTxKQGaaBnz4N88tASdRZQFGnHw+rlELkwr3CSEaekIHUhN/vYHd+PngKFiObZKBCTou0ixREJErbIDu4NPx1JBZmI77mFdkaP08t9shgQw8bkE/u8NwwjvBZ+7U9Obz3aP0glwdL8nbcYoCVumM2kwcpCI6KWsQ8+KgTQXYqXQXpfKQCJglvFob8DHqua/yeGVRdSjZTeXLcu9NSluvU/n+JRTPBqmadwEgAA+qbAYd36XklV6rxe4XgOGiVMwvw3wAPubJKLqwmtrLd1K5RD3NCiDiewCS4gampL/Kfhv2twUdlf12uJtau++jX1v7W6na30kF7xUwHSdlDTQT/VwJSLpms4KEchVMVgHQSDMLqT1PHy/dSa07j1K19jCVaw+i76N/rxvw4C7dSBiCrzlF51HTnEeRN0EI7zvnL9LcfFip9yHMxhPY0afLpD5HH612nUjNxpzb7ZFABh63oK+1qYZdFRQgAHF3YY2SWXZwFqx6y25mDwARheZcdIfULW58LARlvRLNLzsopz3oEBWUETRrOH0soagj8ym7GU0/E7up8abDjMIOmJ1uAdNRbL+DbmdB2nqVyo1XqdrZgP0AjLBLLtglC05CWF2BxY5Y27/MB6yHC1MLkFHMr6S0QhDyyt3Ubi+mamkNRmQJyp4dMo+g7PUJkQXJbewSqNkNbIAyVDIcR/QvoLLY3UitvXfQd+9SsbcVoKMSWGJGs48rCpGFDw9AJZpAgkeheUUzmuyGDBegstp6k4r1N6nceZxaK/dTmz5OCwBMjtHvZ1Kbc9j5q9O52Y7NxbEBEyrL8UbQgV7Y5X1ZzmF9wpp7DXHxh+H9S7Cud9mMfIU/h9ErRq6sdB3g1U253S4JZOBxi/rbCW5o7TKshLSmcfMqg58pfPA9j3conToOHy0zQqsVEl7vKK8Tdoc70NWvONcdzn+fipJWlbwLvaryQWVPHvhokBYLTmvrbSreP0/p5V9TAdg4PdpjodqtFyLMJAVgo0BR14CD549oZ7M0qqF53+NY3DrsqDWxlK+p+cIi1IaerxZYlNgZJ3fIdx7HjlmGxMiBa2eWGmGcXMWh9oc+G4X9uENfbL5M7Y2XqaJv0/4mIBPW4xSQYdVgmDuLvMlw6EDsI/r5Qx/TtyLnis85TrOZIKYCpMqIFS/+RtrN1ZTuPkmtp/+Y0v1nqbhDP88t1+eZsAXW29LpfJd8HK/w33hDwsEfN/YJle3gTIpomM8WjRzFEf1sHwsnQs+gdP6AL0fUgILxkOWQ/ag3Ihl0nJXZbXmdgcdt6enufQo+zL0h82EG0hkUqV7kNRV6mLbY5eyyywkA8kHhDhZSE/lygpI/oMrrFqnWDb11FyUgOZiDAcEpTf8PI21meK0TapNvZPAvXMIRLCwCidiW3CSEAABAAElEQVQBs4C0dt6mxKJUvP05pVd/i11seXrEOiPVXre+kCzkBWMUZeSMAfrkO/oIuFsGZKS9muKvXPxWHsCCrAc7opmmAqhU+oboC+JiNWELVve2Ju8JkBHAT98NfTYEijqI0rdJALiN2WzjRQDKYvt1gI6auWKV7bbf9FnzQfNMH+NW2fzFa8BH4vy0QuZE34+9TdxG+G1ATRtQklbu4QvEmWG39P/AwSeO/9L/WFFZU4nPAooD5yagY1PgsXcM+DiKDcM2c7NT/VoYcdTrdE7P8phHzywz3x9gev2WpGB14cm68vWo58zH3ywJZOBxs/pzpLuZQjlYfVXgsTzbTo/2Z9MPO/uUsSbbKfZdEwWNSq96AQ0DYs2XY8wvGyi4FzAgJh3T/8PkQGnumPwf7TDDWDb8KujWAB3ueNkFtwAa6Q2AY+d10O5S7i1Bh+aXcbUAJoCYg516t8xC1X79PQwIu+TVh/gIAEBW2SEv3433pPEjUiYDj6F6oPHNEWgU+GwEEMA/p/Ah6AAQCDITYCTMLvRtxfgcV4uxgokmzHIC2Xe/pA6go33/69Raf5rK1UepWFgOYDmu3xz2PCVAQ/8NNwJWj9W5/O3hcTx87XsHbDhkOT4HdDiP59ArRrg9gPF8SnXZe7x+QuSKEXbqnNyyBDLwuMVjQKpzil3JTItQNpTCvACAzZg+ICtQr1ukSd+Hgj6AuRBAaOcdtgUDwsEnsh5Ev2gr3myzw0IBbqPcjtr7mHzIfspvGnUj9TrDa9kYq1Oqni7L7PDB5s9utP3+F9iNv6fq+Z/ZCbMbBhQYrWKrAijEyzH9gwA9Z8kuWedUnBmDuscXJO1u1gsl5oAKX5AKh8Vi8Q4ADT8Bo2Q4pnS3TLssuYzpJr/YaQJosINvyVoR/irgqAR1AIwChqMdphV8c/C/qHZhI4xQOQM0RhjOw90TfRuOqCV+QJh2KvuU3xZoFvv7qc1cKu8+jb6tuvlAhjvxaEeFXPiK7IbzNmqqADj2kZObgW0SAJrJ+N3RcaQ719TClLzQJsMrs0q2LOYc83aOP5Z4XmeD8YCU5094rDDP12ZnJs/EOppY89FjlECxsbEx1PxbW8MuPea2uckOZMwtX+fFBOp6KP1qFkKZDs0kxutvARpeQ8G+gbEwc+FFGBCvyJ2Qux1NPDNFRQIhnFzxuVtASa3oeIaicpe0xuswx3DsKCzISP0ODV8dskC9+j6d/sf/ncpf/oxT4LuIaqgMrdS2r0C+VMMBN5ETog7HJOyZSAkdUgsYkNbDb1Nx71lK648Q1lpqceynwOO2ziMX2JUlnHcPtlJ6/4LseL+kU0HkxmsACO8dAkQIe8ZRB/cNwOQZk9mld607e00qOJZWgMfpVRxOn/5Dav/xv6X0iD7V70Nz2me08/rdOWrIq+GwmlE2jspI/qUJZV8Ti5uIbii8DuVM9c+a15awfwCzYZTKQ0JkrbGywkbCDYVzeX9nZ+ygY6T5PqSMz5PnkF/veVi+zp5iudo6X3bKZXR271u9+Lu34TrVk3qfY3GJLKQrKKcVMwuiHK3JMj+l+aWmZN1FSduOAkJCGXaZk7on8PHghSmTl8NzHibkpJ12ACAr02XQtdqJZUHcUYU/CMfXeVEvmJ4dhexiZRhlxSJVPv9L6jz/U+q8+REGgvBJ7utKmgsij/IQB0gb96yvR8uduiafPSJsjLLBDFMtEiFDjpAI5wx/AWjt2zSP7D8ddwWIymvvbSo38dd491MqMZV1AJMJXx1zr5z1zQm5fsl/ArhipsMJtSi3UgdGJnx19OUxHPf+V2FO+xwfntXVtbSxSYg396XfxgmycV7KcBzyepvoFJN/WcztHeyloe+RbfgzMXVsIthIzDN3LUYpu/GYKrIPeTwI51FrOJk7qJ6tc3eynh/n0LsJ8z2bWsY5Im7AuVjjEwmhASGGvxJ3v7hA/YQONtrZ9JKCUD8R/fIGM4xKzVDaz2lGcRh2ax4Rbc9vjjG5cG53UPqDrAJ41kjk5O4pkpLBjrRx3BSECCA+3fkPupb4Dnb9Egq+/Pu/pdMf/z2VRLFcKejoddEyLvoKSNNrPnj3PBW//Cm17n6VWo++i2iJtHYfmxi5Qvw+crwVjT63D1uaVWCoWkQfVduvUgdn4EoTFX4dwXKM2zfnc4ULoIWDSOU2Y+37/68Ow8Z/p2VIteHXF+g/Z55gHiwRjuCGsG8DXjd5I/JuADSitEGwmIhFZgNQMg6PJQGFLKWZR5/hu/EItmMdU8rStNEqhOjzOeqjHpufK7v8/RspgQw8bmS3ft5NuaPR717/jzWcTxdnqMWCo9gCjIjhcdpyX7WO2U1RdA7gMArzcfbKXESMFznlHPANUeGySae8OdUBfFhqewrP+E74g8jIzHFtgqI5dlTovqj5MOyyqzOpDII2/xJKvnzzExoZk8uITEeBDHSGYQlESOTscOHgXgyjNftlnfvBpeGCwOzDbpnMmZgLCnwFkuyHeUTwHWjxKFx8McUUMiCYaeL3L7CAne2PiX2NbAM0GqWiv8TOm9SCsWq9/SmdynTIeAjQTAo2lmb/slvXTEJSuLqv3b1zHVxDy6gl+np4HyDGAcxHaZKyNwBmnYYff1fnczHCCR+rYZqjqWRsNBEpRqW8xkHU7KLm4dnWrMKGYJv3d3DIMjfHRWqpnHct+oTpy2El2Ufm4oDh+IoNiSH5y2wSco2V8ySX3/9UAhl4fCqR/PdvJCDY0PnUZwHIOnk55jb309R+QfIxFN8oXqe/OfvHb6goVZgn2KBVpu+OTfFeRZp3C9GtkRNg3fwgs1XkI5kDfKgQh2mV+RqMboBBqEgOJui4EB0P6CAhR6RHD+dPs5CyEBkp0SSgYqVxSzrMZQ08RodFHSc7OL9WmolYaDXDtJ/8IVWPf58KIiduMvAI0GHos0m+Xv89tTWN8Vxt4jiqCUOzCjIaWxNYAmwr0qMXJIAz/0qAEB2CjxgzhugaRjtqxJNRNAek4GfsVfqk4ECcYAki2+0QFy/oOARkbOIU+lK/K7IOv9zexx+rDn8PM4vmTOaQWPqitVTOu5RZ2Iy7+G+Y6vwPa4v4dDRO6RaiHG4Onnfu/P7tkkAGHrervy90t6qUyPeB6cUspAIQ11SjT6z7sonvhwpRxeejWW5dMEZpzdF6459lQfx9mZCF9mnaguYwpbNOsGss9kbFyIBUXIN1aVSA6kDBiN+Lmiicz9fpCAdDEj2VAI/YfR6zeAzT+I0o+EaabHerFREmlZlJcRCszExqsTAXFRKQ6YuRSBzmDrxOTHUUOSXMghmJxRTcBwkN8+Mco0xJbmWK9lLGhnNbX8S07W39Hda3U4s8ERF+S66I0tTtgjEfI7amz5rnEb/+m8MvYkYQRPn7LcFENw+HDI9hz+nFX3Ai/QHwyMKNrFlfP6MhHwaLqevNNmvulJZ5VEjy1mnDIuHkWy7g5AsAifwbEYkEa0FCuZZMlKnz7YvwD6J/TCrWrwUagCmB+ShhbNoCj2Uy2sJ6cLvRX5HOnZcf/Dbo+ybvhv4ZZhF9D9h/SbKv1weH6R3F2zSpjJPZaPrM0eNc9yHTYX0V051/tTyfvgJ8rLEBkB1tju936/mzLIGzEsjA46w08uuBElDR6Gz6NbZdM5HeYdfzGiX4BspXACIokAoORTrwbMMdoE5Wse6HPwj+hDy/5bcWUXxLKETtzQ/TNCYZUjPzXqRoR2uqMKeIAvGavaBgDfAHKMmvEAvGcD8foKNgkaiITCjvEA65ei915ldTCfhoUY/FpGCxUEPD6yDqznyKui6RJMy066TmLtjpFgCTYFgCfAz74789TnNLBzNRi3DcCj+HNnVCWovUgVl/zPU9wfyyBrSpk8L99tu93/kVaDTwr3nuffyw7zbjYJTFyWsxO6wZQVsbz3kAOEzsBtNTmeRNcGdo7Oc2xkcLxkFmIyGzNiCgtXaPcOZ76bANuCS/Sstif5jTvP4SkBdACNYpETVT4B/k9VnLp6KPBwKP7vVG1VvGoP3UfvgtoPKuCBlcSrQJfhoB4DnWMPYdxrnRKJpRdvDbcI4ZXbbLcebcEIyME3Q0InXKuKlYhmGMDMf4cJgA7PEi/hzMeXVAzKvmC/k5S2AECWTgMYKwbvuhzeKhx/r0rKGxsg2mQmfxZ8E3EZEK0rwAJiPSoS3yf3QX2s9ZyvyuFp1TFO0B5906xc+DNxYBHsswIXuVAGQqwMgiAIQk5cHIzM5MpxkWsVnSXM9uvCVvB+YKKfpuro5+fRoFwWQziESocOxMRCIE8GBhKnUMhP0oDYnU9KIHgD4k7n7xQ2gfkL0Sn4xi9T05OliUtO+zYLbZIZcuXDx/zIL0u5JPPmPRqU7ZNbv4AnB0rCyWyY4JEJkifNSkVS126uUcC6o7d8BXAAvk1nJBlyUBJH2IDjG8mM/4oCZjWHTKPfKHfG6jv8IfBqYs/CSMwiE5XYHMzM4qYCsj5LQLkiIN+WFqGwJrPg7MSa13P8NSkWsFpqpFlte6WiwA4CINoOF1NFWEde7UR6ZAVsloE+rpFIBKE7h1qLQcTIQsl9ctS4WM9COJBGX0YQuZl4v4aAT4ZByYufSTTLc9L5Mx0mEMlkt30+Hmu3Q8u5oOW9PpGFkc4TdldMoxmUN1GHUubQM4tnhfp9E9GA9NkadeS8+Tj/4mUommQ6hRZDqI6sztxkLH7jXMK/dxJF0n8Z8bjQw6Rpdx/sbHEnBG5ZYlMLIEWijweeJc2+6KAB1PFkyVrjNomd7Dfryk8u1bbNFvKTZ1wA5tnPZmd9GqXcMGTwE1e6xDm6f4nHAt6MyaGmaR0dnNvCGrgI67x9vpLr4Bd9+9SrNmsHT3OqAVFgGj4FfBrrTz7F8AH7AdOgZaAh1qvi4KV4MOTxXMB1vF2EXrG0AqdOt5FCw01gqxKNn0PuGPXEfJgtoBMARNP6qvQHPdfg8ThD4faXerDr99/X2aWn+SygffUCcEBkT/jxa7dlkEzT2YCFqYa5IMDMxMi517tc/f+L9EtV2AiaadDjvcz25umwUW+sDoL0HRtHYLIEc9kwLGSDNV0nRlwTUBQbdWTgtwWLz+AZYDNgGZ6RdhcTdzrAQTctEL4zei72Q27j5LrXtfkSPlKYCDhG2AkKgqbNVZHlP7FIozZb0F3rwPjXWuzPYvQKSaJTW6jr06+C6Tb8Vif694H0AxKF+IDqrK/oB6Me+f/5DeHk+nd4CPrWIqGIwTwLUZ1q2jItA+jte1GbPje/TPuEBHI8q6gnWR7s5bX8kibubj0GnUpGB1QUnnknMqMx2N1PLzRSWQgcdFJZe/F/4U8yhmM51WgA93avp6rGELNnnQ0r5sCKG3wYAITNjJ8XkT1vcrvT+6MAUf7Ps/+IJo526a60SdlRXgwWJz74QERnvP0yJmllNYiNkBvh0FypVMXamwwigLeOfRP6Ty/rekNAeEuHjVHiMR+dP8Zjzzw/Xn0vdUJe02/T8i7wTRKa1TfDQ8Lw8LlRUAhtKFVSaE3fKvfiDNt89/jnTfyDMKnCWADY6PLTJ0ulC3YXQs8d7GH+EUn5RCgfFeG5BhfZgw01gnBibGmiLhn2JUiMch107c5/m/Pdwn9UJtzpHKBGmkCy9gB1pkZC3xa2hZLM+y8mZuRXZtKv+aCKzADGFyt4QjcCEz5XXRRl5szzIcmExaJGWrljCfmJiNAm7tSMz2OPrCQn41sxE/hawiZqn7R/OkPwj9DxZJ0/iE+J/mGP1DdACWTTrWp4dHMEu/jsnmDPEsW0H22tOdzXTw6ue01ZlLPy2V6e30EqGxjmnABf0QXfHRF8fzh8ylovE2nB86jeontcTz46UF2I1polbw4QB4GEmm71TDdo7nCvJZbrsEMvC47SNgTPevYnIwCUJUVIs8G3InNWzVWytf6gfyDsc460K4qx7MOVzs4lTYgpKyC3KOWWynWcxm3v/MQoZ5YlATdMxCw8sYPPkjoY9/iKqjZ0HHoFN89DnKvcIHRT+RNP8gfDI8Z2uTsF5CQg0LjdBe/Rc01VyQAdGEAqURu+5gWGBVquX7aUqTi4s3rEGEowJygv3wPXbfYXphMQxTS/fCTek9rua5KmUgkDB5lk6cLNY66hYyDbJImoMwsRgqG2YpwFDLa/ucaBXBkwAQM8rUg69TAmi0BBsASEGQoMdU9OE46rEjty7QhMEpH/0+wJOhzzqfJhguOrLvGduMxZmNnyFSZtNRsZz2FnFiZezipnxpoMMLEnQIzDVTrpMxcJ1NgtEqRow9XFsJM0sADuaw4CSDjr7dmD+8gAQy8LiA0PJXektAClb1PY3CEoCsspjp/LaKn4V24RWe9cPYxl69iz+IFXBrSrlLK6N03dV+DhPSXFkocHeW7DxlE2ZJNDW3i4+HC/uA5g69uMPiRHGvkuJeOpVGbY0u0zHg6z0+RtNHTgioe5kOdvr6ZFT4EkxB1wcDIhuAyaQ0S6nsByYRU31XsiDIcKgmBW/0CzVBKv0/MFO0NCuxyEOn4B+BWUaTD8DmbA4Kru43zX4Yd2vOGc+sfhF9A8BLMzAGmBlaXHsVZjBMKhcxJ7CQGmGkqaQgMqUww6tRKXcepramJ0xlJWaoQlMPjEUNJBv+6qJ3y33Iluh4DLCbEtgIPPBJgdLoe1JNcHO7b9LcNOzPMua8WaKW9IdhHo2jCRg8k5l/jUALZ2vKFWgymeczfTj021gnSZ/POmc/gOnIobHjkH4+Rz8JZODRTzr5s8+SgH4gLANpjWd3UA/ZVe0tzkbCozfbOxEBYz0Ys6BuQYKYt0N7drNAfdaP82UdKWc6h2keCn/5aDstHuN8OcwOml14i/wY7SfkyNBJkx37OHd9nqvFwpeg/S2jrgnH34v8DkRIdDTBGPKrv4A+Dh2cLUdtLNxFAcCwYJpJsARg3jvPEQs96vnGfXz3+mKRPpbKx1xnOftPQNEoPyvoaC1TXI/U8sXdJ8EsCQgKAF7SiZTw52KGEdmNUhnl3P2OtT8jigjweHr/GzKr4kdj5I0Osn3aFEBr8XiXsbmTFmA/ZjtH6bg9lzqCjzE0QYdgQ2Zj1egUnUV5WKp+jtw45sWZYyPg3DRc3sWgJR2SW5bAJUsgA49LFvBtPr0qTOdT1ajKrcQPZI2d1TFOqPPs5Hd4XiMz6eZ0J63gub9LhlIjYY7w6G/qwRiay5LJWjk6HGnjVDqPw+LiyW4o9hkcKFv9zoPSdZE20kFKvsD5sGqZPOoiNHyfnncnykNnxnBoNDJiFaYC34O0jSkGh9YKB8jiPU6PRuCY4t1FDH+HOhx3OAakMkqEB541fS7mCj8KJufjexmplxlTMkmyGy3Tx2NSKdYf4sNB+XmAR0GYcWGkCkDSHB1x7GXcbrc/dTz2d3XcTTjHFqZxF+wBsno1gfEs80DQsYgf0gJj9ZTxV1cx6vWN89+r2cY60Z4Mxww+G1EtljGt74bzTtCxAgAxBN3S9ebmML35WWfRDDvOl3H+ZHwSyMBjfLLMZxogARfb8IpXGaIELTJ1Z7pKj8mEeng6TQZG60sQRYlfiKGDW4YSsh6bLAzXvZHAh8uZ7MYyO8pFMpRO488g6IBpPrcF6HARI79CiwXM0MoK35RLb4IQIz/0O9BMoC8IPgmWdjd/RcdF7OXfUuc9TIjZVgc4x1769U7ID2j+0mE08pg8/l2YxlqYUnTcDb+RWWRpZJLgZNzgsZcMZFL8bViWhNOpichMfBbmrx7H12MR7x98WZbp1yUirw643iNCoEeBugIHwYZAQ2BhCOwdQH7kteGDYDZ4rzG3RJI9rqcO0slQo0fX5LcuWQIZeFyygPPpf5WAKi7MDChK7cxN06ejQ0Xaw06b5GBExXRaaQNgskbROE0xpoQ2eZj+IiZXalgQPBr6OuFNAzwWBB7sJqcIJY205n2cJsPxUV8LF34WDqvAQr00l3mJz0gmwAcLF4tX/C6/ZpinabVdXDuGo+IPYfIzi9yN5PtxiVd+Jacm14R+K/pqtB8QnfLg29TCLGZ4bIQ/m1XWpkx9in+/wD9cV1noMLuc2lxbMqQ6InJAz+c0x2SbMOEFxugSJsGN+f7jzVuCL4tMvrIaKvA5plJUeQZcWFxxeUbgwTNAZAHgYV2jYEQA/LllCUyCBDLwmIReyNcQJhlyklGYrpUWK+rBzABECJGN8t74fmxhirEAloXptkkeZmEsE4qpiHtaT/igjc/A4ske4GOf11ApA/RuZZZT2I7a+RBfgNglD/jSZfRdc1OYYiwEV8rC6Ksgjf/X/8F1/ZXKtYTNXsT34zKu90ufU9CBL0eF82/7j/8ttR4CPFzoZYwEbjZl+MUbv+mYgbXqABZbgldNZP0sXXxlqjoJP6QFxqpj9rxB3dyS5hETfK0BLpb4vuzGKq81pcxrYmEOyW7IgkQobIiDP3LLEpgQCWTgMSEdcZsvI/wdEMC0ivIDOmilzhRJkwAXVqldQYuGjRrzzCYgZI+d4iE6WvBhoiXcEgn+qPMfBCDhfFPY0LWbz2NDD4U+QMiRy8EFDPBRL2BXqKxZZSKvBMmqIsqG6zLbZ2RGBSCl6Z9I043vh6GxEXaKMM7xJRhw25P/sTt1mSpCcU1vLhNkevgKwDH11T+y8j4KHw6TfV1hj3XlyBVoNlsiuZhAaKsLhPpIWV8Px+g8Zpkpc75wrHNC4GDYq35SEZEipgFUWCV6iTFgJMo8gNq8Oav8LeiYlgVpEEqf38wfZQlcpQQy8LhK6eff7isB6WGWmvAHmWXxWcMf5AGhfweYZPatXgsjsgsbYuGsA441KmYfvxB9QiS3BRvzRLXMwgzUwAPN3a+ZQZMFPnbPvp6Qpn9COEfic9L+9r+w8JKqm6yo5evvCdt8Hqm6x16hdULuPS4D0FHBIhiGrA9HSdZRM7NWgg8zs7rQyzRMSjMV/CwhsrIeZjnte104X2MSnMPxeZ5xOg0IMYuooEMH0AXLAITfBuHoOojCbkRyPj6zYvQJYdemOTcqhf/ju31/Ln+YJTABEsjAYwI6IV9Cbwm4cVMJGxUzw252HpvKEn+cYooRXJgJdZeHScpOAQp7gA4fBzipmv1xDb/Q9eo4LRjNYoRHv4bWlvEIUwsOggU5RyancW3cfx01gQmI9NwtF1uu0TTiZUS79OPzJ+dOLnQlMhlGjOi0+fC7eFgMr3EinSjQ4Q12I6MSwKPULCQi6MNGtWDq5gmlvcNYfQJBsrA4Fen/52ExBBc+LEtgLhxNKppZ6hDYVtohA+rZqJQLyTd/KUvgC0sgA48vLPD8cxeXAOo7tXWUYwuJ7iUqpkrLKPTTCmW8tJxOABcnVvckgdYJyZmmCdVdbJ2kWfIl9N13ujDYTCoVvgLQ5CbdmrAm/W6ERjIp1kMSYrGXLqh+m8iWmay30teZYMJuZpTL0cQyQzIw8nFU5MnoULDP5GDjzq8yyiX1O7ay4i21aAp8PMJZWAQtIXMO+JgmYHwRAPGkjUlxaSqdri9g6ZtJ05xnGvAxzZjXr0MTiiaXiEoRkPPojtx+l5M/yxKYOAlk4DFxXZIv6DwJuPCGouUfWRD9QeZ8QVsjPXtEx2Aj7xBu2jkkaynYwUBcq8CSRaQ+sOe/nFdfCpw4rUga9UNc4Cetef88IsW3YaI6UrJbjlTpPT1sJ+0GLng9mB8ijTz3WApCWJAjJ4fmFeQxcS2AEmPJ/CEUk4trDcatt9EFQxKJ7gDIOJmuzQAmFxiL83OAj1lABmxPn3vs99nEySVfUJZAVwJTa2s40g3RNjfZVV1CG/b3h/3pfJ3D9edNlOeHVOuwHRWpx1vbFEOzGqshjSzQ57WoQAroOCXzpcnLyn1SdxPeWLQP0iSOTyu1WoK99eJvVET9MVKtm179praoK7P3Pk1RAG+OfmlJeVHMTPPLRM53s68uUgPmaCOd4qh8SmG8ioJ9545BgJWF5SochU92tlJni/wtmAzNamvrBy4mcXz2Gof5OntJ5eLvXXd5TpBH1sU7IX8zS0AJqKDjAbvRhuWYQpm3MbMUhij2cfEL84WFyixYZqVU05n3yfdx5dIGWBV7G6nYekstli1qg1CXZZAPy5Vf9MUvoMKHJwEgKwuwUViv2n7LwjzBQIuxExFSmocwi+lkSo788wUAk2M12xZj1sJxjltZkGY8n//F/EmWwPWUQAYe17Pf8lX3k4AhiRZJs0LoCU6X/N2vabqoLM9u2m3NFy4cfejtfuf6Ep9VhM+ajruA9YhEYl/iRyfgNyqcaEsL6QG4EuXnJ7ppqsNUEkXqSMFv5E3fJiNncb8DivgZIh2Vhvt+I3+YJXBtJZB9PK5t1+ULP08Chbt/ciKkI8qsYzsPy/o5jn2eI0wt0uGUjw//CUHHOIGHPgqae6TUNQPpmxA+JBf7nRbhly3rgfgAhNyWJuCqDmB49jH70q8jN5iFChBq3oyooSKrhT9G3Rcjn+38LzRjBxBbAGg1CWG3O/94xyZOo4INzWgV4/Zcs8z5Z8mfZAlcGwlk4HFtuipf6LASkLYu3BEbZirb0Qd0xDlhPNK0Jhbs8gKCZuEY9gcHHQfo0OdEkFDsYet3QTIqw0VPp9ARf8/iby5Ower08V0ZdFnX7fOoXHsIi3XowtyfxfrNvSlnF3bCVtMR4dWODfualPTWfBm1D35z/k/fsE8FmIAOa7bgJfrpER//zRiNsUrot/4eI9/fx2fLf2UJTLQEMvCY6O7JF3cRCZQszG0XedmAYRZmFqAKvw6TVI199+sNiC3cbXs9lEu3WF1FuftILmUEhBE1gBGThMm+lBGt4UJVMyKfmn1cgMPHYQgz0kXkN7HfkTnins1b0vb1mRaOxcoV2SifgoyeBaHVsYD7DEMi+yXbUTomZBgABOUn5zlzys9/KbBhTLW6kS0DT8i1FN4f46S6zOsaeCH5gCyBy5VABh6XK9989iuQgI55FueqsJnLfgxs7E5d9CM76Ijsw8Bzc0BFHgYLv5nuvKB2R7GDj8LuVjgQVr5vJVP8AAqcEE0J7mIVmTpJRNXyu2evycXVe7LoHQ9RDbjmVrRKwCAboJnF18jCJugI4EGfn+ofARs0LXNA0bWEz0RLlmR/K8KOC0BAsQjLQQbUmomAdTor33FKEgBZ4OcRDBesysB+IuldzcpgSuOe+Cu3LIEbKYEMPG5kt97um3KBMkLAxXmgmQVRFSwKLUJpzYvRkXYfcwsfEiNl9CEh/4Z+Be6809FulLk3NLbQx0RfAB4tMpOWXI878pYsjA+uLekES0KpCA8WWOmAGBE7Y77gST2dQMN7xlRSwRyFg+3mW5gNZCGbxPtti7IJPogO0V+igB0JE5dyMikcsq14th8qwlU1s8ArXU4TeGhWoy9lsQZlMOXmYszqMFzdpn69HOnns06wBDLwmODOyZd2QQmwQEVUAIuUIGTQwlLKeMAu1I6l4wcecReaU4iaKe89jVowHequtDZep+LN96l4/yIiGUqut2XWSxYrgVACjLRI316aAXNpPZVROZcICSJ2PpgRBvmvXFCEE/k1FmPBljkxKqNbNJ28fg57RGixQIRHOyKZ9JPA1GLHG00iw3Hva/LnP04d0q5b8yUYKD+7BKDZyM5k/wLIOjwb5sqGiedcMCywwnHY8G8vfSBDEifM/2QJXD8JZOBx/fosX/FACaCyYRTCzFL0Ud8uAjYiDsxcqkmE/GHjbw2VL3MBiChhNYx0KM3tQPRNS5OQpoF9TAK7POvDgX9Awe5c80ubhbLECbKlI6QghMiOgsiOMCVxtX3ucPz3coVnDFOLUUEAjerFX1P1Dvm8e1nLwvdkOpQd8o7kW7NLdW6WVQrqYVpJ975CjuuEucI6ecwl30tFpdhCUxks1VD1ZAAeOg5HThZBSG5ZAjdUAhl43NCOvc23FQtK+HbAfCCIQSo8qr8KOmA9IhLhsoWnM+s8iyK77cqkZbAgxdufU/XmJ9iP55EcLJxH93fq0ModHFHf/xJRMC19Btj1l+7yASsRCXHZ1zsp57dPDTfdeBW+HMovsrhiaglHYp05BRWwRBVF5AoZjpWHKVHBtrIGjynMMXN96qx7Wbcn5o16MoxCx+AwQKceu5d1Rfm8WQKTIYEMPCajH/JVXIIEmkiHYU4dWSJdGsp6kRjmOxc+Rnqf8MqKrJYV5hdBSGnI5Rw+HgsAERNkRZ4O/BXI2JkOeT6Aftf50LBMd+vuiG/brjjMSp1UHhCSzEOfiQCNMkdmnAVcVDIadx7VzqN3HqZq5UEN7mC0BJXDLP4X7tf8xSyBLIGhJJCBx1BiygddOwlo3mgeAy4+KPxuGOYXjSXo0v1GtkSZd3w40v3vSIO+SdXZNynBfrTe/og/w1uYD6vPAjwEH42fQPM84P5u7McAiXAUheEo1jGj3H1G5dqnMBz3I3FXEszJgMhkORa+cNNsp7mPdGVDA55g5778pX5hyeSfu+0SyMDjto+AG3j/FYuMFHdLUwb3d64ebxwzta1TlOv/b+9cm9wqkjRcddTgC9j4AsaAMZe5MbEbsbH//x9s7IeN2NnZmWGGAYzBxthuG4wxbp3a50lJ3sZ0S2q11Bcpi2j3TTqnKuvQ+Vbmm2+GmuVRRxF0iGp5nOfUfp7OuJBh+5/eDDJpR2v1XmGzc5BPTa0Q+ZDHYBqmVomWgJBNGmNOTlXvxC7CZ40W8VnCKIDDEtly6d0yhBfTyas4BrCxezvqEBhLWqyoIzLPc8V8owLKlNExz333OvLrtMCyLZDAY9kWzesdvwX8A67j4SPkyWfMqONM2lNNEKWaQJU4dc54z2p+DQjhFN9LKh1AiCQSUi69Xbof6Mvy6C48DwDId7dKoUlas3pjE5UeJN0SGRq8/VEZXPuw/PgaqRUiHA3QFrocliObVjkRA4JzCJcBaiGNBgCegN095tdQdhF4hKLq/nB5j3fmj9ICp8sCJ+X/0NNltZztCbfAOIqAXoMaHTMHUYaJ4FikXWa+YZUvADQRAYkoiDoTVLIo621ZbQiLqU1hAzyiHvyzyomcwGuPgJnN/DpAR735B8CG4mtU/ViubKSAEQ7+BMzeZ6mhRKouh+C2TQEdMW/4O1FdlRGPE7B7OYVVWiCBxyqtm9c+Hgv4h1vQMadOg0qgXf8z9AmEqKIa5nim/eu7jsiT9nWJ9BFiWN2je5ST3keJE8Lppg1TLValCDzeohKI9Eq/Axk4QMccAPOo7QXwsDlgL/jw65mDFCFE2eCtnBj4NHPS+YK0wIEtkMDjwCbLN5x8C4yiBqPSyTkcEmCjRVM5oggnCHhEfY26FOpTIPvdfoRg+pwGafIGTtA8j+x5kCfBupWKt7KlA3zVNtLI6Muoz82RzWWOGwWxFNBhf5m59suqm1dHPXuOpKx7jjXkS9ICq7BAAo9VWDWveawWULRJ9U+lquV4zAy948jtCKq8tgJUx8fxeMlsVtrgXI1ylLv/QKWTCheqXKqcD2W1X3r52n8bZNpnpUfxtXz6n6Wgb1Ihk7araHaYkrKKZfZuH5mZJt1mR2ARADljmBaMjsXK48+TIpxxvfx1WuCkWiCBx0ndmZzXwhaI4kV6cVT7olhKOWsYBhd0jIFHP65AOOqqiJHuCCd6BbGsXrGTLQ3l6v3bpdz5R6nbd0IevNAEbeNAx2QPAR+Nhm/Du58jJgZ34sn3pYdoW9XuUBr9HGmpLfb+2HkSqpBCKqVJXWO/+Gaygn0/289lRJD1uR3xVfZ9cf4iLXCKLbC1vb091/QvXYLctuThvee9/7y3znnOt5/rbM92ljw5xMv+ybflOUqfvaJbU0pPbdhWkS4fUNmydRZl0Iv0Q8EJPHr06EifzzghSxp9DLD44W7p735Rdu58FkqdOlvFxEwzbCzomDy0RqUAZTsAtC2k4+vju2UA36NS6dLd+F30ZpGIK1FzkXH4v0vsEGC2e3i/DBCDaz9s82whfDZtMvBXtqhmeuXy1dJdfRv+ytWR3PuU9xx+nr++eP79zL+fv34qFvvJtOdzjgT4Yjed512reMjnue9BX5PzPKjFpr9+1fb0tFtVAaXJWrQlD7LplEcdUmmxPNXmY2pk2KgL977qeY6shJOys6q9RpRNv/1paV/+uQw//1MZfvE/pb/9t9Lf+7w0Otg2+R2G4CkTDgVTyZZjbYvpFl+j37LeiAzhyN2v4f2vyw422/nyf8Nm/Zd/Ke3rv5fCz7Wp1T8jWfn54dqh953qlQrwiK65cHOMXk2Vto995JmV3xFdiumgO0eq5dDzPKLHIue5XEOvgz0XOxIs1455tbTAci0gr+PM2dIRducYOaqEIKqxn+uJxlxEE5pS3EQ+LK2NJm1GSlY6CMfjoCKa8e0XpRHhGPJhLxJ/1geZlJSLqSBGnODhMUQKSMIiAMlw/saMfUCWKbK2fbcMdfCkpjp6tNRrN8vgrZt0pJX/Qe8WRceOLH3Bk4Z+h0CxA3hIDnav9h2KhVmBZYoIyXxB86LRmn3vkb9IC5wgCyTwOEGbkVNZkgV0MDpoPjq0MHrIegEmyj55dkEJzkvQIX8i+B6vQPBb0YiSXe+pQ/rhUWlIo7evPiW18lkZAkAKkukBhjj1VlMGKJi6lnqeCA6qnMEdeHinDJ+QfglQss+6VjT/47ss0Q6Iw5W+LA07GP3Zogy6F3AIxIhw7AQv5kEZWPEicPOz5NMLCI3ZmG/OEutDrZG9DZ2VZwAidFc6icB2nd1nBCCSDB3PKwTZLSMerHOf1+eP0wKn3QIJPE77Dub8f22BSEcANnTWaGBEi3S7mu4juGXoPqpZICtGa3WjHraut7pgFSMcE2RW8v9D0io9qYH+HhUr26RTfsZZ6qQgxVYcZaXpWYd66QDnWS7Rg+Qiuf/vt8vO3/4DMEVreAmMU5zaKqZ/bNcMQAl4eBNbXP/9KKr1lHQKIKw8+rY0iKbqZjSqXXbY7yGRo8Hdf47Exj76F7Q/boYGiPyPVQ6fJcGrkY7OVI+S6dPEwwQZkqHheJRXeGYFvUTtcqQF1tUCCTzWdWc3eV2Grv1j7ulWAMFHz8l334FT8L9eJ2E/FPPytlFf9pg4pCePIyXQ7n5Z+q/+Vpp8BKofzPHXc9eZM46RU309/0YZvEHfFoBHvXK9VHqSOC9TMR1VLg0J9V59j2XP86ReD7KogLC8frW0tz8sPYql53Z+KL1t7yk57h8jrEa6TPDY4M2o8Nrf/ybSWVs4c39WLpOGofS2hSw9z8cKRiPN0gk6fn5ChoV5jFNl+93KiEcnSLbDrmD3yFJC+80of54WWK0FEnis1r559WO0gIqWATyMeqjtMWMukkrj1Ey4vly6NuPVB/91XP/7B6UR3Rh+DnH03lc4yhEg6t68UTrTASGRjgS4jc7ig7nrbOGsRHmwYEqlTn+mo9ogJ2X6oZM0DCATdPSXrwHObpaOahYB2NZT9u0x9tXGaJ0001gShvn5zmf/Ra+br8vgxielXf+wFNMv50nXrCCh0RGBquxrFUz6TM14VEwfFZ9RPtzbGNkkbobV8ten2QIJPE7z7uXcp1qgkq7QUcUp2f4ns4ZETRyG4KMaHl/WILVSvTZlle3Zg9J/Q5XK9rdBOJR70AE2qk70AtGNi1doeAan4ywpBcEFQEPQ9IuhbLgVOzrheXRKfvHm0/uNdnDdTa6Ga6c7bb1Imf8FSldx9uplVPgxnRwZwUcAkO3Sk3qRrNuIeg0BfSYx7IejDH1EGSbOfkmmMf0VSrNEz0z9zBoVmfRYzznW5FwSdMwyWf7+lFsggccp38Cc/hQLEA3QUUXagq9nnjzlS+CcTLWMOtVOufYBfhWggxTA4BGE0K8pj6U01pTJ4N3flEqko164OopgGNXoSLeQFugFG57w98j1RyOxcVv4KK09wFxO9Utxyr1Rnl9FepTIx16kTzojQq8TyUBQrIZcOSJjaH20h3BAAHumqfrnf48KlwHcnmYFjEBmmUPgoahZPEf7k0pf3HJr13P6Msh88aL8Ii2wPhZI4LE+e5kredkC6l0QvrasdjjHH3Q5AIbmVQwd9UOZBVVevuFL30dvEZwbjqiDsNo/QxxM4isRjY5yT9Mrhvw70ga2Qq+7QMY0aqGloeW1i3AVcLB+bZnpNPLiS9M6ld+yRsm+jXX3AIW2K9IzUpj191hNexQrgPg0tn813YKqac+zEOXLAgNJqEZIACftDKmRsP1y6kiCqGxptuBjWhnteCOiqoUITjQD5DldzixO5S7npDfEAgk8NmSjN3KZgg10ESyjjFbzM4wgQOjNzXNSHUxC5DqvRUPfvlcnp3OT2HgWh/jxv5XOElm0JUKzgdN7gI6D3OMVT/W8/wIpmkmFxjqDj7F+h/13BFxN4u886ZGJTUlZRSpLHoVEXUinnURfr8FnI1Kt2GzupZTWjOdl319DLg3Je8EH1545SLV0RrDU8CDilSMtsO4WSOCx7ju8yeuTCyFXwlB6VAuMz5L7RAfCAY0jHo0IhafiODVPHNiituT9pk/agEZmV+FycLpVX2QiEnXQE24d4JwgRlaqOSyvraqaGtaf43S96BKO832RWqLqoxkZoqKlqOExAVyzJubeCTAGOHVAnpVCVQXYcZVTNSq2pGE0xY60keIRwKqGO21PxoAqojTn4avAWSmkXXKkBdbdAsv7v27dLZXrO3UWCAIhJ0mdTaFnS1SAeNLdZzSchGH5nioIKyFCRj2ae01LfOxzMX88dnpNIiRRitZqGcRpHeeyK60y5Qp7/spqnYiYwGMYUFaq6NkOnWvLDnNet4FzbmhbyNkob94sjWqjBuiKKNEB12pKpgMARoWTUSeTGtgyOhgfYj9eTMNnhTJaCcpWtcTzMw14+Ebvy7PZ+YxaZTMPCfrFDfOLtMDptEACj9O5bznreSyggzZ3bgjbChFPyQhLEf/e+912Pm2kRAyRRyXEY1wTgGFRZyDw8IM6isk1onfM3nef+6dBpKw6K0mU70BWfYCA1j1SCJ6wWcM+EZ25b3BiXgg0gBPTiA61C2+NQMcZoleChkWAAnsRfBDeGxov43W6Q8sYpm9M01Ub+rkX6MJM5d64BoXDBKZjqfRFANUy5p7XSAscpQUWPMod5RTzXmmBBS2g0wpFSICHhE7SLjO5HjpthcS270UVRITNF7z9qt6m0qofvWmCi5fL4OJbUemh08Ijr+q2R39dox3ydASNpJXktQjgJus/+glNv2PluenoFVMf05H2JwDuDABoGW08k6SOKoCqBaDKVMt0K+dv18ECGfFYh13MNextAU+4ltHaAwPp8R69jJ5mcLQ13fv145/K72jIcDeUQtsWJ2zTIyeg1sBUULFEVGVO1E+LIlkApOFTe7YYxRF07BPNGa/ttH0yGtFL0CV10ZCYJ1ZBNQrRBDgRUVbLuu3kOqpsOc7VAQbt88N+jKJP058xZ2rUJQCxvBWVSxeNrB3nsvPeaYEFLJDAYwGj5VtOkQVMdXiSRHq8IzLQkNW2cmXqwIEMkSMvEjcvvRslmCNOxrKC8lPvvs8vjcTgzEwB3b9d+ttIpn93qwxV6nzykMZyj6jOoESUdNHaDCIG9jmRPFu+/FPp7t+CYIrAGumlolopvI92EQBCRCT67URa6zhWz95ILCWNV+mSG71j3KsZwwjHQBl8ns0C9yRHWmBTLJDAY1N2epPXKaHwEsADddD+23/OtESUvurgEZyqiE/Vn66WfoW9PfabUJMzYKkn5Z/2cml0X20P7rAGerx8Q2O5h/Qhse+LURAG7m/Nhg6dDyMJfrD+ehbxNXRW3KOIgnQ4fMuKrQhBgC2It8sqi53XmoIjq6B4VspjIh5P4NwM4XfMGFY2dZBlfTYrc8+RFtgUCyTw2JSd3uB12vWzvkE1xBvfRki7DEhJTIsMkNJoz6huIZVRBR/ncWyDa0dacRAneEBHj8x64RTd0xTO3i69nViN2lgOakpoHp2Iddl700nKkD8g5YST7+59QQfaWyHEVq9/PFIrJS3WXjni1Att76sEX6MdyLWHcBhltVOBoKW08o8uoyvis7lllU2OtMBmWCCBx2bs82av0pJJlT7pg/JC06MQJdgHfES6YojolwqmOPqK6mWnYqYkx5UP3JV9YuRx4Mz6726XQn+R/s5npH++HnVgtWTTMYO8OHrRGv1rl9f4sOwZAEL1iPwWwVn3kxGHx6W7+l5EQIpS+QqtHYE7DwLyI0AtcuwRhWH/poIOCbPwOZRqt1NueR1tEXVmcqQFNsQCCTw2ZKM3epnIa1s1oPBUteMr1S3qdDTAxbQRktrbAA9C+cO33p/20iX9DndlOaz9YkijDL8hynHrL4CPr0IboigSxuk6xqaBjt0Wdu1EDCq26OG4yK3oIXVWIiBbN/9Yuuu/GXWfHdBALspuVxtLqPA5Bo+IdvCsSEyeOSzntROtz6NCcIIkwUiOtMCGWCCBx4Zs9EYvU9KhPTyIWNh6vqe0toWex3TgYVmtpZE9IfTI33s6tfJgSRyCRjge5uqog6kOK7gMP1G9cQ+w8SUN5f4Jl+NTCLHfAUhIMywKNgzrjys/VNd8wQZZ9HqHfZicTwyrjih5VlpeOxxkPrxWDkzZITKkEikE245ql95rPfuJCAhaLKQw5H2YarNqJCTXl1kBM+bgVMXmeEYa/I65yq9RnlUwzK7E0ZU2ox2HfaLy/afMAluXLnEqmGNsb5O7XMGY9/7z3jrnOd9+bpw9cUj1p5+RKgd8IL1drJSYMYJkilN5hXD+1vMnHJ5xdIbFcWKLjt3PZyilSpK0IoVQfSdHgJLRohYE/BIrVVTBHJXKLnpH3qe2hyJcpB2qKaQAMQKQYxye+i11Vv7dxMQ0Ybd5pgmg6iGf9l/9FQ4IPJhbf0V07E14PVSM0J+lf+Nt5NYBnHIp5gCOc/1dYs6RDnv+Y9nhGdkRgMyIosVSWPMQ4LHDs/jjU/bDv60LVuTMNc957Dd+ze7n8wBvm/nSnOdMEx3oBafdnhnxONB254tPrQX4w15xvkUHhIMq8CVqh6OIUzaOb68xBGhI4CSc39/9gn4rnJ49mStmxSn1QPoRAJ+oUrFZHA5LsakS1SrIawOCOnVDjKwQ7Wi2cbezqcRRT/AHiQTEOogoQKCtOtkI6SMbb1M5oj7N+9q0Tkdv2sYureqDcC/X1k/s4X0PPZgH0Y2mvohAg/sPKCEN5+9eWG3E9967wdNoanWgGtucV/Bv5pzDC/vQW0fAJv9DYrBqrt9TQm01jOCOaFdBQr/h8AOIORdASACROR1/kH59BrQh+9aT3mnffk5ZM0DWqNU+vKGRKcf2oFlguXQ9wJDzWBR0HHp78gJpgWOyQAKPYzJ83vboLaD0drnyDlEESIh3/0FUgeZqEjlfOK495oQjGeK42hd/Kj1AYYtoQadTvnB1fv0IQYfvEXTgYI1mqPfQUTET5ZfhLEkNSBo1veOp2ZSI75k2tz2mGz8K0EE4HzJtd+2jUt/+gD4nkC4BIZ1aH5TmWn3R//AoNECCRMvaLMvtBFvcd6hdDjN05IK9MZEytDbgMmxdvQ5Z174kfJyjTb1pBkTdGjyWdu8WAI/0kuAryL/M5SBDW8n9YA0hMmaZsQThB7fLwEaBr10N2fVepVd7v5jqQIisVQCl95kBPmIPeZmgTT2Ydvdznov/LjuUNkc1y1TQwRudm2qzzKW/+m5pV98BBAG8cqQFNswCCTw2bMM3ebkht21unfB7w/lUS1WNfvQ4qGkDQNDf/zrAwNC25YKDK+8CPnDsOBGFoOR9mMogfFCqqQzBw3NO4ICNZpdbQQcn8Xrn9khWmwqIIiHR1MozTug4yxr8i2kT2ed3E86EvWlUaZWwiFOtgCyJlt21m5AtAVySGHtatlsBQnShCqi0AUCs6fydI3OQB7LzjKjDIUfwN+RwmE7hlN+4f3ft3agSMvJQziH8hWx4RHeIyNjy3ghAtQut0QQjIBFFGIOgeUAYrwE2hT3ZgABz3VPm8Iioy1lKo39A/fQiUS/1WUjF9ICg6GAsAMJ+EckCHPTP/j8aYswmus4KOCD4TqqNAiTd/nQkNmcEadawuuo8a7PvjCkgqqUKUakcaYFNs0ACj03b8U1er1wHw+v88S9Xb+DYOPn/DMfCk/G0YWhdxwJYGEIA7VEMHVDl0r31Qemvf0j6BoGxLcLnOllARgWo2ChMYNMisuDnUXRh8IiQvNUpOlSvqcJlcC44rR9mcG8jCIMrN0plblvv/pbozrvR3yQqJyRXGn1olHHi7JrRD8uLAUeNKEjMwXWG425QSwBDhxyc7wEW/Fu5L/PrTWtcJlLEHkSTNrkWRkX8+TVSV6aDrB4C5O1Q0VOJgAyJVmi7iAAtOJ9IjxQAlVLrDwB4gi1TJFQ3DQA77RzRF0EPoLQhRNYAIzu2p5eUCiDhK54R9kuQSJRjh9SKZc4KzPXOzX3UdrPGqwA/94Q1BgARsPpM5kgLbJgFEnhs2IZv9HIj/I8bweH0b77Pyf/H0hnx+Jk0hymG/SIOcdIeAlR4HR8d4fuhJa+ohnZGMaieUNk0nIgRDq8bgIOIAo6p5+sJhyHIojp6xzwn+NErf/mvEQ4dlhU2OnHubeSlwj2pb90sg2ukVgBEFTnu+L0OnhHpBL8wMqLTG48XP9/1fTuHcz7kmECpyWcvVy8C+naNuLfzUzLcTsIXiAgAALYESkRF1LoYqgb6lIiMgE5uxQuC7O4r77roy1+OwVTwL4xCGe3hNQF+oszaNIypHyJF3Fug1p6yfueDnSLFwr3bY4DGnS8CeAbosHLGMWsfSX0FH0gtmDdvkmK5wb2I+Iz3ZXSR/DctsDkWSOCxOXudK51YwN4eV96LssvGiTr6nAg+9gMek/eNPzejFHA0hoCOIeJeHdGDSLfgznojHshlD38mHRNpllGqJdIYAg4BjmOWsxq9au9/AR1xPxxkka9A1cbWOx8gvQ1/QvCB8x4JaJ2yE3VEpJARtzkfwKPCg6hEbqLahyhIT8QplFuj7TxpD0mxhxlGmkhz1R3204oUARkRjh5A15sGGpwpHYRYYiVEhkg9CT4AGz0RqyAHe+959lGA8Srghr1pRsmISkWDu8PMPd+bFjjFFkjgcYo3L6e+mAXkegS5EYddcAQ6lUaVS9fgOsyR9pCQ2nYAKobuC0RIHUsIQAEIlFuPlMUobbHYDF961yTCIQ9B0MQp3SqVJjkypOCvlcGN37yo2jitDceqwMOPMwq+EUEyCsEabaTWIPNGBAduRL9NyoNIleqlEYWSmzJOE71kuenfCjT9kEirhgrDGErF3r2pK+bSIz7HiwIwxrPhiwAbc8VaTDPxbBhFsZw3oh0+c+4d13450uSlc6QFNsECCTw2YZdzjb+2gERCHED/3idEvHEORicI43v6nfsk7WkX5xJlslauxF3412qUZQ6cVEQ4XoeTQaSmwRPYuQxXAHJrlMsSHShXcGgTguQy732c1zICYUrCyg/2qpBC6kx3ybWA/1GohBlSBROls0YkJJUuawhIKnvKZwFCgEmvPU+EYzyHAB2QZTvAxvDGH0tTURUwdaAy7PG18lNaYJ0skMBjnXYz1zKfBcZlkxIsLa/t204ZSDRlqFLalVHapc3jZMaviUqK+e4+/6smpajB3+DUbymwpNjLgA+cWXAgSAVYPSIXYu2GUQeriNT7gJdTXu9LZ4WQ6aSIhhARcf3ROA8eiI3zdqezFjXIi31/ASUPdCUjJpJp5RJ1VBMN3vtteX79o1F6j2fO/cqRFthkCyTw2OTd3/S1EwZvOmyiB7IFOko+u8/J6H9H5EMdCdMuxzlICVkW22h81t/4pDQIsZZgRkUKUQ7TAHWG9sRxTn/Z9461KkKGAqlRkEZVTm/n4PtfkgKwhAAABwVJREFUlY6eNn4OcbgJj2bZE5j3egALRdK20AoZfPzvZfD+H0r/CnwcnrVmpC1HWmDDLZD/F2z4A7DRy5dPQMVB8D0EIaZLqEKpcjjQkagNMuFBFDQXNiZcAObRW1pqqSvaFt2ZMxAcqa5QaRUdjv6d3wGQiM6QTqk4L8/iG8cR0D4CrY7Ui1U5RA/6fkBQBBBmSkQNECJWdq21TDq0VKiAUR/lqPYxRMKU5b90rVSiHIMbv48UUf+cHZNblCMtkBYoCTzyIdh4C4RsNmHxcPLk4nUQ9dafR5ociFC1FZ+gBR1BeH2FElJTCAhoDS+id0GVSgtpbdIsVrAIOiSy5ggLaAuVT4cIgdWb2AZbWQET4EO5dMqYS8jPU4bLO1a9jyNlUlJDpIIGH/wrkY5PAixanlu+J32XIy2QFggLJPDIByEtYGicj1DMpDoi6g08KcstwHlV1SrpH9J2lpR6mXA3JIOqE2GlihwGIxyKWF2gWoUqDtVVewilvVwB1DQ3Ka0y10NpBMToDwTUIaBtgJ2G2LCThCsP5HsqX4x+WCobom1I0iv2ZRXMMrggk0kCHKMvDqkU713fMdLxCVL1H44qjdxno2s50gJpgbBAAo98ENICYwuo36DjGHKSrvA9Ko7/1Xufh2BUwYk1WrAfepjaUSabHiFFBylJlHLRHWS0TflUQEg0DgP09LyuwmXooqTz0Hde6wsIzGg7jG0BIgI3+DC9IMMyWcDHFlLp0YBv+w6icQ9C/A00AgCheuWQQ9DRcc+Oew7e/2MAj0paLPg5RqkOef18e1pg3SyQwGPddjTXs7AFbGimrLgEwOhE6yn6PJoZnqitdlEeW80PRcL4aHZVpffJbuGxiErIQ0Am3ChKZ2pEVU7TNzioIeRIe5aYTolGcwCPnrRKTwMz1SxV04zGaqxi4rAmnxde2Jq/8UUkSA4FH6NaFLnBRKjs8ItS6fDJVUAlWiAAhN4Gb+iAdOqwIPQ26tI7JhP7ekjFFEmTm4EbMrmYNjQqBv9m1PjOaBX3o2PxgPRYvXwNCf2bpSPSUa4g5GYEy71cc9vn8tICi1gggcciVsv3rLUF1FmQuCh46N7EibzzcXSSbXZNffzdSP78CZLpPz2mmdjTaDXfhZOimRjOibxIVF0M1NdQdpscv2mcSkXKc/p1tEipADIAIKHPwam4gxjZuF+WWi7v0erYix4aW2cfFiNIRpiUk6cTb6X0dkgkpH7/gFJq++gAKhEkU+6+qkyrrgsgpII8BDY9z4Ty6RJYO7VFiFhFSoeUWAfoUDY/ut0KQhA/C97Q8paSV0oLrJUFEnis1XbmYpZhgZHzh/dB07V6ycgEeXs5F5cR6RqflhvAo7dPi11dx43e0JsCrHDG5aTbqbypk+LkW1/DUdGIrFL+2WjSJp8jeru8VA6bp+Nl7N6ua7AXisMRBgkSqr+JviuoywouQoyMtMuOlUzyQBAnq0RBbHu/pQKt0Q8VUbnOwPQb0Q33NYAkkTBLmytKqqZUTJuF2qo34fW5lxoiR1pgbwsk8NjbLvnTtMAIRGgHT7p2clXzg9SIaZaKU+ohKKp2OuSjV/MDJ6Xsd0e4f2B6RUKoug0AEVMAhub7J0RI+LoaFRGk5DhSC0RaBts3QIT7EMReSpYre1nZw0ifUU595gwREvc3gMcoZTYwdcK++hFRLb9/1X2GIDzgsyP3dGSH/DctMMUCCTymGCd/lRaI02tUoXDSNXWya4Q+BBoRnaBDp0VYfmCaxnQL7wl+x8uO6HmehneZ8Hi+NCIh6AgweDbmYLAq6BzsoSCyXrhQBuztMMAkr499JerBvu6VDksIeTxbmXc9nRaoDx8+jP/fZk3/kiHnJY/tberslzxynss1aNpzf3tG2B5HFV1a+OzwRO1XnY7qZdDBz9OeWml5YyX2fPgQGf1Jj5bxn0fBigkUP++xr7NWtJJ55t/PWWY/0O/THx3IXDNfPM2e/HU8vrGK/xlXsZqc53Ktui721AF5+jWy0ZFS8UNRqz0jHcs14S+uti72/MWijvGbS5cpjZXTsWtfR99DMF0AdKxqKbnvy7Vs2vPo7HmswGO5y8yrpQXSAmmBtEBaIC1w0i2QwOOk71DOLy2QFkgLpAXSAmtkgQQea7SZuZS0QFogLZAWSAucdAsk8DjpO5TzSwukBdICaYG0wBpZIIHHGm1mLiUtkBZIC6QF0gIn3QIJPE76DuX80gJpgbRAWiAtsEYWSOCxRpuZS0kLpAXSAmmBtMBJt0ACj5O+Qzm/tEBaIC2QFkgLrJEFEnis0WbmUtICaYG0QFogLXDSLZDA46TvUM4vLZAWSAukBdICa2SBBB5rtJm5lLRAWiAtkBZIC5x0CyTwOOk7lPNLC6QF0gJpgbTAGlng/wBCd/1ZgIQM6QAAAABJRU5ErkJggg==;shadow=1;" parent="1" vertex="1">
          <mxGeometry x="540" y="537.86" width="261.99" height="233.94" as="geometry" />
        </mxCell>
        <mxCell id="nfACmutVR25ySbIeztQv-31" value="" style="edgeStyle=orthogonalEdgeStyle;rounded=0;orthogonalLoop=1;jettySize=auto;html=1;shadow=1;" parent="1" source="nfACmutVR25ySbIeztQv-21" edge="1">
          <mxGeometry relative="1" as="geometry">
            <mxPoint x="595" y="610" as="targetPoint" />
            <Array as="points">
              <mxPoint x="600" y="570" />
              <mxPoint x="596" y="570" />
            </Array>
          </mxGeometry>
        </mxCell>
        <mxCell id="nfACmutVR25ySbIeztQv-33" style="edgeStyle=orthogonalEdgeStyle;rounded=0;orthogonalLoop=1;jettySize=auto;html=1;shadow=1;" parent="1" source="nfACmutVR25ySbIeztQv-21" edge="1">
          <mxGeometry relative="1" as="geometry">
            <mxPoint x="550" y="530" as="targetPoint" />
          </mxGeometry>
        </mxCell>
        <mxCell id="nfACmutVR25ySbIeztQv-21" value="&lt;font color=&quot;#030303&quot;&gt;Provision required containers&lt;br&gt;&lt;/font&gt;" style="sketch=0;html=1;dashed=0;whitespace=wrap;fillColor=#2875E2;strokeColor=#ffffff;points=[[0.005,0.63,0],[0.1,0.2,0],[0.9,0.2,0],[0.5,0,0],[0.995,0.63,0],[0.72,0.99,0],[0.5,1,0],[0.28,0.99,0]];verticalLabelPosition=bottom;align=center;verticalAlign=top;shape=mxgraph.kubernetes.icon;prIcon=kubelet;shadow=1;" parent="1" vertex="1">
          <mxGeometry x="730" y="420" width="50" height="60" as="geometry" />
        </mxCell>
        <mxCell id="nfACmutVR25ySbIeztQv-23" value="&lt;font color=&quot;#030303&quot;&gt;Version and Store Artifact&lt;/font&gt;" style="sketch=0;html=1;aspect=fixed;strokeColor=none;shadow=1;fillColor=#3B8DF1;verticalAlign=top;labelPosition=center;verticalLabelPosition=bottom;shape=mxgraph.gcp2.repository_primary" parent="1" vertex="1">
          <mxGeometry x="630" y="280" width="70" height="70" as="geometry" />
        </mxCell>
        <mxCell id="nfACmutVR25ySbIeztQv-27" value="" style="endArrow=classic;html=1;rounded=0;strokeColor=#000000;exitX=0.822;exitY=0.433;exitDx=0;exitDy=0;exitPerimeter=0;entryX=0.057;entryY=0.633;entryDx=0;entryDy=0;entryPerimeter=0;shadow=1;" parent="1" source="nfACmutVR25ySbIeztQv-45" target="nfACmutVR25ySbIeztQv-23" edge="1">
          <mxGeometry width="50" height="50" relative="1" as="geometry">
            <mxPoint x="560" y="384.38" as="sourcePoint" />
            <mxPoint x="622" y="340.0035294117647" as="targetPoint" />
            <Array as="points" />
          </mxGeometry>
        </mxCell>
        <mxCell id="nfACmutVR25ySbIeztQv-32" value="" style="endArrow=classic;html=1;rounded=0;shadow=1;" parent="1" edge="1">
          <mxGeometry width="50" height="50" relative="1" as="geometry">
            <mxPoint x="630" y="520" as="sourcePoint" />
            <mxPoint x="680" y="470" as="targetPoint" />
          </mxGeometry>
        </mxCell>
        <mxCell id="nfACmutVR25ySbIeztQv-36" value="" style="endArrow=classic;html=1;rounded=0;shadow=1;" parent="1" edge="1">
          <mxGeometry width="50" height="50" relative="1" as="geometry">
            <mxPoint x="690" y="320" as="sourcePoint" />
            <mxPoint x="770" y="440" as="targetPoint" />
          </mxGeometry>
        </mxCell>
        <mxCell id="nfACmutVR25ySbIeztQv-37" value="Deploy Artifact" style="endArrow=classic;html=1;rounded=0;strokeColor=#0A0A0A;entryX=0.26;entryY=0.183;entryDx=0;entryDy=0;entryPerimeter=0;shadow=1;" parent="1" target="nfACmutVR25ySbIeztQv-21" edge="1">
          <mxGeometry x="0.4592" y="-2" width="50" height="50" relative="1" as="geometry">
            <mxPoint x="690" y="330" as="sourcePoint" />
            <mxPoint x="820" y="270" as="targetPoint" />
            <mxPoint as="offset" />
          </mxGeometry>
        </mxCell>
        <mxCell id="nfACmutVR25ySbIeztQv-38" value="" style="endArrow=classic;html=1;rounded=0;exitX=0.995;exitY=0.63;exitDx=0;exitDy=0;exitPerimeter=0;strokeColor=#0A0A0A;shadow=1;" parent="1" source="nfACmutVR25ySbIeztQv-21" target="nfACmutVR25ySbIeztQv-39" edge="1">
          <mxGeometry width="50" height="50" relative="1" as="geometry">
            <mxPoint x="800" y="510" as="sourcePoint" />
            <mxPoint x="880" y="460" as="targetPoint" />
          </mxGeometry>
        </mxCell>
        <mxCell id="nfACmutVR25ySbIeztQv-39" value="Execute Automated Tests" style="image;aspect=fixed;html=1;points=[];align=center;fontSize=12;image=img/lib/azure2/general/Web_Test.svg;shadow=1;" parent="1" vertex="1">
          <mxGeometry x="890" y="430" width="56" height="56" as="geometry" />
        </mxCell>
        <mxCell id="nfACmutVR25ySbIeztQv-42" value="" style="endArrow=classic;html=1;rounded=0;strokeColor=#000000;shadow=1;" parent="1" source="nfACmutVR25ySbIeztQv-39" edge="1">
          <mxGeometry width="50" height="50" relative="1" as="geometry">
            <mxPoint x="760" y="550" as="sourcePoint" />
            <mxPoint x="918" y="560" as="targetPoint" />
            <Array as="points" />
          </mxGeometry>
        </mxCell>
        <mxCell id="nfACmutVR25ySbIeztQv-43" value="&lt;font color=&quot;#000000&quot;&gt;Deploy to Production&lt;/font&gt;" style="outlineConnect=0;dashed=0;verticalLabelPosition=bottom;verticalAlign=top;align=center;html=1;shape=mxgraph.aws3.codedeploy;fillColor=#759C3E;gradientColor=none;shadow=1;" parent="1" vertex="1">
          <mxGeometry x="880" y="560" width="67.5" height="70" as="geometry" />
        </mxCell>
        <mxCell id="nfACmutVR25ySbIeztQv-45" value="&lt;font color=&quot;#020203&quot;&gt;SAST &amp;amp; DAST &lt;br&gt;(ZAP)&lt;/font&gt;" style="sketch=0;html=1;dashed=0;whitespace=wrap;fillColor=#2875E2;strokeColor=#ffffff;points=[[0.005,0.63,0],[0.1,0.2,0],[0.9,0.2,0],[0.5,0,0],[0.995,0.63,0],[0.72,0.99,0],[0.5,1,0],[0.28,0.99,0]];verticalLabelPosition=bottom;align=center;verticalAlign=top;shape=mxgraph.kubernetes.icon;prIcon=secret;shadow=1;" parent="1" vertex="1">
          <mxGeometry x="530" y="400" width="60" height="90" as="geometry" />
        </mxCell>
        <mxCell id="nfACmutVR25ySbIeztQv-46" style="edgeStyle=orthogonalEdgeStyle;rounded=0;orthogonalLoop=1;jettySize=auto;html=1;endArrow=open;endFill=0;strokeWidth=2;strokeColor=#545B64;startArrow=none;exitX=1;exitY=0.5;exitDx=0;exitDy=0;shadow=1;" parent="1" edge="1">
          <mxGeometry relative="1" as="geometry">
            <mxPoint x="470" y="451" as="sourcePoint" />
            <mxPoint x="530" y="450" as="targetPoint" />
          </mxGeometry>
        </mxCell>
        <mxCell id="nfACmutVR25ySbIeztQv-47" value="" style="endArrow=classic;html=1;rounded=0;strokeColor=#080808;shadow=1;" parent="1" edge="1">
          <mxGeometry width="50" height="50" relative="1" as="geometry">
            <mxPoint x="334" y="444.25" as="sourcePoint" />
            <mxPoint x="390" y="448.1875" as="targetPoint" />
          </mxGeometry>
        </mxCell>
        <mxCell id="nfACmutVR25ySbIeztQv-53" value="Text" style="text;html=1;strokeColor=none;fillColor=none;align=center;verticalAlign=middle;whiteSpace=wrap;rounded=0;shadow=1;" parent="1" vertex="1">
          <mxGeometry x="680" y="280" width="60" height="30" as="geometry" />
        </mxCell>
        <mxCell id="nfACmutVR25ySbIeztQv-54" value="Text" style="text;html=1;strokeColor=none;fillColor=none;align=center;verticalAlign=middle;whiteSpace=wrap;rounded=0;shadow=1;" parent="1" vertex="1">
          <mxGeometry x="680" y="280" width="60" height="30" as="geometry" />
        </mxCell>
        <mxCell id="nfACmutVR25ySbIeztQv-55" value="Text" style="text;html=1;strokeColor=none;fillColor=none;align=center;verticalAlign=middle;whiteSpace=wrap;rounded=0;shadow=1;" parent="1" vertex="1">
          <mxGeometry x="680" y="280" width="60" height="30" as="geometry" />
        </mxCell>
        <mxCell id="nfACmutVR25ySbIeztQv-56" value="Text" style="text;html=1;strokeColor=none;fillColor=none;align=center;verticalAlign=middle;whiteSpace=wrap;rounded=0;shadow=1;" parent="1" vertex="1">
          <mxGeometry x="680" y="280" width="60" height="30" as="geometry" />
        </mxCell>
        <mxCell id="nfACmutVR25ySbIeztQv-63" value="Source code is built into executable artifact using a build tool such as Maven, Ant, or Gradle.&amp;nbsp;" style="text;html=1;align=left;verticalAlign=top;spacingTop=-4;fontSize=14;labelBackgroundColor=none;whiteSpace=wrap;fontColor=#080808;" parent="1" vertex="1">
          <mxGeometry x="1080" y="428" width="450" height="40" as="geometry" />
        </mxCell>
        <mxCell id="nfACmutVR25ySbIeztQv-69" value="" style="edgeStyle=orthogonalEdgeStyle;rounded=0;orthogonalLoop=1;jettySize=auto;html=1;" parent="1" source="nfACmutVR25ySbIeztQv-67" target="nfACmutVR25ySbIeztQv-68" edge="1">
          <mxGeometry relative="1" as="geometry" />
        </mxCell>
        <mxCell id="nfACmutVR25ySbIeztQv-67" value="4" style="rounded=1;whiteSpace=wrap;html=1;fillColor=#007CBD;strokeColor=none;fontColor=#FFFFFF;fontStyle=1;fontSize=22;labelBackgroundColor=none;" parent="1" vertex="1">
          <mxGeometry x="1030" y="498" width="40" height="38" as="geometry" />
        </mxCell>
        <mxCell id="nfACmutVR25ySbIeztQv-68" value="Code is scanned for vulnerabilities using an Open Source tool such as ZAP." style="text;html=1;align=left;verticalAlign=top;spacingTop=-4;fontSize=14;labelBackgroundColor=none;whiteSpace=wrap;fontColor=#080808;" parent="1" vertex="1">
          <mxGeometry x="1080" y="498" width="450" height="40" as="geometry" />
        </mxCell>
        <mxCell id="nfACmutVR25ySbIeztQv-72" value="X" style="rounded=1;whiteSpace=wrap;html=1;fillColor=#007CBD;strokeColor=none;fontColor=#FFFFFF;fontStyle=1;fontSize=22;labelBackgroundColor=none;arcSize=50;" parent="1" vertex="1">
          <mxGeometry x="1030" y="252" width="40" height="38" as="geometry" />
        </mxCell>
        <mxCell id="nfACmutVR25ySbIeztQv-73" value="&lt;b&gt;Jenkins X will orchestrate the pipeline&lt;/b&gt;" style="text;html=1;align=center;verticalAlign=top;spacingTop=-4;fontSize=14;labelBackgroundColor=none;whiteSpace=wrap;fontColor=#080808;" parent="1" vertex="1">
          <mxGeometry x="1070" y="262" width="450" height="20" as="geometry" />
        </mxCell>
        <mxCell id="nfACmutVR25ySbIeztQv-74" value="5" style="rounded=1;whiteSpace=wrap;html=1;fillColor=#007CBD;strokeColor=none;fontColor=#FFFFFF;fontStyle=1;fontSize=22;labelBackgroundColor=none;" parent="1" vertex="1">
          <mxGeometry x="1032" y="557" width="40" height="38" as="geometry" />
        </mxCell>
        <mxCell id="nfACmutVR25ySbIeztQv-75" value="Artifact is version and stored in a repository" style="text;html=1;align=left;verticalAlign=top;spacingTop=-4;fontSize=14;labelBackgroundColor=none;whiteSpace=wrap;fontColor=#080808;" parent="1" vertex="1">
          <mxGeometry x="1082" y="557" width="450" height="40" as="geometry" />
        </mxCell>
        <mxCell id="nfACmutVR25ySbIeztQv-76" value="6" style="rounded=1;whiteSpace=wrap;html=1;fillColor=#007CBD;strokeColor=none;fontColor=#FFFFFF;fontStyle=1;fontSize=22;labelBackgroundColor=none;" parent="1" vertex="1">
          <mxGeometry x="1032" y="616" width="40" height="38" as="geometry" />
        </mxCell>
        <mxCell id="nfACmutVR25ySbIeztQv-77" value="Kubernetes Containers are provisioned and artifact is deployed to containers" style="text;html=1;align=left;verticalAlign=top;spacingTop=-4;fontSize=14;labelBackgroundColor=none;whiteSpace=wrap;fontColor=#080808;" parent="1" vertex="1">
          <mxGeometry x="1080" y="616" width="450" height="40" as="geometry" />
        </mxCell>
        <mxCell id="nfACmutVR25ySbIeztQv-78" value="7" style="rounded=1;whiteSpace=wrap;html=1;fillColor=#007CBD;strokeColor=none;fontColor=#FFFFFF;fontStyle=1;fontSize=22;labelBackgroundColor=none;" parent="1" vertex="1">
          <mxGeometry x="1030" y="676" width="40" height="38" as="geometry" />
        </mxCell>
        <mxCell id="nfACmutVR25ySbIeztQv-79" value="Automated tests are execute to ensure software continues to function as expected. Test suite may include Selenium UI tests, Postman endpooint testing, and Jmeter performance testing." style="text;html=1;align=left;verticalAlign=top;spacingTop=-4;fontSize=14;labelBackgroundColor=none;whiteSpace=wrap;fontColor=#080808;" parent="1" vertex="1">
          <mxGeometry x="1083" y="673" width="450" height="40" as="geometry" />
        </mxCell>
        <mxCell id="nfACmutVR25ySbIeztQv-80" value="8" style="rounded=1;whiteSpace=wrap;html=1;fillColor=#007CBD;strokeColor=none;fontColor=#FFFFFF;fontStyle=1;fontSize=22;labelBackgroundColor=none;" parent="1" vertex="1">
          <mxGeometry x="1030" y="742" width="40" height="38" as="geometry" />
        </mxCell>
        <mxCell id="nfACmutVR25ySbIeztQv-81" value="Artifact and containers are deployed to production.&amp;nbsp;" style="text;html=1;align=left;verticalAlign=top;spacingTop=-4;fontSize=14;labelBackgroundColor=none;whiteSpace=wrap;fontColor=#080808;" parent="1" vertex="1">
          <mxGeometry x="1081" y="747" width="450" height="40" as="geometry" />
        </mxCell>
        <mxCell id="nfACmutVR25ySbIeztQv-82" value="" style="endArrow=classic;html=1;rounded=0;strokeColor=#050505;exitX=0.5;exitY=1;exitDx=0;exitDy=0;exitPerimeter=0;entryX=0.479;entryY=0.25;entryDx=0;entryDy=0;entryPerimeter=0;shadow=1;" parent="1" source="nfACmutVR25ySbIeztQv-43" target="nfACmutVR25ySbIeztQv-84" edge="1">
          <mxGeometry width="50" height="50" relative="1" as="geometry">
            <mxPoint x="600" y="1010" as="sourcePoint" />
            <mxPoint x="650" y="960" as="targetPoint" />
          </mxGeometry>
        </mxCell>
        <mxCell id="nfACmutVR25ySbIeztQv-86" value="" style="edgeStyle=orthogonalEdgeStyle;rounded=0;orthogonalLoop=1;jettySize=auto;html=1;" parent="1" source="nfACmutVR25ySbIeztQv-84" edge="1">
          <mxGeometry relative="1" as="geometry">
            <mxPoint x="919" y="850" as="targetPoint" />
          </mxGeometry>
        </mxCell>
        <mxCell id="nfACmutVR25ySbIeztQv-84" value="Monitor and Alerting" style="sketch=0;html=1;aspect=fixed;strokeColor=none;shadow=1;fillColor=#3B8DF1;verticalAlign=top;labelPosition=center;verticalLabelPosition=bottom;shape=mxgraph.gcp2.anomaly_detection;fontColor=#030303;" parent="1" vertex="1">
          <mxGeometry x="880" y="670" width="78" height="100" as="geometry" />
        </mxCell>
        <mxCell id="nfACmutVR25ySbIeztQv-89" value="" style="edgeStyle=orthogonalEdgeStyle;rounded=0;orthogonalLoop=1;jettySize=auto;html=1;" parent="1" source="nfACmutVR25ySbIeztQv-87" target="nfACmutVR25ySbIeztQv-88" edge="1">
          <mxGeometry relative="1" as="geometry" />
        </mxCell>
        <mxCell id="nfACmutVR25ySbIeztQv-90" value="" style="edgeStyle=orthogonalEdgeStyle;rounded=0;orthogonalLoop=1;jettySize=auto;html=1;" parent="1" source="nfACmutVR25ySbIeztQv-87" target="nfACmutVR25ySbIeztQv-88" edge="1">
          <mxGeometry relative="1" as="geometry" />
        </mxCell>
        <mxCell id="nfACmutVR25ySbIeztQv-87" value="9" style="rounded=1;whiteSpace=wrap;html=1;fillColor=#007CBD;strokeColor=none;fontColor=#FFFFFF;fontStyle=1;fontSize=22;labelBackgroundColor=none;" parent="1" vertex="1">
          <mxGeometry x="1030" y="796" width="40" height="38" as="geometry" />
        </mxCell>
        <mxCell id="nfACmutVR25ySbIeztQv-88" value="Monitor and alert on the health of the application using open source tools such as Grafana and Prometheus" style="text;html=1;align=left;verticalAlign=top;spacingTop=-4;fontSize=14;labelBackgroundColor=none;whiteSpace=wrap;fontColor=#080808;" parent="1" vertex="1">
          <mxGeometry x="1081" y="794" width="450" height="40" as="geometry" />
        </mxCell>
        <mxCell id="nfACmutVR25ySbIeztQv-91" value="Next Generation Devops Assignment #2&lt;br&gt;&lt;br&gt;Team Members&lt;br&gt;&lt;br&gt;1) Lyndon Reid (8220546388)" style="whiteSpace=wrap;html=1;aspect=fixed;" parent="1" vertex="1">
          <mxGeometry x="10" y="10" width="230" height="230" as="geometry" />
        </mxCell>
        <mxCell id="nfACmutVR25ySbIeztQv-92" style="edgeStyle=orthogonalEdgeStyle;rounded=0;orthogonalLoop=1;jettySize=auto;html=1;exitX=1;exitY=1;exitDx=0;exitDy=0;" parent="1" source="nfACmutVR25ySbIeztQv-91" target="nfACmutVR25ySbIeztQv-91" edge="1">
          <mxGeometry relative="1" as="geometry" />
        </mxCell>
        <mxCell id="nfACmutVR25ySbIeztQv-93" value="Static Code Analysis (Sonar Qube)" style="whiteSpace=wrap;html=1;aspect=fixed;verticalAlign=top;labelPosition=center;verticalLabelPosition=bottom;align=center;fontColor=#030303;shadow=1;" parent="1" vertex="1">
          <mxGeometry x="260" y="410" width="80" height="80" as="geometry" />
        </mxCell>
        <mxCell id="nfACmutVR25ySbIeztQv-94" value="Build" style="image;aspect=fixed;html=1;points=[];align=center;fontSize=12;image=img/lib/azure2/general/Builds.svg;shadow=1;" parent="1" vertex="1">
          <mxGeometry x="400" y="420" width="64" height="64" as="geometry" />
        </mxCell>
        <mxCell id="nfACmutVR25ySbIeztQv-95" value="Sonar Qube static code analysis to is run to check source code&amp;nbsp;" style="text;html=1;align=left;verticalAlign=top;spacingTop=-4;fontSize=14;labelBackgroundColor=none;whiteSpace=wrap;fontColor=#080808;" parent="1" vertex="1">
          <mxGeometry x="1080" y="360" width="450" height="40" as="geometry" />
        </mxCell>
      </root>
    </mxGraphModel>
  </diagram>
</mxfile>
